<svg width="24" height="40" viewBox="0 0 24 40" fill="none" xmlns="http://www.w3.org/2000/svg">
<path fill-rule="evenodd" clip-rule="evenodd" d="M13.5654 3.48424L13.5654 18.2881L10.435 18.2881L10.435 3.48424C10.435 2.66665 11.1358 2.00386 12.0002 2.00386C12.8647 2.00386 13.5654 2.66665 13.5654 3.48424Z" fill="#F2F3F4"/>
<path fill-rule="evenodd" clip-rule="evenodd" d="M12 20.2615C7.10148 20.2615 3.13044 24.0174 3.13044 28.6504C3.13044 33.2834 7.10148 37.0392 12 37.0392C16.8985 37.0392 20.8696 33.2834 20.8696 28.6504C20.8696 24.0174 16.8985 20.2615 12 20.2615ZM12 17.3008C5.37259 17.3008 3.53581e-06 22.3822 2.95642e-06 28.6504C2.37703e-06 34.9186 5.37258 40 12 40C18.6274 40 24 34.9186 24 28.6504C24 22.3822 18.6274 17.3008 12 17.3008Z" fill="#F2F3F4"/>
<path fill-rule="evenodd" clip-rule="evenodd" d="M17.7393 12.3656C17.7393 13.1832 17.0385 13.846 16.174 13.846H7.82622C6.96177 13.846 6.261 13.1832 6.261 12.3656C6.261 11.548 6.96177 10.8853 7.82622 10.8853H16.174C17.0385 10.8853 17.7393 11.548 17.7393 12.3656Z" fill="#F2F3F4"/>
<path fill-rule="evenodd" clip-rule="evenodd" d="M2.99177 9.38801C2.42561 8.77016 2.49622 7.83521 3.14948 7.29975L10.9756 0.884748C11.5681 0.399085 12.4491 0.402964 13.0367 0.893825L20.5695 7.18551C21.2175 7.7267 21.2789 8.66223 20.7067 9.27506C20.1344 9.8879 19.1453 9.94597 18.4974 9.40477L11.991 3.97038L5.19969 9.53717C4.54644 10.0726 3.55792 10.0059 2.99177 9.38801Z" fill="#F2F3F4"/>
</svg>
