<svg width="28" height="41" viewBox="0 0 28 41" fill="none" xmlns="http://www.w3.org/2000/svg">
<path fill-rule="evenodd" clip-rule="evenodd" d="M23.9975 1.18513L15.0601 11.4568L17.2602 13.4555L26.1975 3.18389C26.7376 2.56314 26.683 1.61249 26.0755 1.06055C25.4679 0.508604 24.5376 0.564381 23.9975 1.18513Z" fill="#F2F3F4"/>
<path fill-rule="evenodd" clip-rule="evenodd" d="M16.2109 2.00315C16.2109 1.17352 16.8707 0.500977 17.6846 0.500977H26.5267C27.3406 0.500977 28.0004 1.17352 28.0004 2.00315V11.0162C28.0004 11.8458 27.3406 12.5184 26.5267 12.5184C25.7128 12.5184 25.053 11.8458 25.053 11.0162V3.50532H17.6846C16.8707 3.50532 16.2109 2.83278 16.2109 2.00315Z" fill="#F2F3F4"/>
<path fill-rule="evenodd" clip-rule="evenodd" d="M9.82456 26.0378C13.6227 26.0378 16.7018 22.8993 16.7018 19.0277C16.7018 15.1561 13.6227 12.0175 9.82456 12.0175C6.02639 12.0175 2.94737 15.1561 2.94737 19.0277C2.94737 22.8993 6.02639 26.0378 9.82456 26.0378ZM9.82456 29.0421C15.2505 29.0421 19.6491 24.5585 19.6491 19.0277C19.6491 13.4968 15.2505 9.01318 9.82456 9.01318C4.39861 9.01318 0 13.4968 0 19.0277C0 24.5585 4.39861 29.0421 9.82456 29.0421Z" fill="#F2F3F4"/>
<path fill-rule="evenodd" clip-rule="evenodd" d="M8.35059 38.556V27.54H11.298V38.556C11.298 39.3856 10.6382 40.0581 9.82427 40.0581C9.01038 40.0581 8.35059 39.3856 8.35059 38.556Z" fill="#F2F3F4"/>
<path fill-rule="evenodd" clip-rule="evenodd" d="M16.2109 33.5486C16.2109 34.3782 15.5511 35.0507 14.7373 35.0507L3.93024 35.0507C3.11634 35.0507 2.45655 34.3782 2.45655 33.5486C2.45655 32.7189 3.11634 32.0464 3.93024 32.0464L14.7373 32.0464C15.5511 32.0464 16.2109 32.7189 16.2109 33.5486Z" fill="#F2F3F4"/>
</svg>
