<svg width="23" height="40" viewBox="0 0 23 40" fill="none" xmlns="http://www.w3.org/2000/svg">
<path fill-rule="evenodd" clip-rule="evenodd" d="M11.5 20.2532C16.1944 20.2532 20 16.3994 20 11.6456C20 6.89173 16.1944 3.03797 11.5 3.03797C6.80558 3.03797 3 6.89173 3 11.6456C3 16.3994 6.80558 20.2532 11.5 20.2532ZM11.5 23.2911C17.8513 23.2911 23 18.0772 23 11.6456C23 5.2139 17.8513 0 11.5 0C5.14873 0 0 5.2139 0 11.6456C0 18.0772 5.14873 23.2911 11.5 23.2911Z" fill="#F2F3F4"/>
<path fill-rule="evenodd" clip-rule="evenodd" d="M9.5 38.4808V21.2656H12.5V38.4808C12.5 39.3197 11.8284 39.9998 11 39.9998C10.1716 39.9998 9.5 39.3197 9.5 38.4808Z" fill="#F2F3F4"/>
<path fill-rule="evenodd" clip-rule="evenodd" d="M20 30.8862C20 31.7251 19.3284 32.4052 18.5 32.4052L3.5 32.4052C2.67157 32.4052 2 31.7251 2 30.8862C2 30.0473 2.67157 29.3672 3.5 29.3672L18.5 29.3672C19.3284 29.3672 20 30.0473 20 30.8862Z" fill="#F2F3F4"/>
</svg>
