<svg width="23" height="40" viewBox="0 0 23 40" fill="none" xmlns="http://www.w3.org/2000/svg">
<path fill-rule="evenodd" clip-rule="evenodd" d="M11.5 19.7468C6.80558 19.7468 3 23.6006 3 28.3544C3 33.1083 6.80558 36.962 11.5 36.962C16.1944 36.962 20 33.1083 20 28.3544C20 23.6006 16.1944 19.7468 11.5 19.7468ZM11.5 16.7089C5.14873 16.7089 1.56061e-06 21.9228 1.00536e-06 28.3544C4.50116e-07 34.7861 5.14873 40 11.5 40C17.8513 40 23 34.7861 23 28.3544C23 21.9228 17.8513 16.7089 11.5 16.7089Z" fill="#F2F3F4"/>
<path fill-rule="evenodd" clip-rule="evenodd" d="M13.5 1.51918L13.5 18.7344L10.5 18.7344L10.5 1.51918C10.5 0.680273 11.1716 0.000198158 12 0.000198231C12.8284 0.000198305 13.5 0.680273 13.5 1.51918Z" fill="#F2F3F4"/>
</svg>
