<svg width="36" height="40" viewBox="0 0 36 40" fill="none" xmlns="http://www.w3.org/2000/svg">
<path fill-rule="evenodd" clip-rule="evenodd" d="M32.3259 1.18327L23.2571 11.44L25.4895 13.4359L34.5583 3.17913C35.1064 2.55928 35.0509 1.61001 34.4345 1.05887C33.818 0.507726 32.874 0.563421 32.3259 1.18327Z" fill="#F2F3F4"/>
<path fill-rule="evenodd" clip-rule="evenodd" d="M4.00427 1.69626L13.9726 10.8966L11.9475 13.1043L1.97924 3.90391C1.37149 3.34299 1.33213 2.39406 1.89133 1.78444C2.45053 1.17481 3.39652 1.13533 4.00427 1.69626Z" fill="#F2F3F4"/>
<path fill-rule="evenodd" clip-rule="evenodd" d="M23.9258 1.62264C23.9258 0.726482 24.5953 0 25.4211 0H34.3934C35.2192 0 35.8887 0.726482 35.8887 1.62264V11.3585C35.8887 12.2547 35.2192 12.9812 34.3934 12.9812C33.5675 12.9812 32.898 12.2547 32.898 11.3585V3.24529H25.4211C24.5953 3.24529 23.9258 2.51881 23.9258 1.62264Z" fill="#F2F3F4"/>
<path fill-rule="evenodd" clip-rule="evenodd" d="M1.49537 12.981C0.669499 12.981 -3.158e-08 12.2545 -7.05359e-08 11.3583L-4.93751e-07 1.62245C-5.32707e-07 0.726287 0.669498 -0.000194579 1.49537 -0.000194615L10.4676 -0.00019501C11.2934 -0.000195046 11.9629 0.726286 11.9629 1.62245C11.9629 2.51861 11.2934 3.24509 10.4676 3.24509L2.99073 3.24509L2.99073 11.3583C2.99073 12.2545 2.32124 12.981 1.49537 12.981Z" fill="#F2F3F4"/>
<path fill-rule="evenodd" clip-rule="evenodd" d="M13.0199 5.93983C13.6039 6.52561 13.6039 7.47535 13.0199 8.06114L9.03224 12.0611C8.44827 12.6469 7.50145 12.6469 6.91748 12.0611C6.3335 11.4753 6.3335 10.5256 6.91748 9.93981L10.9051 5.93983C11.4891 5.35404 12.4359 5.35404 13.0199 5.93983Z" fill="#F2F3F4"/>
<path fill-rule="evenodd" clip-rule="evenodd" d="M17.9447 25.9999C21.7988 25.9999 24.9231 22.8659 24.9231 19C24.9231 15.134 21.7988 12 17.9447 12C14.0906 12 10.9663 15.134 10.9663 19C10.9663 22.8659 14.0906 25.9999 17.9447 25.9999ZM17.9447 28.9999C23.4505 28.9999 27.9138 24.5228 27.9138 19C27.9138 13.4771 23.4505 9 17.9447 9C12.4389 9 7.97559 13.4771 7.97559 19C7.97559 24.5228 12.4389 28.9999 17.9447 28.9999Z" fill="#F2F3F4"/>
<path fill-rule="evenodd" clip-rule="evenodd" d="M16.4492 38.5V27.5H19.44V38.5C19.44 39.3284 18.7705 40 17.9446 40C17.1187 40 16.4492 39.3284 16.4492 38.5Z" fill="#F2F3F4"/>
<path fill-rule="evenodd" clip-rule="evenodd" d="M24.4248 33.5C24.4248 34.3284 23.7553 35 22.9294 35L11.9634 35C11.1375 35 10.468 34.3284 10.468 33.5C10.468 32.6716 11.1375 32 11.9634 32L22.9294 32C23.7553 32 24.4248 32.6716 24.4248 33.5Z" fill="#F2F3F4"/>
</svg>
