<svg width="48" height="40" viewBox="0 0 48 40" fill="none" xmlns="http://www.w3.org/2000/svg">
<path d="M48 20.0046C48 17.0291 44.0179 14.2092 37.9128 12.4605C39.3216 6.63767 38.6955 2.00504 35.9364 0.521858C35.3004 0.173953 34.5569 0.00915527 33.7448 0.00915527V2.05081C34.1949 2.05081 34.5569 2.13321 34.8602 2.28885C36.1908 3.00298 36.768 5.72213 36.318 9.2195C36.2104 10.0801 36.0342 10.9865 35.819 11.9112C33.9013 11.4717 31.8076 11.133 29.6062 10.9133C28.2854 9.2195 26.9156 7.68139 25.5361 6.33555C28.7256 3.56146 31.7195 2.04166 33.7546 2.04166V0C31.064 0 27.5418 1.79446 23.9804 4.9073C20.4191 1.81277 16.8969 0.0366218 14.2063 0.0366218V2.07828C16.2316 2.07828 19.2352 3.58892 22.4248 6.3447C21.055 7.69055 19.6853 9.2195 18.384 10.9133C16.1729 11.133 14.0791 11.4717 12.1614 11.9203C11.9364 11.0048 11.7701 10.1167 11.6527 9.26528C11.1928 5.76791 11.7603 3.04875 13.0811 2.32547C13.3746 2.16068 13.7562 2.08743 14.2063 2.08743V0.0457771C13.3844 0.0457771 12.6408 0.210574 11.9951 0.55848C9.24582 2.04166 8.62943 6.66514 10.0481 12.4697C3.96249 14.2275 0 17.0382 0 20.0046C0 22.9801 3.98206 25.8 10.0872 27.5486C8.67835 33.3715 9.30453 38.0041 12.0636 39.4873C12.6996 39.8352 13.4431 40 14.265 40C16.9556 40 20.4778 38.2055 24.0391 35.0927C27.6005 38.1872 31.1227 39.9634 33.8133 39.9634C34.6351 39.9634 35.3787 39.7986 36.0245 39.4507C38.7738 37.9675 39.3901 33.344 37.9715 27.5395C44.0375 25.7908 48 22.9709 48 20.0046ZM35.2613 13.8979C34.8993 15.079 34.4492 16.2966 33.9405 17.5143C33.5393 16.7819 33.1186 16.0494 32.6588 15.317C32.2087 14.5846 31.7293 13.8705 31.2499 13.1746C32.6392 13.3669 33.9796 13.6049 35.2613 13.8979ZM30.7803 23.6484C30.0171 24.8844 29.2344 26.0563 28.4223 27.1458C26.9645 27.2648 25.4872 27.3289 24 27.3289C22.5226 27.3289 21.0453 27.2648 19.5972 27.155C18.7852 26.0655 17.9927 24.9027 17.2295 23.6759C16.4859 22.4765 15.8108 21.2589 15.1945 20.032C15.8011 18.8052 16.4859 17.5784 17.2197 16.379C17.9829 15.1431 18.7656 13.9712 19.5777 12.8817C21.0355 12.7626 22.5128 12.6986 24 12.6986C25.4774 12.6986 26.9548 12.7626 28.4028 12.8725C29.2148 13.962 30.0073 15.1247 30.7705 16.3516C31.5141 17.5509 32.1892 18.7686 32.8055 19.9954C32.1892 21.2222 31.5141 22.4491 30.7803 23.6484ZM33.9405 22.4582C34.4688 23.6851 34.9189 24.9119 35.2907 26.1021C34.009 26.3951 32.6588 26.6423 31.2597 26.8345C31.7391 26.1295 32.2185 25.4063 32.6686 24.6647C33.1186 23.9322 33.5393 23.1907 33.9405 22.4582ZM24.0196 32.2271C23.1097 31.3481 22.1998 30.3685 21.2996 29.2973C22.1802 29.3339 23.0803 29.3614 23.9902 29.3614C24.9099 29.3614 25.8198 29.3431 26.7102 29.2973C25.8296 30.3685 24.9197 31.3481 24.0196 32.2271ZM16.7403 26.8345C15.351 26.6423 14.0106 26.4042 12.7289 26.1112C13.0909 24.9302 13.541 23.7125 14.0497 22.4949C14.4509 23.2273 14.8716 23.9597 15.3314 24.6922C15.7913 25.4246 16.2609 26.1387 16.7403 26.8345ZM23.9707 7.7821C24.8806 8.66102 25.7905 9.64065 26.6906 10.7118C25.81 10.6752 24.9099 10.6477 24 10.6477C23.0803 10.6477 22.1704 10.6661 21.2801 10.7118C22.1606 9.64065 23.0705 8.66102 23.9707 7.7821ZM16.7305 13.1746C16.2511 13.8796 15.7717 14.6029 15.3216 15.3445C14.8716 16.0769 14.4509 16.8093 14.0497 17.5418C13.5214 16.3149 13.0713 15.0881 12.6996 13.8979C13.9812 13.6141 15.3314 13.3669 16.7305 13.1746ZM7.87607 24.6372C4.41256 23.2547 2.17203 21.442 2.17203 20.0046C2.17203 18.5672 4.41256 16.7452 7.87607 15.3719C8.71749 15.0332 9.63718 14.7311 10.5862 14.4472C11.1439 16.2417 11.8777 18.1094 12.7876 20.0229C11.8875 21.9272 11.1635 23.7858 10.6156 25.5711C9.64697 25.2872 8.72727 24.976 7.87607 24.6372ZM13.1398 37.7203C11.8092 37.0062 11.232 34.287 11.682 30.7897C11.7896 29.929 11.9658 29.0227 12.181 28.098C14.0987 28.5374 16.1924 28.8762 18.3938 29.0959C19.7146 30.7897 21.0844 32.3278 22.4639 33.6736C19.2744 36.4477 16.2805 37.9675 14.2454 37.9675C13.8051 37.9583 13.4333 37.8759 13.1398 37.7203ZM36.3473 30.7439C36.8072 34.2412 36.2397 36.9604 34.9189 37.6837C34.6254 37.8485 34.2438 37.9217 33.7937 37.9217C31.7684 37.9217 28.7648 36.4111 25.5752 33.6553C26.945 32.3095 28.3147 30.7805 29.616 29.0867C31.8272 28.867 33.9209 28.5283 35.8386 28.0797C36.0636 29.0043 36.2397 29.8924 36.3473 30.7439ZM40.1141 24.6372C39.2727 24.976 38.353 25.2781 37.404 25.5619C36.8463 23.7675 36.1125 21.8997 35.2026 19.9863C36.1027 18.0819 36.8267 16.2234 37.3746 14.4381C38.3433 14.7219 39.2629 15.0332 40.1239 15.3719C43.5874 16.7544 45.828 18.5672 45.828 20.0046C45.8182 21.442 43.5777 23.2639 40.1141 24.6372Z" fill="#61DAFB"/>
<path d="M23.9898 24.1884C26.4592 24.1884 28.4611 22.3151 28.4611 20.0043C28.4611 17.6936 26.4592 15.8203 23.9898 15.8203C21.5204 15.8203 19.5186 17.6936 19.5186 20.0043C19.5186 22.3151 21.5204 24.1884 23.9898 24.1884Z" fill="#61DAFB"/>
</svg>
