<svg width="40" height="40" viewBox="0 0 40 40" fill="none" xmlns="http://www.w3.org/2000/svg">
<path d="M39.1766 15.7342C37.8973 11.6738 34.7647 12.7351 34.7647 12.7351C34.7647 12.7351 34.7647 12.7395 34.7647 12.7417C31.6587 8.95721 26.21 6.44531 20.0003 6.44531C13.7907 6.44531 8.33967 8.95721 5.23595 12.7417C5.23595 12.7395 5.23595 12.7351 5.23595 12.7351C5.23595 12.7351 2.10331 11.6738 0.823999 15.7342C-0.455313 19.7946 1.74065 25.0943 3.92327 27.1724C10.1418 31.017 12.7917 33.589 20.0003 33.589C27.209 33.589 29.3893 31.0726 36.0751 27.1724C38.26 25.0943 40.4559 19.7946 39.1766 15.7342Z" fill="#AFBEC1"/>
<path d="M35.1016 15.8899C35.0237 15.5005 35.0793 15.0889 35.3041 14.7619C35.5621 14.3858 35.9159 14.2568 36.3987 14.2012C38.0674 14.0098 38.43 15.4427 38.43 15.4427C39.7049 19.176 37.8671 25.1254 35.3308 26.8808C35.7713 25.8374 36.0828 20.8113 35.1016 15.8899Z" fill="#3C4C47"/>
<path d="M4.94686 15.8899C5.02473 15.5005 4.96911 15.0889 4.7444 14.7619C4.48631 14.3858 4.13255 14.2568 3.64975 14.2012C1.98109 14.0098 1.61843 15.4427 1.61843 15.4427C0.343567 19.176 2.18133 25.1254 4.7177 26.8808C4.2794 25.8374 3.96569 20.8113 4.94686 15.8899Z" fill="#3C4C47"/>
<path d="M23.5053 11.2852H16.4969C11.4753 11.2852 7.48162 15.3567 7.40153 20.3805C7.35703 23.2395 8.62521 25.8626 10.4741 27.4935H10.4719C10.4719 27.4935 16.0764 31.8654 20.2236 31.8654C23.9102 31.8654 29.5258 27.4935 29.5258 27.4935H29.5236C31.3747 25.8649 32.6407 23.7134 32.5962 20.3805C32.5316 15.3567 28.5268 11.2852 23.5053 11.2852Z" fill="#3C4C47"/>
<path d="M16.8641 19.6346C15.191 19.0139 11.9961 18.6334 11.0527 18.6379C11.3286 17.0337 12.8527 15.9547 14.4568 16.2305C16.061 16.5064 17.14 18.0305 16.8641 19.6346Z" fill="#AFBEC1"/>
<path d="M23.1343 19.6346C24.8074 19.0139 28.0023 18.6334 28.9457 18.6379C28.6698 17.0337 27.1458 15.9547 25.5416 16.2305C23.9375 16.5064 22.8606 18.0305 23.1343 19.6346Z" fill="#AFBEC1"/>
<path fill-rule="evenodd" clip-rule="evenodd" d="M14.519 24.7909C14.6665 24.5947 14.9449 24.555 15.1413 24.702L15.1433 24.7035C15.1457 24.7052 15.1499 24.7083 15.1561 24.7127C15.1683 24.7213 15.1879 24.735 15.2144 24.7526C15.2675 24.788 15.348 24.839 15.452 24.898C15.6609 25.0164 15.9606 25.1643 16.3218 25.2817C17.0418 25.5156 17.9756 25.6197 18.93 25.1649C19.4247 24.8815 19.8716 24.7912 20.2736 24.8179C20.6708 24.8442 20.9887 24.9834 21.2132 25.0903C21.2268 25.0967 21.2404 25.1032 21.254 25.1097C21.7137 25.3286 22.2205 25.5698 22.8021 25.6036C23.3707 25.6365 24.0563 25.4705 24.8401 24.734C25.0192 24.5657 25.3008 24.5745 25.4691 24.7536C25.6373 24.9327 25.6286 25.2143 25.4495 25.3826C24.5023 26.2725 23.5826 26.5403 22.7506 26.492C21.9903 26.448 21.3428 26.1385 20.9011 25.9275C20.8771 25.916 20.8537 25.9048 20.8309 25.894L20.8307 25.8939C20.6302 25.7983 20.4376 25.7207 20.2147 25.7059C20.0008 25.6917 19.7231 25.7337 19.3608 25.9438L19.3461 25.9523L19.3309 25.9597C18.0987 26.5539 16.9068 26.4075 16.0468 26.1281C15.6162 25.9882 15.2612 25.8128 15.0131 25.6722C14.8888 25.6017 14.7903 25.5394 14.7215 25.4936C14.6871 25.4708 14.6601 25.452 14.6409 25.4384C14.6313 25.4316 14.6237 25.426 14.6181 25.4219L14.6111 25.4168L14.6088 25.4151L14.608 25.4145L14.6076 25.4142C14.6074 25.4141 14.6073 25.4139 14.8747 25.0583L14.6073 25.4139C14.4109 25.2663 14.3713 24.9873 14.519 24.7909Z" fill="#AFBEC1"/>
</svg>
