<svg width="40" height="40" viewBox="0 0 40 40" fill="none" xmlns="http://www.w3.org/2000/svg">
<g clip-path="url(#clip0_7419_37422)">
<path d="M36.3032 21.4634C34.0471 3.29268 21.9739 0.182927 21.9739 0.182927C21.9739 0.182927 20.5934 0 20.152 0C19.7105 0 18.4373 0.182927 18.4373 0.182927C18.4373 0.182927 6.36417 3.29268 4.10807 21.4634C3.50319 26.7341 5.53734 31.9829 8.85441 35.5463C11.5373 38.4293 15.3447 40 19.2837 40H21.1276C25.0666 40 28.8739 38.4317 31.5569 35.5463C34.8715 31.9829 36.9081 26.7341 36.3032 21.4634Z" fill="#B0775F"/>
<path d="M8.03916 23.5374C8.03916 23.5374 5.70745 21.0227 7.07819 18.8276C8.44892 16.6325 7.03184 9.22275 10.9196 9.40567C14.8075 9.5886 15.5855 14.1618 13.6196 15.8545C11.6538 17.5471 9.86843 19.3301 10.4172 20.7935C10.966 22.2569 9.63916 25.5032 8.03916 23.5374Z" fill="#BD907E"/>
<path d="M10.4635 32.5946C10.2391 32.2726 9.63912 30.536 10.2342 30.2629C10.8294 29.9897 11.6977 28.5702 12.7952 29.2116C13.8928 29.8531 11.744 34.4238 10.4635 32.5946Z" fill="#BD907E"/>
<path d="M12.4752 24.9104C12.302 24.1958 13.024 22.8056 13.7557 23.1251C14.4874 23.4446 15.8606 24.4519 15.402 25.1373C14.9435 25.8226 12.8411 26.4178 12.4752 24.9104Z" fill="#BD907E"/>
<path d="M19.7008 28.2752C19.7008 28.2752 21.4399 27.385 21.7594 26.3801C22.0789 25.3777 21.896 24.3191 20.2033 23.8094C18.5106 23.2996 20.2496 20.7947 21.6203 20.6752C22.9911 20.5557 28.1155 21.9289 27.2008 23.5338C26.2862 25.1386 22.8106 29.7606 20.752 29.5264C18.6935 29.2923 19.0179 28.6874 19.7008 28.2752Z" fill="#BD907E"/>
<path d="M21.1277 40.0025C21.5155 40.0025 21.9033 39.983 22.2887 39.9513C26.5229 38.4391 20.0204 34.7903 17.6911 36.1147C15.3594 37.4415 15.496 36.0684 13.9741 35.7952C12.4668 35.5245 12.7765 38.4196 12.7814 38.4757C14.779 39.4733 17.0082 40.0025 19.2838 40.0025H21.1277Z" fill="#BD907E"/>
<path d="M27.659 33.5067C27.659 33.5067 26.2419 30.6164 28.0248 31.0311C29.8077 31.4457 29.7175 32.2701 31.0443 31.7213C32.3711 31.1725 33.1492 29.4335 33.5151 30.4408C33.8809 31.4482 32.6151 34.6481 30.3199 34.9238C28.0248 35.1994 27.659 33.5067 27.659 33.5067Z" fill="#BD907E"/>
<path d="M24.4131 34.5115C23.596 34.1774 23.057 33.6432 23.6887 33.231C24.3204 32.8188 25.0058 32.6262 25.3278 33.0188C25.6473 33.414 25.6473 35.014 24.4131 34.5115Z" fill="#BD907E"/>
<path d="M5.56855 25.4362C6.2466 24.8704 6.97099 24.646 7.03929 25.3972C7.10758 26.1484 6.95636 26.846 6.4588 26.9436C5.9588 27.0411 4.54416 26.2899 5.56855 25.4362Z" fill="#BD907E"/>
<path d="M30.0822 16.7791C29.1944 14.9987 29.0164 12.9279 30.3505 12.884C31.6847 12.8377 31.2261 11.6035 30.814 10.0035C30.4018 8.40353 33.4993 10.0035 33.5749 13.1596C33.6481 16.3133 31.7725 20.1718 30.0822 16.7791Z" fill="#BD907E"/>
<path d="M31.0875 23.6733C31.0144 21.9733 31.6827 21.2489 32.368 21.7977C33.0534 22.3465 34.7827 23.3538 33.5753 23.7196C32.368 24.0855 31.1144 24.2635 31.0875 23.6733Z" fill="#BD907E"/>
<path d="M16.9603 0.742188C16.6579 0.878773 16.3189 1.04463 15.9506 1.24463C15.8872 1.51536 15.892 1.81048 15.9506 1.99585C16.1555 2.63731 15.9969 3.45926 14.853 3.9617C13.7091 4.46414 15.2164 4.93731 16.4994 6.47633C18.0994 8.39828 19.5628 3.82267 17.8725 1.62755C17.514 1.16658 17.2116 0.888529 16.9603 0.742188Z" fill="#BD907E"/>
<path d="M17.2779 16.3122C17.5438 15.1049 18.5218 14.3903 19.1804 14.7561C19.8389 15.122 22.2633 16.722 22.995 15.5342C23.7267 14.3464 26.4706 15.6439 25.1901 16.7781C23.9096 17.9122 16.5901 19.422 17.2779 16.3122Z" fill="#BD907E"/>
<path d="M20.8245 12.7119C19.5976 12.0973 21.6927 10.7461 23.0196 10.8363C24.3464 10.9266 22.6537 13.6266 20.8245 12.7119Z" fill="#BD907E"/>
<path d="M21.379 6.52573C22.162 5.05012 23.5766 2.44036 25.2985 3.77451C27.0205 5.10865 26.5181 6.84524 27.7059 7.39402C28.8937 7.9428 29.8107 6.75256 29.9937 8.21841C30.1766 9.68426 29.6278 12.655 27.9351 11.6721C26.2424 10.6891 20.4839 8.21109 21.379 6.52573Z" fill="#BD907E"/>
</g>
<defs>
<clipPath id="clip0_7419_37422">
<rect width="40" height="40" fill="white"/>
</clipPath>
</defs>
</svg>
