<svg width="36" height="40" viewBox="0 0 36 40" fill="none" xmlns="http://www.w3.org/2000/svg">
<g clip-path="url(#clip0_7419_37423)">
<path d="M35.1528 11.7656L33.6418 11.7861L33.9036 31.4431C33.9036 31.4431 24.6583 31.5639 22.0238 31.5987C19.3894 31.6335 18.1319 32.9811 18.1319 32.9811C18.1319 32.9811 16.8394 31.6663 14.205 31.7011C11.5705 31.7359 2.32524 31.8568 2.32524 31.8568L2.06138 12.2019L0.550389 12.2223L0 13.0866L0.274164 33.6877L14.7059 33.7983C14.7059 33.7983 15.3697 35.0353 18.1567 34.9984C20.9437 34.9616 21.5744 33.7082 21.5744 33.7082L36 33.2187L35.7258 12.6176L35.1528 11.7656Z" fill="#6A572E"/>
<path d="M5.89519 11.9922C5.7447 11.9943 3.46481 11.8263 1.41992 11.5703L1.57865 32.3516L11.8423 31.7352C8.43893 31.4505 4.75524 31.303 4.75524 31.303L5.89519 11.9922Z" fill="#DCB862"/>
<path d="M12.8019 10.8165C8.12461 11.1831 3.11133 11.0869 3.11133 11.0869L3.29685 31.6245C3.29685 31.6245 7.4794 31.7638 11.4826 31.7392C12.6514 31.7228 13.6553 31.7105 14.2036 31.7044C16.8381 31.6695 18.1306 32.9844 18.1306 32.9844L17.8646 12.9834C17.8646 12.9834 17.6832 10.4336 12.8019 10.8165Z" fill="#FFE4A5"/>
<path d="M30.1579 11.4648C30.3084 11.4689 32.2193 11.7884 34.2683 11.557L34.1343 32.5411L23.8789 31.8038C27.2843 31.558 30.9721 31.4536 30.9721 31.4536L30.1579 11.4648Z" fill="#DCB862"/>
<path d="M23.1672 10.8793C27.8404 11.3012 32.8537 11.2623 32.8537 11.2623L32.4249 31.7958C32.4249 31.7958 28.2423 31.8859 24.2391 31.8142C23.0703 31.7856 22.0664 31.761 21.5181 31.7466C19.5993 31.6002 18.1313 32.9836 18.1313 32.9836L17.8633 12.9847C17.8633 12.9847 18.29 10.439 23.1672 10.8793Z" fill="#FFE4A5"/>
<path d="M9.16391 1.94922L8.79492 6.87882L9.85241 9.20333L12.0787 11.3538L13.2145 10.8438L14.3483 10.3338L14.1937 7.25361L13.1362 4.9291L9.16391 1.94922Z" fill="#DCB862"/>
<path d="M14.6988 11.6329L12.8209 12.4767C12.4849 12.6282 12.0891 12.4787 11.9366 12.1449C11.784 11.8111 11.9345 11.4179 12.2705 11.2663L14.1484 10.4225C14.4844 10.271 14.8802 10.4205 15.0328 10.7543C15.1853 11.0902 15.0348 11.4834 14.6988 11.6329Z" fill="#6A572E"/>
<path d="M26.8447 39.9446C26.317 40.1515 25.6409 39.746 25.3172 39.0292L13.2148 12.3004L14.5094 11.7188L27.2137 38.1342C27.5786 38.894 27.4095 39.7235 26.8447 39.9446Z" fill="#6A572E"/>
<path d="M10.3887 3.97266C10.3887 3.97266 12.3305 5.00486 12.5552 5.31821C12.7799 5.63361 12.2625 6.16814 12.2625 6.16814C12.2625 6.16814 11.0854 4.49695 10.3887 3.97266Z" fill="#FFE4A5"/>
<path d="M14.0508 5.0708L15.568 2.53125" stroke="#FFE4A5" stroke-width="2" stroke-miterlimit="10" stroke-linecap="round" stroke-linejoin="round"/>
<path d="M16.2793 8.52344L19.4827 8.83474" stroke="#FFE4A5" stroke-width="2" stroke-miterlimit="10" stroke-linecap="round" stroke-linejoin="round"/>
<path d="M8.79625 9.16797L6.31641 11.4495" stroke="#FFE4A5" stroke-width="2" stroke-miterlimit="10" stroke-linecap="round" stroke-linejoin="round"/>
<path d="M7.9275 5.58773L5.10547 4.45312" stroke="#FFE4A5" stroke-width="2" stroke-miterlimit="10" stroke-linecap="round" stroke-linejoin="round"/>
<path d="M10.2734 2.1508V0.203125" stroke="#FFE4A5" stroke-width="2" stroke-miterlimit="10" stroke-linecap="round" stroke-linejoin="round"/>
</g>
<defs>
<clipPath id="clip0_7419_37423">
<rect width="36" height="40" fill="white"/>
</clipPath>
</defs>
</svg>
