<svg width="16" height="18" viewBox="0 0 16 18" fill="none" xmlns="http://www.w3.org/2000/svg">
<path d="M15.7074 9.58184C16.0977 9.19118 16.0975 8.55801 15.7068 8.16763C15.3162 7.77725 14.683 7.77749 14.2926 8.16816L15.7074 9.58184ZM8.255 15.625L7.54763 16.3318L8.255 17.0397L8.96237 16.3318L8.255 15.625ZM2.21737 8.16815C1.82699 7.77749 1.19383 7.77725 0.803158 8.16763C0.412489 8.55801 0.412254 9.19118 0.802633 9.58184L2.21737 8.16815ZM14.2926 8.16816L7.54763 14.9182L8.96237 16.3318L15.7074 9.58184L14.2926 8.16816ZM8.96237 14.9182L2.21737 8.16815L0.802633 9.58184L7.54763 16.3318L8.96237 14.9182Z" fill="#F2F3F4"/>
<path d="M7.25781 14.6857C7.25781 15.238 7.70553 15.6857 8.25781 15.6857C8.8101 15.6857 9.25781 15.238 9.25781 14.6857L7.25781 14.6857ZM9.25781 1C9.25781 0.447715 8.8101 1.59082e-08 8.25781 0C7.70553 -1.59082e-08 7.25781 0.447715 7.25781 1L9.25781 1ZM9.25781 14.6857L9.25781 1L7.25781 1L7.25781 14.6857L9.25781 14.6857Z" fill="#F2F3F4"/>
</svg>
