<svg width="13" height="22" viewBox="0 0 13 22" fill="none" xmlns="http://www.w3.org/2000/svg">
<path d="M2.32234 0.917893C1.93182 0.527369 1.29865 0.527369 0.908128 0.917893C0.517603 1.30842 0.517603 1.94158 0.908128 2.33211L2.32234 0.917893ZM10.9902 11L11.6973 11.7071L12.4044 11L11.6973 10.2929L10.9902 11ZM0.908128 19.6679C0.517603 20.0584 0.517603 20.6916 0.908128 21.0821C1.29865 21.4726 1.93182 21.4726 2.32234 21.0821L0.908128 19.6679ZM10.2831 10.2929L0.908128 19.6679L2.32234 21.0821L11.6973 11.7071L10.2831 10.2929ZM0.908128 2.33211L5.59563 7.01961L7.00984 5.60539L2.32234 0.917893L0.908128 2.33211ZM5.59563 7.01961L10.2831 11.7071L11.6973 10.2929L7.00984 5.60539L5.59563 7.01961Z" fill="#171B21"/>
</svg>
