<svg width="169" height="168" viewBox="0 0 169 168" fill="none" xmlns="http://www.w3.org/2000/svg">
<path d="M74.0981 161.695L75.4581 161.904L75.6481 160.671C75.7528 159.991 76.1762 159.554 76.9985 159.681L77.4097 159.744L77.6167 158.4L76.1619 158.176L76.8049 154.001C77.0193 152.609 76.3321 151.71 75.0196 151.508C74.5136 151.43 74.1194 151.467 73.9856 151.495L73.7908 152.76C73.9246 152.732 74.1958 152.757 74.3856 152.787C75.1605 152.906 75.3915 153.298 75.2843 153.993L74.6754 157.947L73.0308 157.694L72.8238 159.038L74.4684 159.291L74.0981 161.695Z" fill="#F2F3F4"/>
<path d="M56.1457 150.968C55.6205 151.976 54.7044 152.536 53.6611 152.048C52.444 151.478 52.4046 150.506 52.8593 149.535L54.8202 145.347L53.4581 144.709L51.3886 149.129C50.6558 150.694 50.9109 152.262 52.5917 153.049C53.4032 153.429 54.329 153.527 55.1822 153.025L53.1535 157.358L54.5155 157.996L59.428 147.505L58.0659 146.867L56.1457 150.968Z" fill="#F2F3F4"/>
<path d="M39.3229 141.266C38.648 141.973 37.394 142.2 36.4501 141.383C35.4216 140.494 35.4545 139.379 36.1405 138.513L39.3229 141.266ZM37.2797 136.854C38.0853 136.388 38.9727 136.267 39.9286 137.094C40.9208 137.952 41.0187 139.306 40.1548 140.378L35.7745 136.589C35.6891 136.663 35.5619 136.785 35.4363 136.931C33.8765 138.734 33.8025 140.849 35.5934 142.398C37.0575 143.665 39.4546 143.56 41.0354 141.732C42.7522 139.748 42.3584 137.44 40.7975 136.089C39.4544 134.927 37.7866 134.923 36.5927 135.667L37.2797 136.854Z" fill="#F2F3F4"/>
<path d="M21.1599 126.153C21.1927 126.227 21.286 126.416 21.4054 126.586C21.8465 127.215 22.652 127.862 23.9337 127.627L22.8335 128.399L23.6789 129.604L29.979 125.184L29.1152 123.953L25.9586 126.167C24.5833 127.132 23.5331 126.833 22.8071 125.798C22.6877 125.628 22.5721 125.435 22.4697 125.234L21.1599 126.153Z" fill="#F2F3F4"/>
<path d="M17.5994 113.329C16.6709 113.634 15.4582 113.242 15.0116 112.076C14.5249 110.807 15.0797 109.84 16.0934 109.4L17.5994 113.329ZM17.8808 108.475C18.8113 108.444 19.6506 108.756 20.103 109.937C20.5726 111.162 20.0197 112.402 18.752 112.939L16.6792 107.531C16.5688 107.556 16.3988 107.604 16.2195 107.672C13.9934 108.526 12.9298 110.356 13.7773 112.567C14.4702 114.374 16.6332 115.413 18.8891 114.548C21.3393 113.609 22.0817 111.389 21.343 109.461C20.7074 107.803 19.2391 107.012 17.8353 107.105L17.8808 108.475Z" fill="#F2F3F4"/>
<path d="M6.62955 96.8832C6.72461 96.8698 6.81744 96.8406 6.92612 96.8091L9.79743 95.7424L9.72159 95.2037L6.64927 94.9576C6.53614 94.9574 6.43884 94.9549 6.35963 94.9661C5.78925 95.0464 5.44893 95.4983 5.527 96.0528C5.60731 96.6232 6.05917 96.9635 6.62955 96.8832Z" fill="#F2F3F4"/>
<path d="M14.0019 83.2633C14.9051 83.2041 16.3135 82.4133 16.4748 80.3075C16.6201 78.409 15.3975 77.4008 14.3127 77.3177C13.1641 77.2298 12.2795 77.8841 11.8689 79.2648L11.5024 80.4884C11.3296 81.0689 11.0045 81.3329 10.51 81.295C9.98351 81.2547 9.52804 80.7063 9.58667 79.9406C9.68072 78.7122 10.5789 78.5081 10.9851 78.443L10.5919 77.081C9.90843 77.2051 8.47164 77.737 8.31041 79.8429C8.19559 81.3425 9.20232 82.6551 10.5264 82.7565C11.6113 82.8396 12.4786 82.1999 12.8267 81.007L13.214 79.7208C13.4065 79.0937 13.7843 78.7696 14.2789 78.8075C14.8372 78.8502 15.2645 79.3483 15.1997 80.1938C15.1167 81.2786 14.4493 81.8213 13.6271 81.8706L14.0019 83.2633Z" fill="#F2F3F4"/>
<path d="M23.4387 52.7326L19.5272 50.2366C18.5561 49.6169 18.2604 48.593 18.8457 47.6759C19.4654 46.7048 20.3575 46.7047 21.2073 47.2469L25.2806 49.8462L26.0896 48.5784L22.1647 46.0737C21.234 45.4798 20.9114 44.4388 21.4881 43.5351C22.0992 42.5775 22.9999 42.5639 23.8496 43.1061L27.9229 45.7055L28.7234 44.4511L24.5152 41.7657C22.8292 40.6898 21.3412 41.2966 20.6182 42.4296C20.0931 43.2524 19.8649 44.2645 20.4598 45.3844C19.3777 45.2063 18.5095 45.7341 17.993 46.5434C17.5111 47.2987 17.3404 48.3096 17.7885 49.1839L16.9253 48.6331L16.1506 49.847L22.6382 53.9869L23.4387 52.7326Z" fill="#F2F3F4"/>
<path d="M39.8239 30.955C38.8195 31.7484 37.3455 31.6892 36.2348 30.283C35.134 28.8893 35.4178 27.4418 36.4223 26.6484C37.4267 25.855 38.9006 25.9141 40.0015 27.3078C41.1122 28.714 40.8284 30.1616 39.8239 30.955ZM35.5892 25.5937C33.7812 27.0218 33.5815 29.402 35.0294 31.2351C36.4873 33.0808 38.849 33.4378 40.657 32.0096C42.465 30.5815 42.6647 28.2014 41.2068 26.3557C39.7589 24.5226 37.3972 24.1656 35.5892 25.5937Z" fill="#F2F3F4"/>
<path d="M55.2653 13.9298C55.1856 13.9473 54.9823 14.0015 54.7917 14.0849C54.0883 14.3931 53.2952 15.055 53.2721 16.3578L52.7327 15.1267L51.3845 15.7174L54.4728 22.7666L55.8504 22.1631L54.303 18.6311C53.6288 17.0923 54.1295 16.1219 55.2872 15.6147C55.4778 15.5312 55.6894 15.4559 55.9074 15.3954L55.2653 13.9298Z" fill="#F2F3F4"/>
<path d="M68.5386 12.9734C68.4235 12.003 69.0474 10.8917 70.278 10.6841C71.619 10.4579 72.457 11.1927 72.6879 12.2733L68.5386 12.9734ZM73.2415 14.2082C73.0882 15.1265 72.6162 15.8876 71.3698 16.0979C70.0761 16.3162 68.9698 15.5293 68.6935 14.1804L74.4048 13.2169C74.402 13.1038 74.3885 12.9276 74.3565 12.7382C73.9599 10.3875 72.3763 8.98334 70.0413 9.37728C68.1323 9.69935 66.6867 11.6145 67.0886 13.9968C67.5252 16.5843 69.5555 17.7508 71.5907 17.4074C73.342 17.112 74.4074 15.8288 74.594 14.4344L73.2415 14.2082Z" fill="#F2F3F4"/>
<path d="M100.92 13.9883C101.381 12.4727 102.564 11.6615 103.88 12.0615C105.212 12.4661 105.681 13.729 105.216 15.2599C104.756 16.7755 103.596 17.6772 102.279 17.2772C100.901 16.8587 100.46 15.5039 100.92 13.9883ZM104.399 18.0049C104.264 18.4489 104.178 18.8409 104.173 19.0233L105.566 19.4465C105.588 19.3194 105.685 18.7803 105.904 18.0607L108.857 8.33947L107.433 7.90693L105.987 12.6681C105.928 11.9813 105.399 11.135 104.113 10.7443C102.031 10.1118 100.079 11.4751 99.4507 13.5418C98.781 15.7463 99.6119 17.8549 101.755 18.506C102.919 18.8595 103.866 18.495 104.436 17.8825L104.399 18.0049Z" fill="#F2F3F4"/>
<path d="M121.002 25.5237C119.938 24.8117 119.542 23.3909 120.539 21.9018C121.526 20.4259 122.991 20.2511 124.055 20.9632C125.119 21.6752 125.515 23.096 124.527 24.5718C123.531 26.061 122.066 26.2357 121.002 25.5237ZM124.803 19.8463C122.888 18.5647 120.562 19.1061 119.262 21.0473C117.954 23.0018 118.34 25.3589 120.254 26.6406C122.169 27.9222 124.495 27.3808 125.804 25.4263C127.103 23.485 126.717 21.1279 124.803 19.8463Z" fill="#F2F3F4"/>
<path d="M142.391 35.5852L136.582 37.5359L140.116 32.6321L139.11 31.3266L134.556 38.0262L135.523 39.281L141.383 37.2912L137.994 42.4876L138.941 43.717L146.561 40.9972L145.594 39.7424L139.971 41.9339L143.338 36.8146L142.391 35.5852Z" fill="#F2F3F4"/>
<path d="M151.373 56.8467C152.458 56.4605 153.561 56.6964 153.963 57.827C154.414 59.0932 153.75 59.8049 152.74 60.1643L148.383 61.7145L148.888 63.1314L153.485 61.4954C155.113 60.9161 156.049 59.6322 155.427 57.8836C155.126 57.0394 154.474 56.3036 153.382 56.0978L154.422 55.7277L153.928 54.3409L146.678 56.9209L147.182 58.3379L151.373 56.8467Z" fill="#F2F3F4"/>
<path d="M156.559 88.9633C157.683 89.1361 158.508 89.8232 158.381 90.9682C158.233 92.304 157.325 92.6541 156.26 92.536L151.664 92.0267L151.498 93.5215L156.348 94.0591C158.066 94.2494 159.469 93.5034 159.673 91.6587C159.772 90.7682 159.566 89.86 158.817 89.2136L163.572 89.7406L163.738 88.2457L152.224 86.9696L152.059 88.4645L156.559 88.9633Z" fill="#F2F3F4"/>
<path d="M152.786 108.013C153.672 108.425 154.29 109.539 153.821 110.696C153.309 111.956 152.244 112.283 151.203 111.912L152.786 108.013ZM149.265 111.367C148.564 110.755 148.164 109.953 148.64 108.782C149.133 107.567 150.384 107.038 151.677 107.511L149.498 112.878C149.596 112.935 149.753 113.016 149.931 113.088C152.14 113.985 154.166 113.374 155.057 111.18C155.785 109.387 154.915 107.151 152.676 106.242C150.245 105.255 148.186 106.37 147.409 108.283C146.741 109.928 147.274 111.509 148.363 112.4L149.265 111.367Z" fill="#F2F3F4"/>
<path d="M144.319 130.073C144.379 130.018 144.527 129.869 144.65 129.701C145.104 129.082 145.457 128.111 144.822 126.973L145.907 127.766L146.776 126.578L140.564 122.035L139.676 123.249L142.789 125.525C144.145 126.517 144.199 127.607 143.453 128.628C143.33 128.796 143.185 128.967 143.027 129.129L144.319 130.073Z" fill="#F2F3F4"/>
<path d="M133.323 137.569C133.91 138.351 133.929 139.625 132.97 140.423C131.924 141.292 130.83 141.078 130.087 140.26L133.323 137.569ZM128.637 138.865C128.308 137.994 128.333 137.099 129.305 136.29C130.314 135.452 131.666 135.576 132.583 136.604L128.129 140.306C128.188 140.403 128.288 140.548 128.411 140.696C129.935 142.529 132.01 142.947 133.831 141.434C135.32 140.196 135.607 137.814 134.063 135.956C132.385 133.938 130.044 133.95 128.456 135.269C127.091 136.405 126.814 138.049 127.354 139.349L128.637 138.865Z" fill="#F2F3F4"/>
<path d="M105.294 149.731C105.121 149.131 104.527 148.803 103.928 148.976C103.328 149.148 102.984 149.747 103.157 150.347C103.33 150.946 103.944 151.285 104.544 151.113C105.143 150.94 105.467 150.33 105.294 149.731Z" fill="#F2F3F4"/>
</svg>
