<svg width="170" height="170" viewBox="0 0 170 170" fill="none" xmlns="http://www.w3.org/2000/svg">
<path d="M78.8923 163.892L80.2642 163.998L80.3602 162.753C80.4132 162.067 80.8023 161.6 81.6318 161.664L82.0466 161.696L82.1513 160.34L80.6836 160.227L81.0087 156.015C81.1171 154.611 80.3639 153.767 79.0398 153.665C78.5293 153.625 78.1391 153.692 78.0077 153.73L77.9092 155.006C78.0406 154.968 78.313 154.973 78.5044 154.987C79.2861 155.048 79.5461 155.421 79.492 156.123L79.1841 160.111L77.525 159.983L77.4204 161.339L79.0794 161.467L78.8923 163.892Z" fill="#171B21"/>
<path d="M67.1166 156.512C66.7985 157.436 65.7537 158.166 64.5551 157.818C63.249 157.439 62.8137 156.413 63.0753 155.339L67.1166 156.512ZM63.4176 153.356C63.9548 152.596 64.7106 152.115 65.9245 152.468C67.1845 152.833 67.839 154.023 67.5016 155.358L61.9391 153.743C61.8925 153.847 61.8281 154.011 61.7745 154.196C61.1101 156.485 61.9262 158.438 64.2004 159.098C66.0597 159.637 68.1939 158.541 68.8672 156.22C69.5985 153.7 68.2769 151.768 66.2946 151.192C64.589 150.697 63.0719 151.39 62.2978 152.565L63.4176 153.356Z" fill="#171B21"/>
<path d="M53.0648 146.426L50.6254 150.374C50.0198 151.353 49.0003 151.664 48.0748 151.092C47.0949 150.486 47.0819 149.594 47.6118 148.737L50.1521 144.626L48.8727 143.836L46.425 147.796C45.8446 148.736 44.8083 149.073 43.8964 148.51C42.9301 147.912 42.9035 147.012 43.4334 146.154L45.9737 142.044L44.7079 141.262L42.0835 145.508C41.0321 147.21 41.6603 148.689 42.8035 149.395C43.6338 149.908 44.6491 150.122 45.7603 149.511C45.5978 150.596 46.1381 151.456 46.9547 151.961C47.7169 152.432 48.7302 152.588 49.598 152.127L49.0596 152.998L50.2846 153.755L54.3305 147.209L53.0648 146.426Z" fill="#171B21"/>
<path d="M29.1714 125.937L25.2331 128.39C24.2553 128.999 23.2041 128.825 22.6288 127.901C22.0197 126.923 22.4041 126.118 23.2597 125.585L27.361 123.03L26.5657 121.754L22.6138 124.216C21.6768 124.799 20.5984 124.642 20.0315 123.732C19.4309 122.768 19.8069 121.949 20.6624 121.416L24.7637 118.861L23.9769 117.598L19.7398 120.238C18.0423 121.295 17.9484 122.9 18.659 124.04C19.1751 124.869 19.9899 125.511 21.2569 125.457C20.6298 126.357 20.7317 127.368 21.2394 128.182C21.7131 128.943 22.5518 129.533 23.5338 129.505L22.6647 130.047L23.4261 131.269L29.9582 127.2L29.1714 125.937Z" fill="#171B21"/>
<path d="M18.0582 109.285C19.2248 108.942 19.9843 107.668 19.5419 106.164C19.1537 104.844 18.2309 104.315 17.6142 104.146C18.1515 103.988 18.4187 103.876 18.5894 103.775L18.1741 102.363C18.0034 102.463 17.6486 102.618 16.9885 102.812L13.2892 103.9C11.8616 104.32 10.8403 105.554 11.4904 107.764C11.9643 109.376 13.3124 110.331 14.7742 110.084L14.6903 108.608C13.7991 108.753 13.0118 108.401 12.7093 107.373C12.3798 106.252 12.8385 105.6 13.56 105.388C13.8209 105.311 14.0873 105.366 14.2796 105.793L15.1581 107.703C15.7368 108.934 16.7228 109.678 18.0582 109.285ZM18.2705 106.321C18.4872 107.058 18.1007 107.672 17.5481 107.834C16.8881 108.028 16.415 107.667 16.127 107.085L15.1257 104.927L15.4634 104.828C17.0751 104.354 17.923 105.139 18.2705 106.321Z" fill="#171B21"/>
<path d="M16.3086 91.3274L8.64289 92.0102L8.7749 93.4923L16.4406 92.8096L16.3086 91.3274ZM5.90418 94.0853C6.49385 94.0328 6.92938 93.5121 6.87686 92.9224C6.8215 92.3009 6.30223 91.8813 5.71257 91.9338C5.09103 91.9892 4.67002 92.4925 4.72538 93.114C4.77789 93.7037 5.28265 94.1407 5.90418 94.0853Z" fill="#171B21"/>
<path d="M13.9858 82.0299C14.8902 81.9921 16.317 81.235 16.5281 79.1336C16.7185 77.2391 15.5202 76.2021 14.4376 76.0933C13.2914 75.9782 12.3916 76.6114 11.9483 77.9819L11.5529 79.1965C11.3664 79.7727 11.0351 80.0289 10.5416 79.9793C10.0162 79.9265 9.57391 79.3675 9.65069 78.6034C9.77385 77.3775 10.6766 77.1949 11.0842 77.1393L10.7235 75.7684C10.0373 75.8763 8.58824 76.374 8.3771 78.4754C8.22674 79.9719 9.20205 81.308 10.5234 81.4408C11.6059 81.5496 12.4882 80.9307 12.8645 79.7464L13.2822 78.4697C13.4895 77.8473 13.8749 77.5323 14.3684 77.5819C14.9256 77.6379 15.3409 78.1459 15.2561 78.9897C15.1474 80.0722 14.4673 80.5989 13.6442 80.6287L13.9858 82.0299Z" fill="#171B21"/>
<path d="M17.3882 51.5512C17.9822 50.3814 19.0132 50.2948 19.7778 50.4498L19.88 48.9764C18.6792 48.7614 17.0815 49.0806 16.147 50.921C15.1546 52.8754 15.9062 55.1413 18.0318 56.2206C20.1147 57.2783 22.4301 56.6057 23.4443 54.6085C24.357 52.8109 23.6868 51.2683 22.8763 50.4261L21.7615 51.3494C22.2239 51.7816 22.8551 52.6943 22.2031 53.9782C21.6381 55.091 20.2823 55.6407 18.7273 54.8511C17.1295 54.0397 16.8376 52.6354 17.3882 51.5512Z" fill="#171B21"/>
<path d="M31.0254 40.4978C30.1929 41.47 28.7352 41.6964 27.3741 40.5308C26.025 39.3757 26.0243 37.9006 26.8568 36.9283C27.6893 35.9561 29.147 35.7297 30.496 36.8848C31.8572 38.0504 31.858 39.5255 31.0254 40.4978ZM25.8359 36.0542C24.3374 37.8043 24.6007 40.1782 26.375 41.6976C28.1616 43.2273 30.5478 43.122 32.0463 41.3719C33.5449 39.6218 33.2816 37.2479 31.4951 35.7181C29.7207 34.1988 27.3345 34.3041 25.8359 36.0542Z" fill="#171B21"/>
<path d="M42.7558 30.702L38.0538 24.6094L36.8758 25.5185L41.5778 31.6111L42.7558 30.702ZM34.8307 23.4184C35.1924 23.8871 35.8657 23.9738 36.3343 23.6121C36.8283 23.2309 36.9024 22.5674 36.5407 22.0988C36.1594 21.6048 35.5086 21.5209 35.0146 21.9022C34.546 22.2639 34.4495 22.9244 34.8307 23.4184Z" fill="#171B21"/>
<path d="M49.3424 23.7438C49.8611 24.4855 51.2673 25.2804 53.1519 24.3271C54.8509 23.4677 55.0797 21.8995 54.5886 20.9287C54.0686 19.9007 53.0506 19.4833 51.657 19.8476L50.4206 20.1682C49.8345 20.3212 49.4403 20.1799 49.2164 19.7373C48.9781 19.2661 49.2111 18.5924 49.8964 18.2458C50.9958 17.6897 51.6357 18.3522 51.9019 18.6658L52.863 17.6237C52.4027 17.1035 51.2032 16.1503 49.3186 17.1036C47.9766 17.7825 47.3755 19.3237 47.975 20.5087C48.4661 21.4796 49.4626 21.89 50.6632 21.5695L51.964 21.2343C52.6001 21.0739 53.073 21.2291 53.2969 21.6717C53.5497 22.1714 53.3451 22.7949 52.5884 23.1777C51.6175 23.6688 50.8076 23.3792 50.3394 22.7016L49.3424 23.7438Z" fill="#171B21"/>
<path d="M63.3948 17.4485C63.6915 18.6278 64.9345 19.437 66.4551 19.0544C67.7895 18.7186 68.3548 17.8175 68.5479 17.208C68.6845 17.751 68.7858 18.0225 68.8792 18.197L70.3067 17.8379C70.2133 17.6634 70.0731 17.3027 69.9052 16.6355L68.9644 12.896C68.6013 11.453 67.4084 10.3837 65.174 10.9459C63.5448 11.3558 62.5378 12.6651 62.7263 14.1355L64.2047 14.11C64.0947 13.2138 64.4778 12.441 65.5174 12.1794C66.6501 11.8944 67.2833 12.3786 67.4668 13.1078C67.5332 13.3716 67.4676 13.6356 67.0332 13.8109L65.0903 14.6132C63.8376 15.1428 63.0552 16.0986 63.3948 17.4485ZM66.3484 17.7778C65.6036 17.9652 65.0054 17.5548 64.8649 16.9962C64.697 16.329 65.0766 15.8705 65.67 15.6057L67.865 14.6905L67.9509 15.0319C68.3608 16.6611 67.5432 17.4772 66.3484 17.7778Z" fill="#171B21"/>
<path d="M89.8961 14.3073C89.7367 15.5129 90.5934 16.7236 92.1479 16.9291C93.512 17.1095 94.3698 16.4805 94.7742 15.9852C94.7008 16.5404 94.6948 16.8301 94.7172 17.0267L96.1765 17.2197C96.1541 17.0231 96.1569 16.6361 96.247 15.954L96.7525 12.1313C96.9475 10.6561 96.2333 9.22213 93.9492 8.92013C92.2837 8.69992 90.8647 9.54521 90.4972 10.9814L91.8808 11.5033C92.1092 10.6297 92.7504 10.0528 93.8131 10.1933C94.9711 10.3464 95.381 11.03 95.2824 11.7755C95.2468 12.0452 95.0884 12.2663 94.62 12.269L92.5181 12.2977C91.1585 12.3277 90.0786 12.9274 89.8961 14.3073ZM92.5198 15.7033C91.7584 15.6026 91.3538 15.0004 91.4293 14.4294C91.5195 13.7473 92.0415 13.4613 92.6907 13.4341L95.0685 13.3934L95.0224 13.7424C94.8022 15.4079 93.7411 15.8648 92.5198 15.7033Z" fill="#171B21"/>
<path d="M110.978 24.7157L114.857 14.7051L113.5 14.179L113.072 15.283C113.001 14.535 112.51 13.5895 111.271 13.1096C109.168 12.2944 107.235 13.5186 106.449 15.5476C105.639 17.6362 106.302 19.8665 108.376 20.6701C109.45 21.0864 110.426 20.9154 111.082 20.3289L109.59 24.178L110.978 24.7157ZM107.881 16.1026C108.459 14.6107 109.643 13.9027 110.956 14.4115C112.224 14.9029 112.675 16.2619 112.103 17.7388C111.531 19.2158 110.258 19.9753 108.99 19.4839C107.722 18.9924 107.308 17.5796 107.881 16.1026Z" fill="#171B21"/>
<path d="M125.739 28.6195C125.554 28.8806 125.317 29.2424 125.255 29.4138L126.43 30.246C126.548 29.9963 126.827 29.5469 127.187 29.0377L130.812 23.9192L129.585 23.05L126.903 26.8366C126.228 27.7898 125.27 28.0913 124.277 27.3885C123.246 26.658 123.381 25.6363 124.001 24.7615L126.673 20.9879L125.446 20.1187L122.644 24.0751C121.645 25.4853 121.747 27.2239 123.21 28.2596C123.941 28.7774 124.915 29.0357 125.739 28.6195Z" fill="#171B21"/>
<path d="M135.224 38.2284L140.859 32.987L139.846 31.8974L134.211 37.1388L135.224 38.2284ZM141.749 29.6682C141.316 30.0713 141.291 30.7497 141.695 31.1832C142.12 31.6401 142.787 31.653 143.22 31.2498C143.677 30.8248 143.701 30.169 143.276 29.7121C142.873 29.2786 142.206 29.2432 141.749 29.6682Z" fill="#171B21"/>
<path d="M151.302 53.6506C152.218 53.311 153.444 53.6564 153.935 54.8039C154.47 56.0544 153.952 57.0414 152.956 57.5196L151.302 53.6506ZM151.205 58.512C150.277 58.5785 149.426 58.2985 148.929 57.1363C148.413 55.93 148.918 54.6698 150.165 54.0846L152.442 59.4101C152.551 59.3807 152.72 59.3262 152.896 59.2507C155.088 58.3133 156.081 56.4442 155.15 54.267C154.389 52.487 152.188 51.5315 149.966 52.4815C147.554 53.5133 146.896 55.7608 147.708 57.6585C148.406 59.2914 149.904 60.0258 151.303 59.8798L151.205 58.512Z" fill="#171B21"/>
<path d="M152.407 70.9083L157.006 70.293C158.148 70.1402 159.034 70.7319 159.178 71.8103C159.331 72.9521 158.649 73.5276 157.65 73.6613L152.861 74.3021L153.06 75.7928L157.675 75.1753C158.769 75.0289 159.687 75.6164 159.83 76.6789C159.98 77.8049 159.301 78.3962 158.302 78.5299L153.512 79.1707L153.71 80.6455L158.657 79.9835C160.64 79.7183 161.386 78.2948 161.207 76.9627C161.078 75.9953 160.6 75.0746 159.423 74.6025C160.364 74.0407 160.688 73.0773 160.56 72.1258C160.441 71.2377 159.92 70.3551 159.014 69.9759L160.028 69.8401L159.838 68.4129L152.209 69.4334L152.407 70.9083Z" fill="#171B21"/>
<path d="M153.385 92.3272L154.493 92.4905C153.597 92.8599 152.983 93.6265 152.815 94.7662C152.481 97.0297 154.081 98.5755 156.344 98.9092C158.561 99.2358 160.508 98.3099 160.849 95.9989C161.036 94.7326 160.549 93.7552 159.922 93.2908L164.845 94.0164L165.062 92.5443L153.602 90.8551L153.385 92.3272ZM156.568 97.3896C154.922 97.1469 153.974 96.1177 154.177 94.7406C154.373 93.4109 155.571 92.6333 157.233 92.8783C158.88 93.121 159.771 94.2065 159.575 95.5361C159.37 96.9291 158.215 97.6322 156.568 97.3896Z" fill="#171B21"/>
<path d="M152.196 107.771C151.069 107.314 149.682 107.841 149.094 109.294C148.578 110.57 148.972 111.558 149.35 112.073C148.831 111.863 148.552 111.785 148.356 111.757L147.803 113.122C147.999 113.149 148.373 113.249 149.011 113.507L152.585 114.954C153.965 115.512 155.532 115.18 156.396 113.044C157.027 111.487 156.564 109.901 155.265 109.186L154.414 110.394C155.202 110.834 155.6 111.6 155.198 112.593C154.76 113.676 153.995 113.902 153.298 113.619C153.046 113.517 152.872 113.309 152.986 112.855L153.485 110.813C153.796 109.489 153.486 108.293 152.196 107.771ZM150.187 109.961C150.476 109.249 151.16 109.008 151.694 109.225C152.332 109.483 152.478 110.06 152.341 110.695L151.785 113.007L151.459 112.875C149.902 112.245 149.725 111.103 150.187 109.961Z" fill="#171B21"/>
<path d="M142.408 122.927L148.838 127.156L149.656 125.912L143.226 121.683L142.408 122.927ZM152.273 127.232C151.779 126.907 151.114 127.044 150.788 127.539C150.446 128.06 150.592 128.711 151.086 129.037C151.608 129.379 152.25 129.247 152.593 128.725C152.918 128.231 152.795 127.575 152.273 127.232Z" fill="#171B21"/>
<path d="M137.293 129.976L136.045 131.261L136.716 134.635L133.303 134.085L132.043 135.382C132.814 135.506 136.057 135.957 136.828 136.081L137.631 140.675L138.868 139.401L138.221 136.185L141.477 136.715L142.747 135.406L138.11 134.761L137.293 129.976Z" fill="#171B21"/>
<path d="M123.523 143.452C124.601 142.761 126.062 142.965 127.029 144.474C127.987 145.969 127.562 147.381 126.485 148.072C125.407 148.763 123.946 148.559 122.988 147.064C122.021 145.555 122.446 144.143 123.523 143.452ZM127.21 149.204C129.15 147.96 129.583 145.611 128.322 143.645C127.053 141.665 124.738 141.077 122.798 142.32C120.858 143.564 120.425 145.913 121.695 147.893C122.955 149.859 125.27 150.447 127.21 149.204Z" fill="#171B21"/>
<path d="M101.553 153.014C101.419 152.404 100.847 152.039 100.238 152.173C99.6283 152.307 99.2471 152.882 99.3813 153.492C99.5155 154.101 100.107 154.479 100.716 154.345C101.325 154.211 101.687 153.623 101.553 153.014Z" fill="#171B21"/>
</svg>
