<svg width="153" height="40" viewBox="0 0 153 40" fill="none" xmlns="http://www.w3.org/2000/svg">
<g clip-path="url(#clip0_1820_24237)">
<path d="M46.4118 9.22266C49.4097 9.22266 51.6303 11.0004 51.6303 13.4449C51.6303 14.8893 50.8531 16.1115 49.5207 16.6671C51.1861 17.0004 52.2964 18.556 52.2964 20.2227C52.2964 22.7782 49.8538 24.6671 46.4118 24.6671H39.75V9.22266H46.4118ZM43.525 12.3338V15.2227H46.0787C47.078 15.2227 47.7442 14.6671 47.7442 13.7782C47.7442 12.8893 47.189 12.3338 46.0787 12.3338H43.525ZM46.4118 21.4449C47.6332 21.4449 48.2994 20.8893 48.2994 19.8893C48.2994 18.8893 47.6332 18.3338 46.4118 18.3338H43.525V21.556L46.4118 21.4449Z" fill="#F2F3F4"/>
<path d="M63.6209 21.778H57.5142L56.515 24.5558H52.6289L58.4025 9.11133H62.9547L68.7283 24.5558H64.6202L63.6209 21.778ZM58.5135 18.6669H62.5106L60.5121 13.0002L58.5135 18.6669Z" fill="#F2F3F4"/>
<path d="M73.5016 15.556V24.6671H69.7266V9.22266H73.2795L79.6083 18.556V9.22266H83.3833V24.6671H79.8303L73.5016 15.556Z" fill="#F2F3F4"/>
<path d="M97.9303 23.8882C96.598 24.666 95.2656 24.8882 93.3781 24.8882C88.6038 24.8882 85.0508 21.5549 85.0508 16.9993C85.0508 12.4438 88.6038 8.99935 93.4891 8.99935C94.9325 8.88824 96.3759 9.22157 97.7083 9.99935V13.5549C96.4869 12.7771 95.0435 12.3327 93.4891 12.4438C90.6023 12.4438 88.9368 14.1105 88.9368 16.8882C88.9368 19.666 90.6023 21.3327 93.4891 21.3327C95.0435 21.3327 96.4869 20.9994 97.8193 20.2216L97.9303 23.8882Z" fill="#F2F3F4"/>
<path d="M107.033 9C111.696 9 115.138 12.3333 115.138 16.8889C115.138 21.4444 111.696 24.7778 107.033 24.7778C102.37 24.7778 98.9277 21.4444 98.9277 16.8889C98.9277 12.3333 102.37 9 107.033 9ZM107.033 12.4444C104.368 12.4444 102.814 14.1111 102.814 16.8889C102.814 19.6667 104.368 21.3333 107.033 21.3333C109.698 21.3333 111.141 19.6667 111.141 16.8889C111.141 14.1111 109.698 12.4444 107.033 12.4444Z" fill="#F2F3F4"/>
<path d="M126.907 19.1115H125.131V24.556H121.355V9.22266H127.684C131.126 9.22266 133.68 11.2227 133.68 14.1115C133.68 16.0004 132.459 17.7782 130.682 18.4449L134.346 24.556H129.905L126.907 19.1115ZM125.019 12.556V15.8893H127.462C128.795 15.8893 129.461 15.3338 129.461 14.2227C129.461 13.2227 128.683 12.556 127.462 12.556H125.019Z" fill="#F2F3F4"/>
<path d="M147.559 23.8882C146.227 24.666 144.894 24.8882 143.007 24.8882C138.233 24.8882 134.68 21.5549 134.68 16.9993C134.68 12.4438 138.233 8.99935 143.118 8.99935C144.561 8.88824 146.116 9.22157 147.337 9.99935V13.5549C146.116 12.7771 144.672 12.3327 143.118 12.4438C140.231 12.4438 138.566 14.1105 138.566 16.8882C138.566 19.666 140.231 21.3327 143.118 21.3327C144.672 21.3327 146.116 20.9994 147.448 20.2216L147.559 23.8882Z" fill="#F2F3F4"/>
<path d="M153 24.6671H149.225V9.22266H153V24.6671Z" fill="#F2F3F4"/>
<path d="M33.7533 16.8889C33.7533 26.2222 26.2032 33.7778 16.8766 33.7778C7.55007 33.7778 0 26.2222 0 16.8889C0 7.55556 7.55007 0 16.8766 0C26.2032 0 33.7533 7.55556 33.7533 16.8889Z" fill="#8E9195"/>
<path d="M43.303 30.666C45.0795 30.666 46.3008 31.666 46.3008 32.9993C46.3008 33.8882 45.7456 34.666 44.8574 34.9993C45.9677 35.2216 46.6339 36.1105 46.6339 37.2216C46.6339 38.7771 45.3015 39.7771 43.414 39.7771H39.75V30.666H43.303ZM41.0824 31.8882V34.5549H43.414C44.1912 34.666 44.8574 34.1105 44.9684 33.3327V33.2216C44.9684 32.3327 44.3023 31.8882 43.303 31.8882H41.0824ZM43.414 38.666C44.6353 38.666 45.3015 38.1105 45.3015 37.1105C45.3015 36.1105 44.6353 35.5549 43.6361 35.5549H41.1934V38.5549L43.414 38.666Z" fill="#F2F3F4"/>
<path d="M51.6278 36.1107H49.6292V39.8885H48.2969V30.7773H51.8499C53.6263 30.7773 55.0697 31.8885 55.0697 33.444C55.0697 34.6662 54.1815 35.6662 53.0712 35.9996L55.5139 39.8885H53.9594L51.6278 36.1107ZM49.6292 31.8885V34.8885H51.8499C52.9602 34.8885 53.6263 34.3329 53.6263 33.3329C53.6263 32.444 52.9602 31.8885 51.8499 31.8885H49.6292Z" fill="#F2F3F4"/>
<path d="M62.3979 37.7771H57.8456L57.0684 39.7771H55.625L59.4 30.666H60.9545L64.7295 39.7771H63.2861L62.3979 37.7771ZM58.2897 36.666H61.9537L60.1773 32.1105L58.2897 36.666Z" fill="#F2F3F4"/>
<path d="M65.1758 37.8882C66.1751 38.4438 67.2854 38.7771 68.3957 38.7771C69.728 38.7771 70.5052 38.3327 70.5052 37.4438C70.5052 36.5549 69.8391 36.2216 68.2846 35.7771C66.2861 35.1105 65.2868 34.3327 65.2868 33.1105C65.2868 31.666 66.6192 30.666 68.7288 30.666C69.617 30.666 70.5053 30.8882 71.3935 31.2216V32.4438C70.5053 31.9993 69.617 31.8882 68.7288 31.8882C67.6185 31.8882 66.8412 32.3327 66.8412 33.1105C66.8412 33.8882 67.5074 34.1105 69.1729 34.666C71.2825 35.3327 72.0597 36.1105 72.0597 37.4438C72.0597 39.1105 70.5052 40.1105 68.5067 40.1105C67.3964 40.1105 66.3971 39.8882 65.3978 39.3327V37.8882H65.1758Z" fill="#F2F3F4"/>
<path d="M74.6146 39.7771H73.2812V30.666H74.6146V39.7771Z" fill="#F2F3F4"/>
<path d="M77.8324 38.6662H82.6067V39.8885H76.5V30.7773H77.8324V38.6662Z" fill="#F2F3F4"/>
</g>
<defs>
<clipPath id="clip0_1820_24237">
<rect width="153" height="40" rx="8" fill="white"/>
</clipPath>
</defs>
</svg>
