<svg width="112" height="87" viewBox="0 0 112 87" fill="none" xmlns="http://www.w3.org/2000/svg">
<g clip-path="url(#clip0_6286_35330)">
<path fill-rule="evenodd" clip-rule="evenodd" d="M49.45 70.8306C46.3588 68.6676 44.2002 66.4721 43.1866 65.239C42.6429 64.5775 42.0719 63.9619 41.4827 63.3267C39.7773 61.4882 37.9201 59.486 36.1347 55.7343C34.1607 51.0749 32.0911 46.0287 33.8795 38.5777C33.3045 38.4151 32.6857 38.2395 32.017 38.0469C27.9354 36.8711 23.8775 38.2719 22.0697 39.0655C21.596 39.2725 21.1658 39.5781 20.8717 39.9907C20.6532 40.2976 20.8717 40.776 21.0001 40.9996C21.3812 41.6636 21.7129 43.8365 20.3624 45.9439C19.2632 47.6579 17.8703 47.5805 17.1484 47.5404C16.8498 47.5238 16.666 47.5136 16.6652 47.6391C16.6648 47.6937 16.6761 47.7902 16.6909 47.9172C16.7924 48.7837 17.0598 51.0674 14.9032 51.1138C14.1273 51.1305 13.5113 51.1195 13.0337 51.111C11.9893 51.0924 11.6064 51.0856 11.6599 51.4056C11.7393 51.8716 11.8877 54.2859 10.1448 54.2955C9.40233 54.2995 8.82195 54.2674 8.40329 54.2443C7.8391 54.2131 7.56864 54.1981 7.59114 54.3098C7.63034 54.5043 7.25476 56.4921 5.0278 56.1938C5.0278 56.1938 4.44343 56.0874 3.87995 55.9721C1.87283 64.2026 5.41507 71.4954 7.5169 74.8383C10.4688 79.5332 14.1742 80.9652 17.624 82.253C20.4534 83.1738 22.42 83.2113 24.2258 83.2456C24.8496 83.2575 25.4543 83.269 26.0687 83.3165C28.4617 83.5013 36.7131 82.3738 42.8291 78.1876C47.0991 75.2649 48.2553 73.6259 49.45 70.8306Z" fill="#F2F3F4"/>
<path d="M27.5635 40.4621C27.5635 40.4621 28.216 40.1079 28.3132 40.5307C28.4104 40.9535 28.0586 41.9947 27.5352 42.0572C27.0118 42.1196 26.5936 41.2305 26.699 40.8467C26.8044 40.4628 27.0988 40.677 27.5635 40.4621Z" fill="#171B21"/>
<path d="M42.7078 65.0065C42.7078 65.0065 43.097 65.6135 42.6613 65.729C42.2259 65.8461 41.1316 65.5656 41.0492 65.0666C40.9668 64.5677 41.8792 64.1175 42.2816 64.1972C42.6824 64.2772 42.4687 64.5729 42.7078 65.0065Z" fill="#171B21"/>
<path d="M21.6121 48.7516C21.6121 48.7516 23.2864 47.6855 23.87 49.138C24.4536 50.5905 23.6788 50.8811 22.4686 50.7921C21.2584 50.7031 20.0444 49.7319 21.6121 48.7516Z" fill="#171B21"/>
<path d="M17.9984 59.9403C17.9984 59.9403 16.9423 58.3222 18.4729 57.7754C20.0035 57.2287 20.2822 57.9749 20.1491 59.1377C20.0173 60.2988 18.9693 61.4549 17.9984 59.9403Z" fill="#171B21"/>
<path d="M30.7231 52.4028C30.7231 52.4028 33.5204 53.7103 33.3644 55.0519C33.2083 56.3934 31.6872 55.8776 30.7784 56.1577C29.8695 56.4378 28.5566 55.1698 28.7757 54.1739C28.9948 53.178 29.9465 52.1259 30.7231 52.4028Z" fill="#171B21"/>
<path d="M10.2303 70.9033C10.2303 70.9033 8.48647 73.4126 9.31301 74.4943C10.1395 75.5759 11.1867 74.3791 12.1167 74.1733C13.0467 73.9675 13.5266 72.2228 12.8258 71.4722C12.123 70.7189 10.7592 70.2799 10.2303 70.9033Z" fill="#171B21"/>
<path d="M34.7693 66.3622C34.7693 66.3622 37.6225 64.0465 37.0162 62.6244C36.4099 61.2023 34.7975 62.2478 33.6488 62.2276C32.5 62.2074 31.3686 64.0123 31.9375 65.0338C32.5067 66.0567 33.9494 66.9118 34.7693 66.3622Z" fill="#171B21"/>
<path d="M11.1022 58.2818C11.1022 58.2818 10.2346 59.0483 9.58573 58.539C8.78818 57.9121 8.72246 57.4427 9.99655 56.3586C11.2706 55.2746 12.0584 54.9171 12.4271 55.3164C12.7971 55.714 12.8451 55.6727 13.1401 55.7292C13.4336 55.786 12.9957 56.6362 11.1022 58.2818Z" fill="#171B21"/>
<path d="M29.0669 78.1171C29.0669 78.1171 29.1826 77.2308 29.7674 76.6013C30.3524 75.9732 32.5209 75.8087 32.9293 76.9263C33.3377 78.0438 33.3078 79.8466 31.3446 80.0573C29.3813 80.268 28.2289 80.9372 27.5414 81.5429C26.8538 82.1486 24.8734 81.9453 24.8597 80.2621C24.846 78.5788 27.0387 79.1695 28.0229 78.8639C29.0072 78.5583 29.0669 78.1171 29.0669 78.1171Z" fill="#171B21"/>
<path d="M44.4696 73.9454C44.4696 73.9454 45.1085 71.1464 42.7087 70.8081C40.309 70.4698 38.4376 71.9307 38.3786 73.6708C38.3196 75.411 38.4795 75.7146 39.7253 75.7291C40.9712 75.7436 41.3552 75.3081 42.3503 74.6891C43.347 74.07 44.4217 74.2532 44.4696 73.9454Z" fill="#171B21"/>
<path d="M21.9586 66.9864C21.9586 66.9864 24.35 68.3493 23.3025 70.1094C22.2549 71.8696 19.1302 72.0709 18.9911 70.6137C18.8519 69.1566 18.096 68.8344 19.1356 67.8823C20.1752 66.9303 21.2846 66.709 21.9586 66.9864Z" fill="#171B21"/>
<path d="M8.7946 64.1144C8.7946 64.1144 8.7762 64.7422 8.94508 65.2157C9.11396 65.6893 8.99222 66.9701 7.29703 67.4561C5.60185 67.9421 4.8686 67.7743 4.38089 65.9378C3.89318 64.1013 4.23404 63.6732 5.35647 63.108C6.47889 62.5428 8.42439 62.0635 8.85692 62.6297C9.28944 63.1959 8.77571 63.6643 8.7946 64.1144Z" fill="#171B21"/>
<path d="M33.0467 47.4948C33.0467 47.4948 33.4359 48.1018 33.0002 48.2173C32.5648 48.3343 31.4704 48.0539 31.388 47.5549C31.3057 47.0559 32.2181 46.6058 32.6204 46.6855C33.0213 46.7655 32.8075 47.0612 33.0467 47.4948Z" fill="#171B21"/>
</g>
<g clip-path="url(#clip1_6286_35330)">
<path d="M47.743 18.8057C48.2199 19.373 48.7251 19.9474 48.7251 19.9474C50.7368 22.0238 52.7227 20.2302 52.8402 19.9946C52.9577 19.7589 53.6641 20.6312 55.4349 22.0007C57.2057 23.3701 59.0063 20.7132 59.3025 20.1601C59.6004 19.6079 60.275 20.5192 62.8191 22.4203C65.3632 24.3213 67.0603 20.6069 67.4088 20.1599C67.7583 19.7111 68.9894 22.6218 72.5185 21.303C75.5873 20.1553 76.3614 16.2529 76.5124 15.2527C76.9172 15.5232 77.3746 15.5942 77.8436 15.4443C78.4744 15.243 79.1565 15.262 79.8029 15.4192C82.2729 16.0153 87.5095 17.7536 90.6883 22.2211C94.9606 28.2233 96.7568 30.3799 97.76 33.4602C98.7633 36.5405 100.247 41.529 98.7849 51.2078C98.3538 54.0623 95.7807 62.0018 88.1451 67.8617C82.5189 72.1794 76.8954 73.3886 67.3263 72.9511C57.7572 72.5137 50.3669 67.2189 48.0955 65.1306C45.8241 63.0422 43.2623 61.6443 40.4124 57.328C37.9632 53.2429 35.3718 48.8038 36.1791 41.529C36.7539 36.3491 39.0628 25.8745 47.743 18.8057Z" fill="#F2F3F4"/>
<path d="M88.7903 30.5777C88.7903 30.5777 90.4352 32.0447 90.2511 34.1222C90.0669 36.1998 88.4504 35.1814 86.7984 35.2322C85.1464 35.283 82.9865 33.0016 84.3486 31.1443C85.7106 29.287 87.5929 29.3393 88.7903 30.5777Z" fill="#171B21"/>
<path d="M84.2328 21.2358C84.2328 21.2358 85.1789 21.3798 84.9357 21.9014C84.6925 22.423 83.4953 23.2399 82.9154 22.8913C82.3355 22.5427 82.6308 21.2764 83.0475 20.9561C83.4642 20.6358 83.5891 21.0941 84.2328 21.2358Z" fill="#171B21"/>
<path d="M81.6025 59.5968C81.6025 59.5968 81.5058 60.5432 80.9717 60.32C80.4367 60.0984 79.5563 58.9373 79.8761 58.3472C80.1959 57.7571 81.4826 58.0058 81.8251 58.4081C82.166 58.8095 81.7109 58.9514 81.6025 59.5968Z" fill="#171B21"/>
<path d="M71.5147 25.2447C71.5147 25.2447 74.0697 25.4486 73.4865 27.4383C72.9033 29.428 71.8848 29.1204 70.7325 28.0689C69.5802 27.0174 69.1368 25.035 71.5147 25.2447Z" fill="#171B21"/>
<path d="M58.819 34.1537C58.819 34.1537 59.058 31.6159 61.0481 32.2522C63.0382 32.8885 62.7173 33.894 61.6431 35.0118C60.5717 36.1288 58.5775 36.5154 58.819 34.1537Z" fill="#171B21"/>
<path d="M77.7805 36.2974C77.7805 36.2974 79.5539 39.8868 78.3121 41.1744C77.0703 42.462 75.9484 40.7155 74.8027 40.2908C73.6571 39.8661 73.3535 37.4932 74.3797 36.619C75.406 35.7449 77.2187 35.3915 77.7805 36.2974Z" fill="#171B21"/>
<path d="M42.1033 39.5369C42.1033 39.5369 38.3118 40.7961 38.274 42.5881C38.2362 44.38 40.2624 43.9499 41.3695 44.4695C42.4765 44.9891 44.3715 43.5338 44.269 42.1896C44.1668 40.8409 43.1419 39.2998 42.1033 39.5369Z" fill="#171B21"/>
<path d="M70.5954 54.1829C70.5954 54.1829 75.3526 54.0053 75.8883 52.0296C76.424 50.0538 73.9482 49.8773 72.8025 48.9469C71.6568 48.0164 69.054 49.0194 68.8042 50.5442C68.5534 52.0706 69.322 54.112 70.5954 54.1829Z" fill="#171B21"/>
<path d="M91.1204 52.3388C91.1204 52.3388 90.4868 53.5247 88.6127 52.6151C86.3097 51.497 85.582 50.7137 86.5682 49.0417C87.5544 47.3697 88.5692 46.8567 89.7757 47.5533C90.9823 48.2499 91.0201 48.1844 91.6442 48.308C92.2683 48.4315 92.5444 49.8001 91.1204 52.3388Z" fill="#171B21"/>
<path d="M53.1829 26.9508C53.1829 26.9508 51.6859 27.0704 51.4411 26.021C51.1407 24.7304 51.4536 24.1846 53.6182 24.0528C55.7829 23.921 56.8686 24.1685 56.9189 24.8803C56.972 25.5914 57.054 25.5858 57.3067 25.8789C57.5577 26.1709 56.4278 26.7186 53.1829 26.9508Z" fill="#171B21"/>
<path d="M55.3296 62.0335C55.3296 62.0335 56.1628 61.1927 57.263 60.9935C58.3622 60.7959 60.6887 62.3391 60.1989 63.8379C59.7091 65.3368 58.2223 67.2093 56.0661 65.8771C53.9098 64.5448 52.2034 64.3366 51.0185 64.4296C49.8337 64.5225 47.9947 62.7412 49.3408 60.9598C50.6868 59.1783 52.4277 61.5351 53.6702 61.9927C54.9128 62.4504 55.3296 62.0335 55.3296 62.0335Z" fill="#171B21"/>
<path d="M74.2811 69.8374C74.2811 69.8374 77.1887 67.3989 75.0345 65.1437C72.8804 62.8885 69.807 62.944 68.3414 64.7277C66.8758 66.5114 66.7922 66.9573 68.0407 67.9586C69.2893 68.9599 70.0296 68.8058 71.5363 68.9423C73.0448 69.0799 73.9839 70.1233 74.2811 69.8374Z" fill="#171B21"/>
<path d="M57.1321 44.6992C57.1321 44.6992 58.45 48.0256 55.9682 49.0479C53.4865 50.0702 50.1629 47.8088 51.1995 46.1659C52.2361 44.523 51.7317 43.5859 53.5526 43.4072C55.3734 43.2286 56.6744 43.874 57.1321 44.6992Z" fill="#171B21"/>
<path d="M46.1362 31.2589C46.1362 31.2589 45.6103 31.9047 45.3986 32.5365C45.1868 33.1682 44.0288 34.4191 41.9214 33.5886C39.8139 32.7581 39.2077 32.0012 40.1982 29.6834C41.1887 27.3657 41.8794 27.1851 43.4714 27.479C45.0635 27.7729 47.4187 28.8086 47.3988 29.7465C47.3789 30.6844 46.4808 30.7705 46.1362 31.2589Z" fill="#171B21"/>
</g>
<defs>
<clipPath id="clip0_6286_35330">
<rect width="49.0159" height="45.3166" fill="white" transform="matrix(-0.990794 0.135379 0.135379 0.990794 48.957 34.6973)"/>
</clipPath>
<clipPath id="clip1_6286_35330">
<rect width="64.6452" height="60.6563" fill="white" transform="matrix(-0.866025 -0.5 -0.5 0.866025 111.74 32.8027)"/>
</clipPath>
</defs>
</svg>
