<svg width="468" height="464" viewBox="0 0 468 464" fill="none" xmlns="http://www.w3.org/2000/svg">
<line x1="4.30078" y1="231.938" x2="463.53" y2="231.938" stroke="#5900CC" stroke-width="4" stroke-linecap="square"/>
<line x1="231.916" y1="231.938" x2="231.916" y2="4.32288" stroke="#5900CC" stroke-width="4" stroke-linecap="square"/>
<line x1="2" y1="-2" x2="229.072" y2="-2" transform="matrix(0.309017 -0.951056 0.951057 0.309016 233.916 231.316)" stroke="#5900CC" stroke-width="4" stroke-linecap="square"/>
<line x1="235.399" y1="227.214" x2="368.869" y2="43.5091" stroke="#5900CC" stroke-width="4" stroke-linecap="square"/>
<line x1="234.358" y1="227.214" x2="418.064" y2="93.7446" stroke="#5900CC" stroke-width="4" stroke-linecap="square"/>
<line x1="2" y1="-2" x2="229.072" y2="-2" transform="matrix(0.951057 -0.309015 0.309019 0.951056 235.842 231.316)" stroke="#5900CC" stroke-width="4" stroke-linecap="square"/>
<line x1="231.396" y1="230.032" x2="161.227" y2="14.074" stroke="#5900CC" stroke-width="4" stroke-linecap="square"/>
<line x1="2" y1="-2" x2="229.072" y2="-2" transform="matrix(-0.587786 -0.809017 0.809017 -0.587785 233.916 231.316)" stroke="#5900CC" stroke-width="4" stroke-linecap="square"/>
<line x1="231.122" y1="230.45" x2="47.4173" y2="96.9807" stroke="#5900CC" stroke-width="4" stroke-linecap="square"/>
<line x1="2" y1="-2" x2="229.072" y2="-2" transform="matrix(-0.951057 -0.309015 0.309019 -0.951056 233.916 229.354)" stroke="#5900CC" stroke-width="4" stroke-linecap="square"/>
<line x1="2" y1="-2" x2="461.229" y2="-2" transform="matrix(1 7.96318e-08 9.52138e-08 -1 2.30078 229.705)" stroke="#5900CC" stroke-width="4" stroke-linecap="square"/>
<line x1="2" y1="-2" x2="229.615" y2="-2" transform="matrix(-1.38984e-07 1 1 1.23402e-07 233.916 229.705)" stroke="#5900CC" stroke-width="4" stroke-linecap="square"/>
<line x1="2" y1="-2" x2="229.072" y2="-2" transform="matrix(0.309016 0.951057 0.951056 -0.309018 233.916 232.326)" stroke="#5900CC" stroke-width="4" stroke-linecap="square"/>
<line x1="2" y1="-2" x2="229.072" y2="-2" transform="matrix(0.587784 0.809018 0.809016 -0.587786 235.842 233.635)" stroke="#5900CC" stroke-width="4" stroke-linecap="square"/>
<line x1="2" y1="-2" x2="229.072" y2="-2" transform="matrix(0.809017 0.587786 0.587785 -0.809017 233.916 233.635)" stroke="#5900CC" stroke-width="4" stroke-linecap="square"/>
<line x1="2" y1="-2" x2="229.072" y2="-2" transform="matrix(0.951056 0.309017 0.309017 -0.951057 235.842 232.326)" stroke="#5900CC" stroke-width="4" stroke-linecap="square"/>
<line x1="2" y1="-2" x2="229.072" y2="-2" transform="matrix(-0.309017 0.951057 0.951056 0.309018 233.916 232.326)" stroke="#5900CC" stroke-width="4" stroke-linecap="square"/>
<line x1="2" y1="-2" x2="229.072" y2="-2" transform="matrix(-0.587785 0.809017 0.809016 0.587786 233.916 232.326)" stroke="#5900CC" stroke-width="4" stroke-linecap="square"/>
<line x1="2" y1="-2" x2="229.072" y2="-2" transform="matrix(-0.809017 0.587785 0.587785 0.809017 233.916 233.635)" stroke="#5900CC" stroke-width="4" stroke-linecap="square"/>
<line x1="2" y1="-2" x2="229.072" y2="-2" transform="matrix(-0.951056 0.309018 0.309016 0.951057 233.914 234.289)" stroke="#5900CC" stroke-width="4" stroke-linecap="square"/>
</svg>
