<svg width="80" height="14" viewBox="0 0 80 14" fill="none" xmlns="http://www.w3.org/2000/svg">
<path d="M38.1803 12.4305L36.4728 10.7683C36.2585 11.0122 36.0019 11.2161 35.715 11.3706C35.4419 11.497 35.1428 11.5588 34.8414 11.5512C34.5671 11.5606 34.2943 11.5063 34.0449 11.3929C33.7955 11.2794 33.5763 11.1099 33.4049 10.8978C33.0295 10.4381 32.8418 9.6963 32.8418 8.67247C32.8315 8.22689 32.8775 7.78179 32.9787 7.34751C33.0568 7.02624 33.202 6.72468 33.4049 6.46219C33.5771 6.25118 33.7965 6.08261 34.0458 5.96975C34.2951 5.85688 34.5674 5.8028 34.8414 5.81176C35.1428 5.80418 35.4419 5.86604 35.715 5.99243C36.0025 6.14589 36.2594 6.34998 36.4728 6.59469L38.1803 4.90537C37.7616 4.46819 37.2559 4.12162 36.695 3.88756C36.1046 3.65988 35.475 3.54838 34.8414 3.55933C34.3125 3.56328 33.7868 3.64134 33.2801 3.79119C32.7363 3.94641 32.2356 4.22243 31.8161 4.59822C31.3429 5.0356 30.9721 5.57003 30.7295 6.16408C30.4179 6.96223 30.2719 7.81429 30.3004 8.66946C30.2723 9.5246 30.4182 10.3766 30.7295 11.1748C30.9743 11.7703 31.3447 12.3072 31.8161 12.7497C32.2344 13.1292 32.7353 13.4084 33.2801 13.5658C33.787 13.7147 34.3127 13.7918 34.8414 13.7946C35.4757 13.8068 36.1059 13.6931 36.695 13.4604C37.2545 13.2197 37.7595 12.8706 38.1803 12.4335V12.4305ZM47.4512 8.66042C47.4667 7.89797 47.388 7.1365 47.2168 6.39293C47.0587 5.78673 46.744 5.23159 46.3037 4.7819C45.9504 4.41687 45.5286 4.12334 45.0619 3.91767C44.4633 3.65707 43.8135 3.53158 43.1597 3.55029C42.5088 3.53058 41.8617 3.65615 41.2665 3.91767C40.8034 4.12474 40.3848 4.41817 40.0339 4.7819C39.5936 5.23159 39.2789 5.78673 39.1208 6.39293C38.8123 7.89122 38.8123 9.43565 39.1208 10.9339C39.277 11.5444 39.5918 12.104 40.0339 12.557C40.3858 12.9197 40.8041 13.2129 41.2665 13.4212C41.8619 13.6817 42.509 13.8063 43.1597 13.7856C43.8132 13.8053 44.463 13.6808 45.0619 13.4212C45.528 13.2145 45.9495 12.9211 46.3037 12.557C46.7459 12.104 47.0606 11.5444 47.2168 10.9339C47.3876 10.1883 47.4663 9.42485 47.4512 8.66042ZM44.9098 8.66042C44.9126 9.13592 44.8801 9.61098 44.8124 10.0817C44.7687 10.4639 44.5998 10.8213 44.3315 11.0996C44.0125 11.3829 43.599 11.5397 43.1703 11.5397C42.7417 11.5397 42.3281 11.3829 42.0092 11.0996C41.7418 10.821 41.574 10.4635 41.5313 10.0817C41.4636 9.61098 41.4311 9.13592 41.4339 8.66042C41.4306 8.18791 41.4632 7.71582 41.5313 7.24814C41.5753 6.86935 41.7431 6.51512 42.0092 6.23936C42.3281 5.956 42.7417 5.79927 43.1703 5.79927C43.599 5.79927 44.0125 5.956 44.3315 6.23936C44.5985 6.51483 44.7674 6.86904 44.8124 7.24814C44.8805 7.71582 44.9131 8.18791 44.9098 8.66042ZM57.4586 13.6712V0H54.9172L54.9355 4.55003C54.6395 4.20683 54.2634 3.94017 53.8398 3.77313C53.4016 3.61773 52.9386 3.54223 52.4732 3.55029C51.9997 3.54739 51.5295 3.629 51.0853 3.79119C50.6818 3.93208 50.3142 4.15814 50.0078 4.45367C49.7538 4.70325 49.5521 5.00002 49.4143 5.32694C49.2765 5.6649 49.1745 6.01609 49.11 6.37487C49.0449 6.75221 49.0063 7.13354 48.9943 7.51614C48.9943 7.9076 48.976 8.28703 48.976 8.66042C48.976 9.03382 48.976 9.41625 48.9943 9.81073C49.0058 10.1974 49.0445 10.5827 49.11 10.964C49.1753 11.3256 49.2773 11.6797 49.4143 12.021C49.5455 12.348 49.747 12.6429 50.0048 12.8852C50.3132 13.1811 50.6829 13.4072 51.0883 13.5477C51.5349 13.7087 52.007 13.7893 52.4823 13.7856C52.9573 13.7976 53.4299 13.7167 53.8732 13.5477C54.2962 13.3583 54.6722 13.0798 54.975 12.7317V13.6712H57.4586ZM54.9172 8.66042C54.9191 9.04161 54.8998 9.42261 54.8594 9.80169C54.8307 10.114 54.7495 10.4193 54.6189 10.7051C54.5065 10.9496 54.3273 11.1582 54.1015 11.3073C53.8269 11.4515 53.5207 11.527 53.2097 11.527C52.8988 11.527 52.5926 11.4515 52.318 11.3073C52.0932 11.1595 51.9166 10.9503 51.8097 10.7051C51.6851 10.4178 51.607 10.113 51.5783 9.80169C51.5414 9.42239 51.5242 9.04147 51.5266 8.66042C51.526 8.28127 51.5453 7.90234 51.5844 7.52517C51.6129 7.21386 51.691 6.90896 51.8157 6.62179C51.9227 6.37659 52.0992 6.16737 52.324 6.01954C52.5987 5.87532 52.9049 5.79991 53.2158 5.79991C53.5268 5.79991 53.8329 5.87532 54.1076 6.01954C54.3334 6.16871 54.5126 6.37729 54.625 6.62179C54.7558 6.90746 54.8371 7.21284 54.8655 7.52517C54.9041 7.90234 54.9213 8.28135 54.9172 8.66042ZM68.1478 9.44637V8.3322C68.1506 7.68378 68.0478 7.03916 67.8435 6.42305C67.6667 5.86871 67.3766 5.35623 66.9913 4.91741C66.6079 4.48877 66.1341 4.14854 65.6034 3.92068C65.0128 3.66826 64.3748 3.54303 63.7316 3.5533C63.1162 3.54564 62.5055 3.66033 61.9358 3.89057C61.4028 4.11034 60.928 4.44825 60.5479 4.87826C60.1368 5.34658 59.8262 5.89262 59.6348 6.48327C59.183 8.01728 59.2106 9.6506 59.714 11.1688C59.9375 11.7657 60.2956 12.3043 60.761 12.7437C61.1866 13.1293 61.6988 13.409 62.2554 13.5598C62.8259 13.7114 63.4147 13.7853 64.0055 13.7796C64.4138 13.7839 64.8216 13.7486 65.2229 13.6742C65.5664 13.6124 65.9014 13.5114 66.2212 13.3731C66.5198 13.2421 66.8026 13.0785 67.0643 12.8852C67.3386 12.6785 67.5979 12.4531 67.8404 12.2107L66.3186 10.7322C66.0377 11.0214 65.7094 11.2616 65.3477 11.4428C64.9299 11.6148 64.4789 11.694 64.0268 11.6747C63.7265 11.6952 63.4252 11.6518 63.1432 11.5474C62.8613 11.443 62.6052 11.28 62.3924 11.0694C62.0018 10.6262 61.7971 10.052 61.8202 9.46443L68.1478 9.44637ZM65.6643 7.75704H61.8202C61.8294 7.56589 61.8528 7.37567 61.8902 7.18791C61.9257 7.01277 61.9808 6.84209 62.0545 6.67901C62.1989 6.38488 62.4155 6.13124 62.6845 5.94124C63.0038 5.74325 63.373 5.63823 63.7498 5.63823C64.1266 5.63823 64.4958 5.74325 64.8151 5.94124C65.0849 6.13037 65.3017 6.38423 65.4451 6.67901C65.5183 6.84255 65.5744 7.01307 65.6125 7.18791C65.6421 7.37633 65.6594 7.56643 65.6643 7.75704Z" fill="#171B21"/>
<path d="M18.1419 13.7975V11.6704H15.2941C15.1674 11.6835 15.0394 11.6691 14.9189 11.6282C14.7983 11.5873 14.6881 11.5208 14.5958 11.4334C14.4479 11.2395 14.3753 10.9988 14.3915 10.7558V0.00195312H11.8516V10.9107C11.8509 11.2686 11.9065 11.6244 12.0162 11.9652C12.1283 12.3028 12.31 12.6134 12.5498 12.8768C12.8066 13.1629 13.1244 13.3882 13.4798 13.5362C13.9064 13.7133 14.3655 13.7992 14.8275 13.7884L18.1419 13.7975Z" fill="#171B21"/>
<rect x="23.5703" y="13.7949" width="2.29925" height="4.02051" transform="rotate(-90 23.5703 13.7949)" fill="#171B21"/>
<rect x="21.4922" y="13.7949" width="2.29925" height="2.28753" transform="rotate(-90 21.4922 13.7949)" fill="#171B21"/>
<path d="M23.3992 3.63972L21.4922 3.28016C21.4922 2.53108 22.1037 1.00506 23.2176 0.403678C24.2165 -0.135662 27.0119 -0.641691 28.0305 2.47115C28.6608 4.39749 27.758 6.42631 24.2165 9.3028C23.7096 9.86423 23.944 9.93203 23.7624 10.3815H21.6738C21.5732 9.32777 22.4003 8.85335 25.1246 6.06676C26.6683 3.99928 26.3051 2.29137 25.3062 2.0217C23.8532 1.66214 23.5203 3.04046 23.3992 3.63972Z" fill="#171B21"/>
<path d="M0.495994 6.07735L5.93248 0.355076C5.93248 0.355076 6.6152 -0.43945 7.35692 0.355076C7.35692 0.355076 7.9385 0.777696 7.57606 1.52996L3.17631 6.2295C3.17631 6.2295 2.34187 6.86343 3.07516 7.65795C3.80846 8.45248 7.19678 12.1208 7.19678 12.1208C7.19678 12.1208 7.75307 12.7801 7.13777 13.3971C7.13777 13.3971 6.6152 14.1494 5.81448 13.5915L0.369564 7.70867C0.369564 7.70867 -0.54073 6.96486 0.495994 6.07735Z" fill="#20BD9D"/>
<path d="M79.5072 7.72012L74.0681 13.4424C74.0681 13.4424 73.385 14.2369 72.6429 13.4424C72.6429 13.4424 72.0611 13.0198 72.4237 12.2675L76.8256 7.56798C76.8256 7.56798 77.6604 6.93405 76.9268 6.13952C76.1931 5.345 72.8031 1.67665 72.8031 1.67665C72.8031 1.67665 72.2466 1.01737 72.8622 0.400342C72.8622 0.400342 73.385 -0.351922 74.1861 0.205936L79.6337 6.09726C79.6337 6.09726 80.536 6.84107 79.5072 7.72012Z" fill="#20BD9D"/>
</svg>
