<svg width="80" height="14" viewBox="0 0 80 14" fill="none" xmlns="http://www.w3.org/2000/svg">
<path d="M38.1783 12.4305L36.4709 10.7683C36.2566 11.0122 35.9999 11.2161 35.713 11.3706C35.4399 11.497 35.1409 11.5588 34.8395 11.5512C34.5651 11.5606 34.2924 11.5063 34.043 11.3929C33.7936 11.2794 33.5744 11.1099 33.4029 10.8978C33.0275 10.4381 32.8398 9.6963 32.8398 8.67247C32.8295 8.22689 32.8755 7.78179 32.9768 7.34751C33.0549 7.02624 33.2 6.72468 33.4029 6.46219C33.5752 6.25118 33.7946 6.08261 34.0438 5.96975C34.2931 5.85688 34.5655 5.8028 34.8395 5.81176C35.1409 5.80418 35.4399 5.86604 35.713 5.99243C36.0006 6.14589 36.2574 6.34998 36.4709 6.59469L38.1783 4.90537C37.7597 4.46819 37.2539 4.12162 36.6931 3.88756C36.1027 3.65988 35.473 3.54838 34.8395 3.55933C34.3106 3.56328 33.7849 3.64134 33.2781 3.79119C32.7344 3.94641 32.2337 4.22243 31.8141 4.59822C31.3409 5.0356 30.9701 5.57003 30.7276 6.16408C30.4159 6.96223 30.27 7.81429 30.2984 8.66946C30.2703 9.5246 30.4163 10.3766 30.7276 11.1748C30.9723 11.7703 31.3428 12.3072 31.8141 12.7497C32.2324 13.1292 32.7333 13.4084 33.2781 13.5658C33.785 13.7147 34.3107 13.7918 34.8395 13.7946C35.4737 13.8068 36.104 13.6931 36.6931 13.4604C37.2525 13.2197 37.7576 12.8706 38.1783 12.4335V12.4305ZM47.4492 8.66042C47.4648 7.89797 47.3861 7.1365 47.2149 6.39293C47.0567 5.78673 46.7421 5.23159 46.3018 4.7819C45.9484 4.41687 45.5267 4.12334 45.06 3.91767C44.4613 3.65707 43.8115 3.53158 43.1577 3.55029C42.5068 3.53058 41.8598 3.65615 41.2646 3.91767C40.8014 4.12474 40.3829 4.41817 40.0319 4.7819C39.5916 5.23159 39.277 5.78673 39.1188 6.39293C38.8104 7.89122 38.8104 9.43565 39.1188 10.9339C39.275 11.5444 39.5898 12.104 40.0319 12.557C40.3838 12.9197 40.8021 13.2129 41.2646 13.4212C41.86 13.6817 42.507 13.8063 43.1577 13.7856C43.8113 13.8053 44.4611 13.6808 45.06 13.4212C45.526 13.2145 45.9476 12.9211 46.3018 12.557C46.7439 12.104 47.0587 11.5444 47.2149 10.9339C47.3857 10.1883 47.4644 9.42485 47.4492 8.66042ZM44.9078 8.66042C44.9107 9.13592 44.8781 9.61098 44.8104 10.0817C44.7667 10.4639 44.5978 10.8213 44.3295 11.0996C44.0106 11.3829 43.597 11.5397 43.1684 11.5397C42.7397 11.5397 42.3262 11.3829 42.0072 11.0996C41.7399 10.821 41.572 10.4635 41.5294 10.0817C41.4617 9.61098 41.4291 9.13592 41.432 8.66042C41.4287 8.18791 41.4612 7.71582 41.5294 7.24814C41.5733 6.86935 41.7411 6.51512 42.0072 6.23936C42.3262 5.956 42.7397 5.79927 43.1684 5.79927C43.597 5.79927 44.0106 5.956 44.3295 6.23936C44.5966 6.51483 44.7654 6.86904 44.8104 7.24814C44.8786 7.71582 44.9111 8.18791 44.9078 8.66042ZM57.4567 13.6712V0H54.9153L54.9335 4.55003C54.6375 4.20683 54.2614 3.94017 53.8378 3.77313C53.3996 3.61773 52.9366 3.54223 52.4712 3.55029C51.9977 3.54739 51.5276 3.629 51.0833 3.79119C50.6799 3.93208 50.3122 4.15814 50.0059 4.45367C49.7518 4.70325 49.5501 5.00002 49.4124 5.32694C49.2746 5.6649 49.1726 6.01609 49.108 6.37487C49.043 6.75221 49.0043 7.13354 48.9924 7.51614C48.9924 7.9076 48.9741 8.28703 48.9741 8.66042C48.9741 9.03382 48.9741 9.41625 48.9924 9.81073C49.0039 10.1974 49.0425 10.5827 49.108 10.964C49.1734 11.3256 49.2754 11.6797 49.4124 12.021C49.5436 12.348 49.745 12.6429 50.0028 12.8852C50.3112 13.1811 50.6809 13.4072 51.0864 13.5477C51.5329 13.7087 52.0051 13.7893 52.4804 13.7856C52.9553 13.7976 53.428 13.7167 53.8713 13.5477C54.2942 13.3583 54.6702 13.0798 54.9731 12.7317V13.6712H57.4567ZM54.9153 8.66042C54.9172 9.04161 54.8979 9.42261 54.8574 9.80169C54.8288 10.114 54.7475 10.4193 54.617 10.7051C54.5046 10.9496 54.3254 11.1582 54.0996 11.3073C53.8249 11.4515 53.5187 11.527 53.2078 11.527C52.8968 11.527 52.5906 11.4515 52.316 11.3073C52.0912 11.1595 51.9146 10.9503 51.8077 10.7051C51.6831 10.4178 51.6051 10.113 51.5764 9.80169C51.5395 9.42239 51.5222 9.04147 51.5247 8.66042C51.5241 8.28127 51.5434 7.90234 51.5825 7.52517C51.6109 7.21386 51.689 6.90896 51.8138 6.62179C51.9207 6.37659 52.0973 6.16737 52.3221 6.01954C52.5967 5.87532 52.9029 5.79991 53.2139 5.79991C53.5248 5.79991 53.831 5.87532 54.1056 6.01954C54.3314 6.16871 54.5106 6.37729 54.6231 6.62179C54.7538 6.90746 54.8351 7.21284 54.8635 7.52517C54.9021 7.90234 54.9194 8.28135 54.9153 8.66042ZM68.1459 9.44637V8.3322C68.1486 7.68378 68.0458 7.03916 67.8415 6.42305C67.6647 5.86871 67.3746 5.35623 66.9893 4.91741C66.6059 4.48877 66.1321 4.14854 65.6014 3.92068C65.0109 3.66826 64.3728 3.54303 63.7296 3.5533C63.1142 3.54564 62.5036 3.66033 61.9339 3.89057C61.4009 4.11034 60.9261 4.44825 60.546 4.87826C60.1349 5.34658 59.8243 5.89262 59.6329 6.48327C59.1811 8.01728 59.2087 9.6506 59.712 11.1688C59.9355 11.7657 60.2936 12.3043 60.759 12.7437C61.1846 13.1293 61.6969 13.409 62.2534 13.5598C62.824 13.7114 63.4128 13.7853 64.0035 13.7796C64.4118 13.7839 64.8196 13.7486 65.221 13.6742C65.5644 13.6124 65.8994 13.5114 66.2193 13.3731C66.5178 13.2421 66.8006 13.0785 67.0624 12.8852C67.3366 12.6785 67.596 12.4531 67.8385 12.2107L66.3167 10.7322C66.0357 11.0214 65.7075 11.2616 65.3458 11.4428C64.9279 11.6148 64.477 11.694 64.0248 11.6747C63.7245 11.6952 63.4232 11.6518 63.1413 11.5474C62.8593 11.443 62.6033 11.28 62.3904 11.0694C61.9999 10.6262 61.7952 10.052 61.8182 9.46443L68.1459 9.44637ZM65.6623 7.75704H61.8182C61.8274 7.56589 61.8508 7.37567 61.8882 7.18791C61.9237 7.01277 61.9789 6.84209 62.0526 6.67901C62.197 6.38488 62.4136 6.13124 62.6826 5.94124C63.0019 5.74325 63.371 5.63823 63.7479 5.63823C64.1247 5.63823 64.4939 5.74325 64.8131 5.94124C65.0829 6.13037 65.2997 6.38423 65.4432 6.67901C65.5164 6.84255 65.5724 7.01307 65.6106 7.18791C65.6401 7.37633 65.6574 7.56643 65.6623 7.75704Z" fill="#F2F3F4"/>
<path d="M18.1453 13.7975V11.6704H15.2975C15.1708 11.6835 15.0428 11.6691 14.9223 11.6282C14.8017 11.5873 14.6915 11.5208 14.5992 11.4334C14.4513 11.2395 14.3787 10.9988 14.3949 10.7558V0.00195312H11.855V10.9107C11.8543 11.2686 11.9099 11.6244 12.0196 11.9652C12.1317 12.3028 12.3134 12.6134 12.5532 12.8768C12.81 13.1629 13.1278 13.3882 13.4832 13.5362C13.9098 13.7133 14.369 13.7992 14.831 13.7884L18.1453 13.7975Z" fill="#F2F3F4"/>
<rect x="23.5737" y="13.7949" width="2.29925" height="4.02051" transform="rotate(-90 23.5737 13.7949)" fill="#F2F3F4"/>
<rect x="21.4927" y="13.7949" width="2.29925" height="2.28753" transform="rotate(-90 21.4927 13.7949)" fill="#F2F3F4"/>
<path d="M23.3997 3.63972L21.4927 3.28016C21.4927 2.53108 22.1042 1.00506 23.2181 0.403678C24.217 -0.135662 27.0124 -0.641691 28.031 2.47115C28.6613 4.39749 27.7585 6.42631 24.217 9.3028C23.71 9.86423 23.9445 9.93203 23.7629 10.3815H21.6743C21.5737 9.32777 22.4008 8.85335 25.1251 6.06676C26.6688 3.99928 26.3056 2.29137 25.3067 2.0217C23.8537 1.66214 23.5208 3.04046 23.3997 3.63972Z" fill="#F2F3F4"/>
<path d="M0.495994 6.07735L5.93248 0.355076C5.93248 0.355076 6.6152 -0.43945 7.35692 0.355076C7.35692 0.355076 7.9385 0.777696 7.57606 1.52996L3.17631 6.2295C3.17631 6.2295 2.34187 6.86343 3.07516 7.65795C3.80846 8.45248 7.19678 12.1208 7.19678 12.1208C7.19678 12.1208 7.75307 12.7801 7.13777 13.3971C7.13777 13.3971 6.6152 14.1494 5.81448 13.5915L0.369564 7.70867C0.369564 7.70867 -0.54073 6.96486 0.495994 6.07735Z" fill="#20BD9D"/>
<path d="M79.5077 7.72012L74.0685 13.4424C74.0685 13.4424 73.3855 14.2369 72.6434 13.4424C72.6434 13.4424 72.0616 13.0198 72.4242 12.2675L76.826 7.56798C76.826 7.56798 77.6609 6.93405 76.9272 6.13952C76.1936 5.345 72.8036 1.67665 72.8036 1.67665C72.8036 1.67665 72.2471 1.01737 72.8627 0.400342C72.8627 0.400342 73.3855 -0.351922 74.1866 0.205936L79.6342 6.09726C79.6342 6.09726 80.5365 6.84107 79.5077 7.72012Z" fill="#20BD9D"/>
</svg>
