<svg width="120" height="54" viewBox="0 0 120 54" fill="none" xmlns="http://www.w3.org/2000/svg">
<rect x="70.2344" y="47" width="6.66667" height="11.6399" transform="rotate(-90 70.2344 47)" fill="#F2F3F4"/>
<rect x="64.2148" y="47" width="6.66667" height="6.6227" transform="rotate(-90 64.2148 47)" fill="#F2F3F4"/>
<path d="M54.5316 47V40.8326H46.2868C45.9201 40.8706 45.5495 40.8289 45.2005 40.7103C44.8515 40.5916 44.5324 40.3989 44.2653 40.1454C43.8369 39.5832 43.6268 38.8853 43.6738 38.1806V7H36.3203V38.6299C36.3185 39.6676 36.4793 40.6992 36.797 41.6872C37.1214 42.6663 37.6476 43.5667 38.3419 44.3304C39.0853 45.1601 40.0052 45.8134 41.0343 46.2423C42.2693 46.7558 43.5986 47.005 44.9362 46.9736L54.5316 47Z" fill="#F2F3F4"/>
<path d="M69.7398 17.5533L64.2188 16.5108C64.2188 14.3388 65.9893 9.91417 69.2139 8.17046C72.1059 6.60665 80.1991 5.13942 83.1479 14.1651C84.9727 19.7505 82.3592 25.633 72.1059 33.9734C70.6383 35.6012 71.3172 35.7978 70.7914 37.101H64.7446C64.4534 34.0458 66.8478 32.6702 74.7349 24.5905C79.2043 18.5959 78.1527 13.6438 75.2608 12.8619C71.0543 11.8194 70.0903 15.8158 69.7398 17.5533Z" fill="#F2F3F4"/>
<path d="M3.43597 24.6156L19.1753 8.02388C19.1753 8.02388 21.1518 5.72016 23.2992 8.02388C23.2992 8.02388 24.983 9.24926 23.9337 11.4304L11.1958 25.0567C11.1958 25.0567 8.78001 26.8948 10.903 29.1985C13.026 31.5022 22.8356 42.1385 22.8356 42.1385C22.8356 42.1385 24.4461 44.0501 22.6648 45.8392C22.6648 45.8392 21.1518 48.0204 18.8337 46.4029L3.06994 29.3455C3.06994 29.3455 0.434516 27.1889 3.43597 24.6156Z" fill="url(#paint0_linear_1359_10954)"/>
<path d="M116.575 29.3844L100.828 45.9761C100.828 45.9761 98.8503 48.2798 96.7019 45.9761C96.7019 45.9761 95.0173 44.7507 96.0671 42.5696L108.811 28.9433C108.811 28.9433 111.228 27.1052 109.104 24.8015C106.98 22.4978 97.1658 11.8614 97.1658 11.8614C97.1658 11.8614 95.5544 9.94985 97.3367 8.16079C97.3367 8.16079 98.8503 5.9796 101.17 7.59711L116.941 24.679C116.941 24.679 119.553 26.8356 116.575 29.3844Z" fill="url(#paint1_linear_1359_10954)"/>
<defs>
<linearGradient id="paint0_linear_1359_10954" x1="13.1362" y1="7.00781" x2="13.1362" y2="47.0077" gradientUnits="userSpaceOnUse">
<stop stop-color="#9959EB"/>
<stop offset="0.6615" stop-color="#20BD9D"/>
<stop offset="1" stop-color="#13B949"/>
</linearGradient>
<linearGradient id="paint1_linear_1359_10954" x1="106.861" y1="46.9977" x2="106.861" y2="6.99785" gradientUnits="userSpaceOnUse">
<stop stop-color="#9959EB"/>
<stop offset="0.6615" stop-color="#20BD9D"/>
<stop offset="1" stop-color="#13B949"/>
</linearGradient>
</defs>
</svg>
