<svg width="120" height="54" viewBox="0 0 120 54" fill="none" xmlns="http://www.w3.org/2000/svg">
<path d="M54.5315 46.9999V40.8325H46.2867C45.92 40.8705 45.5494 40.8288 45.2005 40.7102C44.8515 40.5915 44.5324 40.3988 44.2652 40.1453C43.8369 39.5831 43.6268 38.8852 43.6738 38.1805V7H36.3203V38.6299C36.3185 39.6675 36.4793 40.6991 36.797 41.6871C37.1214 42.6662 37.6476 43.5666 38.3419 44.3303C39.0852 45.16 40.0052 45.8133 41.0343 46.2422C42.2693 46.7557 43.5986 47.0049 44.9361 46.9735L54.5315 46.9999Z" fill="#F2F3F4"/>
<rect x="70.2383" y="47" width="6.66665" height="11.6399" transform="rotate(-90 70.2383 47)" fill="#F2F3F4"/>
<rect x="64.2188" y="47" width="6.66665" height="6.62267" transform="rotate(-90 64.2188 47)" fill="#F2F3F4"/>
<path d="M69.7397 17.5533L64.2188 16.5108C64.2188 14.3388 65.9893 9.91416 69.2139 8.17046C72.1059 6.60665 80.199 5.13943 83.1478 14.1651C84.9726 19.7505 82.3591 25.633 72.1059 33.9733C70.6383 35.6012 71.3171 35.7978 70.7913 37.1009H64.7446C64.4534 34.0457 66.8478 32.6701 74.7349 24.5905C79.2043 18.5959 78.1526 13.6438 75.2607 12.8619C71.0542 11.8193 70.0903 15.8158 69.7397 17.5533Z" fill="#F2F3F4"/>
<path d="M3.43596 24.6155L19.1752 8.02387C19.1752 8.02387 21.1518 5.72016 23.2991 8.02387C23.2991 8.02387 24.9829 9.24925 23.9336 11.4304L11.1958 25.0567C11.1958 25.0567 8.77998 26.8947 10.9029 29.1984C13.0259 31.5022 22.8355 42.1385 22.8355 42.1385C22.8355 42.1385 24.446 44.05 22.6647 45.8391C22.6647 45.8391 21.1518 48.0203 18.8336 46.4028L3.06993 29.3455C3.06993 29.3455 0.434524 27.1888 3.43596 24.6155Z" fill="#20BD9D"/>
<path d="M116.575 29.3844L100.828 45.976C100.828 45.976 98.8503 48.2797 96.7019 45.976C96.7019 45.976 95.0173 44.7506 96.0671 42.5695L108.811 28.9432C108.811 28.9432 111.228 27.1052 109.104 24.8014C106.98 22.4977 97.1657 11.8614 97.1657 11.8614C97.1657 11.8614 95.5544 9.94984 97.3366 8.16078C97.3366 8.16078 98.8503 5.97961 101.17 7.59711L116.941 24.6789C116.941 24.6789 119.553 26.8356 116.575 29.3844Z" fill="#20BD9D"/>
</svg>
