<svg width="935" height="427" viewBox="0 0 935 427" fill="none" xmlns="http://www.w3.org/2000/svg">
<path d="M600.123 426.256V334.873H425.611C425.611 321.903 495.323 285.044 520.404 270.61C578.182 237.595 605.891 193.377 605.891 138.548C605.891 61.3148 547.524 0 450.246 0C351.199 0 295.19 65.4417 295.19 140.906C295.19 150.929 296.369 161.541 297.549 168.026H401.312C399.543 160.362 398.954 151.518 398.954 145.033C398.954 112.017 418.409 90.2035 450.836 90.2035C479.135 90.2035 498.001 110.838 498.001 138.548C498.001 164.489 485.62 183.944 452.015 203.4L391.289 239.364C320.854 280.404 268.832 342.74 268.832 426.256H600.123Z" fill="#171B21"/>
<path d="M268.842 426.256V321.903H109.659V8.25391H0V426.256H268.842Z" fill="#171B21"/>
<path fill-rule="evenodd" clip-rule="evenodd" d="M790.389 48.0104L742.381 96.0188L790.39 144.028L742.379 192.039L694.37 144.029L694.369 144.028L646.359 96.0185L694.37 48.0081L694.37 48.0084L742.378 0L790.389 48.0104ZM934.422 96.0218L891.816 53.4159L891.817 53.4155L838.401 0L790.391 48.0104L838.402 96.0214L838.401 96.0218L790.391 144.032L838.402 192.042L886.412 144.032L886.412 144.032L934.422 96.0218Z" fill="#27E5BF"/>
</svg>
