<svg width="163" height="28" viewBox="0 0 163 28" fill="none" xmlns="http://www.w3.org/2000/svg">
<path d="M30.08 3.79989C29.671 2.46884 28.7167 1.404 27.4898 0.738471C26.6718 0.339154 25.8538 0.0729437 25.0359 0.0729437C23.1273 0.0729437 21.2187 1.13779 20.4007 2.86815L15.6292 11.6531L10.5851 2.73505C9.22182 0.206049 6.08629 -0.725684 3.49606 0.605365C2.13278 1.27089 1.31481 2.33573 0.905834 3.66678C0.496851 4.99784 0.633179 6.46199 1.31481 7.65996L10.4488 24.4312C10.8578 25.7622 11.812 26.8271 13.039 27.3595C15.6292 28.6906 18.7648 27.7589 20.2644 25.2298L29.8073 7.79303C30.3527 6.5951 30.489 5.13094 30.08 3.79989ZM10.7214 20.438C10.5851 20.5711 10.5851 20.8373 10.4488 20.9705L2.81442 6.86131C2.40544 6.06268 2.26911 5.13094 2.54177 4.19921C2.81442 3.40057 3.49606 2.60194 4.31403 2.20263C4.85934 1.93642 5.40465 1.80331 5.94996 1.80331C7.17691 1.80331 8.40383 2.46884 9.08551 3.66678L14.5386 13.6496L10.7214 20.438ZM28.0351 6.99441L18.4921 24.4312C17.9468 25.496 16.7199 26.2947 15.3566 26.2947C14.8113 26.2947 14.266 26.1616 13.7206 25.8954C12.0847 24.9636 11.4031 22.9671 12.221 21.2367L21.764 3.79989C22.3093 2.73505 23.5363 1.93642 24.8995 1.93642C26.3991 1.93642 27.7624 2.86815 28.3077 4.33231C28.5804 5.26405 28.5804 6.19578 28.0351 6.99441Z" fill="#8E9195"/>
<path d="M42.4856 12.0464L53.1192 24.5583H57.3453V3.39453H52.3012V16.0395L41.6676 3.39453H37.4414V24.5583H42.4856V12.0464Z" fill="#F2F3F4"/>
<path d="M73.0241 9.11757C71.661 8.45208 70.0249 8.05273 68.2527 8.05273C66.4804 8.05273 64.8445 8.45208 63.4812 9.11757C62.1179 9.78313 61.0273 10.848 60.2093 12.0459C59.3914 13.377 58.9824 14.8411 58.9824 16.4384C58.9824 18.0356 59.3914 19.4998 60.2093 20.8309C61.0273 22.1619 62.1179 23.0936 63.4812 23.7592C64.8445 24.4247 66.4804 24.824 68.2527 24.824C70.0249 24.824 71.5243 24.4247 73.0241 23.7592C74.3871 23.0936 75.4783 22.0288 76.2962 20.8309C77.114 19.4998 77.5233 18.0356 77.5233 16.4384C77.5233 14.8411 77.114 13.377 76.2962 12.0459C75.6143 10.848 74.5238 9.78313 73.0241 9.11757ZM72.4788 16.4384C72.4788 17.7694 72.0695 18.8343 71.3884 19.6329C70.5703 20.4315 69.616 20.8309 68.389 20.8309C67.1621 20.8309 66.2078 20.4315 65.3898 19.6329C64.5718 18.8343 64.1628 17.7694 64.1628 16.4384C64.1628 15.1073 64.5718 14.0425 65.3898 13.2439C66.2078 12.4452 67.1621 12.0459 68.389 12.0459C69.616 12.0459 70.5703 12.4452 71.3884 13.2439C72.0695 14.0425 72.4788 15.1073 72.4788 16.4384Z" fill="#F2F3F4"/>
<path d="M84.6121 24.5583H89.6559L98.9262 3.52764L99.0629 3.39453H93.8825L87.3383 18.3023L80.7948 3.39453H75.2051L84.6121 24.5583Z" fill="#F2F3F4"/>
<path d="M109.56 8.98476C108.196 8.3192 106.697 7.91992 105.06 7.91992C103.425 7.91992 101.925 8.3192 100.562 8.98476C99.198 9.65025 98.1075 10.7151 97.4264 12.0461C96.6078 13.3772 96.1992 14.8414 96.1992 16.3055C96.1992 17.9028 96.6078 19.367 97.4264 20.698C98.2442 22.0291 99.3347 22.9608 100.834 23.6263C102.334 24.2919 103.97 24.6911 105.878 24.6911C108.878 24.6911 111.195 23.7595 112.831 22.0291L110.105 19.2338L109.968 19.367C109.423 19.8994 108.741 20.2986 108.196 20.5649C107.515 20.8311 106.833 20.9642 105.878 20.9642C104.652 20.9642 103.561 20.698 102.743 20.1656C101.925 19.6332 101.38 18.8345 101.243 17.9028H113.785V17.7697C113.922 16.7049 113.922 16.5717 113.922 16.4386C113.922 14.7082 113.513 13.2441 112.831 11.9131C112.013 10.7151 110.923 9.78339 109.56 8.98476ZM109.15 14.9745H101.243C101.38 14.0428 101.789 13.2441 102.607 12.7117C103.288 12.1793 104.242 11.7799 105.333 11.7799C106.423 11.7799 107.242 12.0461 107.923 12.7117C108.468 13.2441 109.014 14.0428 109.15 14.9745Z" fill="#F2F3F4"/>
<path d="M125.783 12.5783V8.05273H125.646C124.42 8.05273 123.192 8.31894 122.238 8.71829C121.284 9.11757 120.602 9.64999 120.057 10.3156V8.31894H115.285V24.6909H120.33V16.9708C120.33 15.5067 120.738 14.4418 121.42 13.6431C122.238 12.9777 123.192 12.5783 124.556 12.5783C124.828 12.4452 125.101 12.4452 125.783 12.5783Z" fill="#F2F3F4"/>
<path d="M138.733 9.7842C137.506 8.58622 135.871 7.92066 133.826 7.92066C132.326 7.92066 130.826 8.32001 129.599 8.9855C128.373 9.65106 127.281 10.7159 126.6 11.9139C125.918 13.2449 125.51 14.709 125.51 16.3063C125.51 18.0367 125.918 19.5008 126.6 20.6988C127.281 22.0299 128.373 22.9616 129.599 23.6271C130.826 24.2926 132.326 24.692 133.826 24.692C136.007 24.692 137.643 24.0264 138.869 22.6953V24.4257H143.641V3.12891H138.597V9.7842H138.733ZM137.779 13.2449C138.597 14.0436 139.006 15.1084 139.006 16.4394C139.006 17.7705 138.597 18.8353 137.779 19.634C136.961 20.4326 136.007 20.8319 134.779 20.8319C133.553 20.8319 132.598 20.4326 131.781 19.634C130.963 18.8353 130.554 17.7705 130.554 16.4394C130.554 15.1084 130.963 14.0436 131.781 13.2449C132.598 12.4463 133.553 12.0469 134.779 12.0469C136.007 12.0469 136.961 12.4463 137.779 13.2449Z" fill="#F2F3F4"/>
<path d="M161.772 12.0459C160.955 10.7148 160.001 9.78313 158.637 9.11757C157.274 8.45208 155.774 8.05273 154.138 8.05273C152.503 8.05273 151.003 8.45208 149.639 9.11757C148.276 9.78313 147.186 10.848 146.504 12.179C145.686 13.5101 145.277 14.9743 145.277 16.4384C145.277 18.0356 145.686 19.4998 146.504 20.8309C147.322 22.1619 148.413 23.0936 149.913 23.7592C151.412 24.4247 153.048 24.824 154.956 24.824C157.956 24.824 160.273 23.8923 161.909 22.1619L159.182 19.3667L159.046 19.4998C158.501 20.0323 157.819 20.4315 157.274 20.6977C156.592 20.964 155.911 21.0971 154.956 21.0971C153.729 21.0971 152.639 20.8309 151.821 20.2985C151.003 19.766 150.458 18.9674 150.321 18.0356H162.864V17.9026C162.999 16.8377 162.999 16.7046 162.999 16.5715C162.864 14.8411 162.454 13.2439 161.772 12.0459ZM150.185 14.9743C150.321 14.0425 150.73 13.2439 151.548 12.7114C152.229 12.179 153.184 11.7797 154.274 11.7797C155.366 11.7797 156.183 12.0459 156.865 12.7114C157.546 13.2439 157.956 14.0425 158.228 14.9743H150.185Z" fill="#F2F3F4"/>
</svg>
