<svg width="55" height="40" viewBox="0 0 55 40" fill="none" xmlns="http://www.w3.org/2000/svg">
<path fill-rule="evenodd" clip-rule="evenodd" d="M38.3905 10.2429C36.5783 9.79667 34.6782 9.89286 32.8966 10.4495L31.8281 10.7838C31.7945 10.7943 31.759 10.7966 31.7244 10.7906C31.6898 10.7846 31.6571 10.7704 31.6289 10.7492C31.6008 10.728 31.5779 10.7004 31.5622 10.6686C31.5465 10.6368 31.5384 10.6017 31.5385 10.5662V4.23333C31.5164 1.98476 30.0041 0 27.798 0H24.9141V27.7829C24.9141 29.5057 26.2971 30.9148 27.9861 30.9148H31.6513V20.111C31.6513 17.959 33.3803 16.2238 35.491 16.2571C37.4263 16.2871 38.98 17.8952 38.98 19.8686V27.67C38.98 29.4829 40.4217 30.9524 42.2 30.9524H46.0679V20.2724C46.0679 19.5381 45.9781 18.8005 45.8089 18.0748C44.8955 14.1643 42.1944 11.1805 38.3905 10.2433" fill="#F2F3F4"/>
<mask id="mask0_1820_24254" style="mask-type:alpha" maskUnits="userSpaceOnUse" x="48" y="9" width="7" height="23">
<path d="M48.6074 9.06836H55.0006V31.1031H48.6074V9.06836Z" fill="white"/>
</mask>
<g mask="url(#mask0_1820_24254)">
<path fill-rule="evenodd" clip-rule="evenodd" d="M51.5972 9.06884C49.9458 9.06884 48.6074 10.4569 48.6074 12.1703V31.1036H52.0113C53.6618 31.1036 55.0011 29.715 55.0011 28.0017V9.06836H51.5962L51.5972 9.06884Z" fill="#F2F3F4"/>
</g>
<path fill-rule="evenodd" clip-rule="evenodd" d="M51.2468 6.66667H55V2.3619C55 2.05169 54.9397 1.74452 54.8225 1.45793C54.7053 1.17134 54.5335 0.910947 54.3169 0.691618C54.1004 0.472288 53.8433 0.298321 53.5603 0.179653C53.2774 0.0609838 52.9741 -6.24943e-05 52.6679 4.80075e-08L48.4188 4.80075e-08V3.80238C48.4188 4.17856 48.492 4.55106 48.6341 4.89861C48.7762 5.24615 48.9845 5.56193 49.2471 5.82791C49.5098 6.09388 49.8215 6.30486 50.1646 6.44877C50.5077 6.59269 50.8755 6.66673 51.2468 6.66667ZM11.1119 25.1205C8.79248 25.1205 6.91261 22.8314 6.91261 20.0076C6.91261 17.1838 8.79295 14.8948 11.1119 14.8948C13.4308 14.8948 15.3102 17.1838 15.3102 20.0076C15.3102 22.8314 13.4308 25.1205 11.1119 25.1205ZM11.0465 7.61905C4.94577 7.61905 0 13.019 0 19.68C0 19.8562 0.00376068 20.03 0.0112821 20.2038H0V40H3.87632C5.87372 40 7.49363 38.3571 7.49363 36.3295V31.1033C8.63174 31.5258 9.83443 31.7418 11.0465 31.7414C17.1487 31.741 22.094 26.341 22.094 19.679C22.094 13.019 17.1478 7.61905 11.047 7.61905" fill="#F2F3F4"/>
</svg>
