<svg width="341" height="295" viewBox="0 0 341 295" fill="none" xmlns="http://www.w3.org/2000/svg">
<path fill-rule="evenodd" clip-rule="evenodd" d="M208.375 69.4236L249.606 77.1835C252.224 64.2504 259.423 34.5043 290.836 42.2641C312.433 48.084 320.287 84.9433 286.91 129.562C273.467 143.288 262.16 154.414 252.741 163.683C220.891 195.026 210.624 205.13 212.302 222.681H257.459C258.843 219.262 259.11 216.866 259.354 214.667C259.804 210.626 260.179 207.247 267.276 199.401C303.356 170.15 326.769 144.96 340.016 122.15V246.734H257.833L253.336 246.734L208.375 246.734V294.997H136.017V250.458H74.4451C71.7066 250.741 68.9389 250.43 66.3327 249.547C63.7265 248.664 61.3437 247.23 59.3483 245.343C56.1494 241.158 54.5805 235.964 54.9313 230.718V0H267.723C258.773 1.61831 251.033 4.45946 245.679 7.34478C221.597 20.3236 208.375 53.2573 208.375 69.4236ZM297.067 0C312.717 3.08944 328.442 11.8435 339.982 30.528C339.213 13.5382 325.195 0 308.016 0H297.067ZM0.015625 31.9999L0.0157427 31.9122V234.063L0.015625 234.195V31.9999ZM0.015625 234.195C0.015625 241.874 1.2166 249.506 3.57569 256.819C5.99799 264.106 9.92801 270.808 15.1126 276.492C20.6642 282.668 27.5343 287.531 35.2197 290.723C39.8835 292.656 44.7273 294.086 49.668 294.997H32.0156C14.3425 294.997 0.015625 280.67 0.015625 262.997V234.195Z" fill="#5900CC"/>
</svg>
