<svg width="50" height="50" viewBox="0 0 50 50" fill="none" xmlns="http://www.w3.org/2000/svg">
<rect x="1" y="1" width="48" height="48" rx="23" fill="#20BD9D" stroke="#20BD9D" stroke-width="2"/>
<path d="M22.3223 14.9179C21.9318 14.5274 21.2987 14.5274 20.9081 14.9179C20.5176 15.3084 20.5176 15.9416 20.9081 16.3321L22.3223 14.9179ZM30.9902 25L31.6973 25.7071L32.4044 25L31.6973 24.2929L30.9902 25ZM20.9081 33.6679C20.5176 34.0584 20.5176 34.6916 20.9081 35.0821C21.2987 35.4726 21.9318 35.4726 22.3223 35.0821L20.9081 33.6679ZM30.2831 24.2929L20.9081 33.6679L22.3223 35.0821L31.6973 25.7071L30.2831 24.2929ZM20.9081 16.3321L25.5956 21.0196L27.0098 19.6054L22.3223 14.9179L20.9081 16.3321ZM25.5956 21.0196L30.2831 25.7071L31.6973 24.2929L27.0098 19.6054L25.5956 21.0196Z" fill="#171B21"/>
</svg>
