<svg width="168" height="168" viewBox="0 0 168 168" fill="none" xmlns="http://www.w3.org/2000/svg">
<path d="M78.488 158.17C77.1815 158.05 76.7205 157.123 76.5824 156.355L75.1753 156.804C75.4186 158 76.3049 159.367 78.3602 159.556C80.543 159.757 82.3715 158.222 82.5903 155.849C82.8046 153.522 81.325 151.619 79.0945 151.413C77.087 151.228 75.9006 152.42 75.4169 153.484L76.6865 154.18C76.9175 153.59 77.5328 152.667 78.9668 152.799C80.2095 152.914 81.2208 153.971 81.0607 155.708C80.8963 157.492 79.6988 158.281 78.488 158.17Z" fill="#F2F3F4"/>
<path d="M59.6485 148.559C60.8331 149.044 61.5057 150.357 60.8266 152.015C60.1536 153.659 58.7533 154.123 57.5688 153.638C56.3843 153.153 55.7116 151.84 56.3846 150.196C57.0637 148.538 58.464 148.074 59.6485 148.559ZM57.0595 154.881C59.1916 155.755 61.3628 154.759 62.2481 152.597C63.1394 150.421 62.29 148.188 60.1578 147.315C58.0257 146.442 55.8545 147.438 54.9632 149.614C54.078 151.776 54.9273 154.008 57.0595 154.881Z" fill="#F2F3F4"/>
<path d="M43.1436 138.636L40.0265 142.073C39.2526 142.927 38.1937 143.046 37.3877 142.315C36.5344 141.541 36.684 140.662 37.3612 139.915L40.6073 136.336L39.4932 135.326L36.3653 138.775C35.6237 139.592 34.5433 139.736 33.7492 139.016C32.9077 138.252 33.0455 137.362 33.7227 136.615L36.9687 133.036L35.8665 132.037L32.5129 135.734C31.1694 137.216 31.5178 138.785 32.5134 139.688C33.2363 140.343 34.1958 140.738 35.3996 140.34C35.0425 141.376 35.4171 142.321 36.1282 142.966C36.7919 143.568 37.7599 143.906 38.6969 143.611L38.009 144.369L39.0757 145.337L44.2458 139.636L43.1436 138.636Z" fill="#F2F3F4"/>
<path d="M23.8868 118.052C24.4849 119.184 24.1595 120.623 22.5752 121.46C21.005 122.29 19.6329 121.748 19.0348 120.617C18.4367 119.485 18.7621 118.046 20.3322 117.216C21.9166 116.379 23.2887 116.921 23.8868 118.052ZM17.8466 121.245C18.9232 123.282 21.2277 123.91 23.293 122.818C25.3724 121.719 26.1517 119.461 25.075 117.424C23.9984 115.387 21.6939 114.759 19.6145 115.858C17.5492 116.95 16.7699 119.208 17.8466 121.245Z" fill="#F2F3F4"/>
<path d="M11.4106 88.13C10.4343 88.0871 9.43815 87.2923 9.43162 86.0443C9.42451 84.6843 10.2848 83.9758 11.3886 83.922L11.4106 88.13ZM13.3874 83.6876C14.2689 83.987 14.944 84.5754 14.9506 85.8394C14.9575 87.1514 14.0025 88.1164 12.6268 88.1716L12.5965 82.3797C12.4844 82.3643 12.3083 82.3492 12.1164 82.3502C9.73238 82.3627 8.09135 83.6993 8.10373 86.0672C8.11384 88.0032 9.77094 89.7386 12.1869 89.7259C14.8109 89.7122 16.2894 87.8965 16.2786 85.8325C16.2693 84.0565 15.1747 82.7982 13.8286 82.3892L13.3874 83.6876ZM5.00205 83.4594L5.01192 85.3474L7.35516 86.7271L7.34856 85.4632L5.00205 83.4594Z" fill="#F2F3F4"/>
<path d="M12.8586 51.8203L12.2789 53.0682L13.4108 53.594C14.0347 53.8838 14.3363 54.412 13.9858 55.1666L13.8106 55.5438L15.044 56.1167L15.6641 54.7817L19.495 56.5611C20.772 57.1543 21.8268 56.7445 22.3862 55.54C22.6019 55.0757 22.6766 54.687 22.687 54.5507L21.5261 54.0115C21.5157 54.1478 21.4156 54.4012 21.3348 54.5753C21.0045 55.2864 20.5639 55.3993 19.9254 55.1027L16.2977 53.4177L16.9986 51.9085L15.7652 51.3356L15.0642 52.8448L12.8586 51.8203Z" fill="#F2F3F4"/>
<path d="M25.0767 36.4451C25.015 36.4985 24.8622 36.6432 24.7347 36.8075C24.2638 37.4142 23.8832 38.3745 24.485 39.5301L23.4232 38.7061L22.5208 39.869L28.6006 44.5874L29.5227 43.3993L26.4765 41.0352C25.1493 40.0052 25.1257 38.9134 25.9006 37.9148C26.0281 37.7505 26.1781 37.5834 26.3407 37.426L25.0767 36.4451Z" fill="#F2F3F4"/>
<path d="M37.1468 31.768C37.8875 32.7323 39.3497 32.9812 40.5932 32.0261C41.6845 31.1879 41.8452 30.1364 41.7803 29.5003C42.1214 29.9444 42.3222 30.1533 42.4773 30.2763L43.6446 29.3797C43.4896 29.2567 43.2177 28.9814 42.7986 28.4357L40.4497 25.3777C39.5433 24.1976 38.0238 23.6902 36.1966 25.0936C34.8642 26.117 34.4602 27.7185 35.2173 28.9931L36.5639 28.3824C36.107 27.6036 36.1515 26.7423 37.0017 26.0893C37.928 25.3778 38.7014 25.5705 39.1595 26.1669C39.3252 26.3826 39.3699 26.6509 39.0409 26.9843L37.5765 28.4924C36.6373 29.4761 36.2989 30.664 37.1468 31.768ZM39.9882 30.8969C39.3791 31.3648 38.6671 31.2257 38.3162 30.7689C37.8971 30.2233 38.0634 29.6517 38.5027 29.1731L40.1536 27.4612L40.368 27.7404C41.3914 29.0727 40.9653 30.1465 39.9882 30.8969Z" fill="#F2F3F4"/>
<path d="M56.4086 21.8813L56.0159 20.8324C56.7721 21.4377 57.7402 21.605 58.8191 21.2011C60.9619 20.399 61.5418 18.2514 60.7397 16.1086C59.9544 14.0107 58.2023 12.7532 56.0146 13.5721C54.8158 14.0209 54.1954 14.9194 54.092 15.6927L52.3475 11.0325L50.9539 11.5542L55.015 22.403L56.4086 21.8813ZM59.3012 16.6471C59.8845 18.2055 59.4418 19.5329 58.1381 20.0209C56.8794 20.4921 55.6195 19.8191 55.0306 18.2457C54.4472 16.6873 54.9667 15.3824 56.2254 14.9112C57.544 14.4176 58.7178 15.0887 59.3012 16.6471Z" fill="#F2F3F4"/>
<path d="M74.349 14.595C74.4236 15.8087 75.4965 16.8328 77.0615 16.7366C78.4349 16.6522 79.1563 15.8704 79.4583 15.3068C79.4927 15.8658 79.5423 16.1513 79.602 16.34L81.0712 16.2496C81.0115 16.0609 80.94 15.6806 80.8978 14.9939L80.6612 11.1452C80.5699 9.65997 79.5941 8.38946 77.2944 8.53084C75.6176 8.63394 74.3869 9.73554 74.3015 11.2156L75.7594 11.4626C75.8162 10.5614 76.3349 9.87225 77.4049 9.80647C78.5707 9.73479 79.1041 10.3272 79.1502 11.0778C79.1669 11.3493 79.0539 11.5967 78.5947 11.689L76.5372 12.1201C75.2085 12.4102 74.2636 13.2056 74.349 14.595ZM77.1916 15.4622C76.425 15.5093 75.9125 14.9958 75.8772 14.4209C75.835 13.7342 76.2925 13.3534 76.9244 13.2024L79.2503 12.7067L79.2719 13.058C79.375 14.7349 78.4212 15.3866 77.1916 15.4622Z" fill="#F2F3F4"/>
<path d="M95.7046 17.2549L97.8265 5.86686L96.3479 5.59137L94.2261 16.9794L95.7046 17.2549Z" fill="#F2F3F4"/>
<path d="M111.043 16.9206C111.56 15.908 112.472 15.3402 113.519 15.8202C114.741 16.3803 114.788 17.3524 114.341 18.3269L112.414 22.5303L113.782 23.157L115.815 18.7209C116.535 17.1501 116.267 15.584 114.58 14.8106C113.766 14.4373 112.839 14.3469 111.99 14.8553L113.984 10.5065L112.616 9.87974L107.789 20.41L109.156 21.0368L111.043 16.9206Z" fill="#F2F3F4"/>
<path d="M125.78 27.9029C124.982 28.82 125.028 30.3025 126.21 31.3321C127.248 32.2357 128.31 32.1849 128.921 31.9953C128.553 32.4176 128.388 32.6558 128.299 32.8322L129.409 33.7987C129.499 33.6224 129.715 33.3013 130.166 32.7824L132.698 29.8742C133.675 28.752 133.872 27.1621 132.134 25.6492C130.867 24.546 129.217 24.4672 128.118 25.4618L128.983 26.6608C129.656 26.0586 130.509 25.9316 131.318 26.6355C132.199 27.4025 132.163 28.1988 131.669 28.766C131.491 28.9711 131.236 29.0681 130.844 28.8116L129.076 27.6751C127.926 26.9494 126.694 26.8531 125.78 27.9029ZM127.197 30.5154C126.618 30.0111 126.613 29.2856 126.991 28.8512C127.443 28.3323 128.036 28.382 128.592 28.7178L130.597 29.9968L130.366 30.2623C129.263 31.5293 128.126 31.3244 127.197 30.5154Z" fill="#F2F3F4"/>
<path d="M147.135 42.7089C147.103 42.6338 147.012 42.444 146.895 42.2721C146.462 41.6377 145.666 40.9804 144.381 41.1981L145.491 40.4408L144.662 39.2248L138.304 43.5612L139.151 44.8037L142.337 42.631C143.725 41.6844 144.771 41.9973 145.483 43.0415C145.6 43.2133 145.713 43.4074 145.813 43.6105L147.135 42.7089Z" fill="#F2F3F4"/>
<path d="M154.657 69.4281C155.795 69.2462 156.836 69.6793 157.026 70.8642C157.238 72.1914 156.455 72.7701 155.397 72.9394L150.831 73.6693L151.068 75.1544L155.887 74.3841C157.593 74.1113 158.747 73.0195 158.455 71.1867C158.313 70.302 157.806 69.4595 156.769 69.058L157.86 68.8838L157.627 67.4302L150.028 68.6451L150.265 70.1302L154.657 69.4281Z" fill="#F2F3F4"/>
<path d="M153.779 87.7719C152.573 87.6166 151.365 88.4774 151.165 90.0326C150.989 91.3973 151.621 92.253 152.118 92.6557C151.562 92.5842 151.273 92.5792 151.076 92.6023L150.888 94.0622C151.085 94.0391 151.472 94.0406 152.154 94.1284L155.979 94.6208C157.454 94.8107 158.886 94.0916 159.18 91.8065C159.395 90.1403 158.544 88.7241 157.107 88.3616L156.59 89.7469C157.464 89.9724 158.043 90.6116 157.906 91.6748C157.757 92.8332 157.075 93.2455 156.329 93.1495C156.06 93.1148 155.838 92.9572 155.834 92.4888L155.798 90.387C155.763 89.0274 155.16 87.9496 153.779 87.7719ZM152.392 90.4003C152.49 89.6386 153.091 89.2319 153.662 89.3055C154.345 89.3933 154.632 89.9144 154.662 90.5634L154.711 92.9411L154.362 92.8962C152.695 92.6817 152.235 91.6222 152.392 90.4003Z" fill="#F2F3F4"/>
<path d="M138.493 124.179L139.709 125.009L142.73 120.581L150.884 126.145L151.768 124.85L142.398 118.456L138.493 124.179Z" fill="#F2F3F4"/>
<path d="M134.14 139.939C134.262 140.066 134.362 140.191 134.452 140.303C135.292 141.352 135.413 142.629 134.214 143.589C133.052 144.519 131.848 144.193 131.178 143.356C130.618 142.656 130.477 141.662 130.897 140.445L131.59 138.291C132.319 136.129 132.021 134.605 130.918 133.151L124.811 138.041L125.741 139.203L130.337 135.523C130.67 136.22 130.518 136.977 130.261 137.756L129.41 140.303C128.933 141.73 129.021 143.197 129.951 144.358C131.112 145.807 133.188 146.173 135.049 144.683C136.96 143.153 136.989 140.937 135.789 139.438L135.539 139.126L134.14 139.939Z" fill="#F2F3F4"/>
<path d="M104.101 148.939C103.956 148.333 103.377 147.978 102.77 148.123C102.163 148.268 101.793 148.851 101.938 149.458C102.084 150.064 102.682 150.431 103.288 150.286C103.895 150.14 104.247 149.546 104.101 148.939Z" fill="#F2F3F4"/>
</svg>
