<svg width="40" height="40" viewBox="0 0 40 40" fill="none" xmlns="http://www.w3.org/2000/svg">
<path fill-rule="evenodd" clip-rule="evenodd" d="M23.6333 26.543C23.6333 20.7887 19.016 16.1239 13.3202 16.1239C7.62441 16.1239 3.00708 20.7887 3.00708 26.543C3.00708 32.2973 7.62441 36.962 13.3202 36.962C19.016 36.962 23.6333 32.2972 23.6333 26.543ZM26.6404 26.543C26.6404 19.1108 20.6767 13.0859 13.3202 13.0859C5.96365 13.0859 -9.03808e-07 19.1108 -5.82244e-07 26.543C-2.60679e-07 33.9751 5.96365 40 13.3202 40C20.6767 40 26.6404 33.9751 26.6404 26.543Z" fill="#171B21"/>
<path fill-rule="evenodd" clip-rule="evenodd" d="M38.4138 3.7492L22.5859 20.1562L20.4325 18.0359L36.2604 1.62882C36.8399 1.02804 37.7918 1.01568 38.3865 1.6012C38.9812 2.18673 38.9934 3.14842 38.4138 3.7492Z" fill="#171B21"/>
<path fill-rule="evenodd" clip-rule="evenodd" d="M19.6172 1.51899C19.6172 0.680074 20.2903 0 21.1207 0H38.4949C39.3253 0 39.9984 0.680074 39.9984 1.51899V18.4866C39.9984 19.3255 39.3253 20.0055 38.4949 20.0055C37.6645 20.0055 36.9913 19.3255 36.9913 18.4866V3.03797H21.1207C20.2903 3.03797 19.6172 2.3579 19.6172 1.51899Z" fill="#171B21"/>
</svg>
