<svg width="40" height="40" viewBox="0 0 40 40" fill="none" xmlns="http://www.w3.org/2000/svg">
<path d="M3.15042 31.2799L19.9573 40L36.8508 31.1618L40 6.50583L19.9361 0L0 6.62304L3.15042 31.2799Z" fill="#B3B3B3"/>
<path d="M19.8887 37.9167L35.0756 29.9822L38.0105 7.93091L19.8887 2.09717V37.9167Z" fill="#A6120D"/>
<path d="M19.8885 37.9164V2.09619L2.23633 8.03576L4.9359 30.0873L19.8885 37.9164Z" fill="#DD1B16"/>
<path d="M24.8769 21.1657L19.8886 23.3677H14.631L12.1595 29.2032L7.5625 29.2836L19.8886 3.39795L24.8769 21.1657ZM24.3947 20.0571L19.9216 11.6977L16.2526 19.9132H19.8884L24.3947 20.0571Z" fill="#F2F2F2"/>
<path d="M24.085 19.9196H19.8981L19.8887 23.3624L25.6781 23.3677L28.384 29.2845L32.7826 29.3614L19.8887 3.39795L19.9217 11.6977L24.085 19.9196Z" fill="#B3B3B3"/>
</svg>
