<svg width="26" height="40" viewBox="0 0 26 40" fill="none" xmlns="http://www.w3.org/2000/svg">
<g clip-path="url(#clip0_1941_19688)">
<path d="M6.50163 39.9998C10.0889 39.9998 13.0003 37.0132 13.0003 33.3332V26.6665H6.50163C2.91435 26.6665 0.00292969 29.6532 0.00292969 33.3332C0.00292969 37.0132 2.91435 39.9998 6.50163 39.9998Z" fill="#0ACF83"/>
<path d="M0.00292969 20.0002C0.00292969 16.3202 2.91435 13.3335 6.50163 13.3335H13.0003V26.6668H6.50163C2.91435 26.6668 0.00292969 23.6802 0.00292969 20.0002Z" fill="#A259FF"/>
<path d="M0.00292969 6.66666C0.00292969 2.98667 2.91435 0 6.50163 0H13.0003V13.3333H6.50163C2.91435 13.3333 0.00292969 10.3467 0.00292969 6.66666Z" fill="#F24E1E"/>
<path d="M13 0H19.4987C23.086 0 25.9974 2.98667 25.9974 6.66666C25.9974 10.3467 23.086 13.3333 19.4987 13.3333H13V0Z" fill="#FF7262"/>
<path d="M25.9974 20.0002C25.9974 23.6802 23.086 26.6668 19.4987 26.6668C15.9114 26.6668 13 23.6802 13 20.0002C13 16.3202 15.9114 13.3335 19.4987 13.3335C23.086 13.3335 25.9974 16.3202 25.9974 20.0002Z" fill="#1ABCFE"/>
</g>
<defs>
<clipPath id="clip0_1941_19688">
<rect width="26" height="40" fill="white"/>
</clipPath>
</defs>
</svg>
