<svg width="29" height="40" viewBox="0 0 29 40" fill="none" xmlns="http://www.w3.org/2000/svg">
<g clip-path="url(#clip0_1961_20982)">
<path d="M9.35146 30.9219C9.35146 30.9219 7.85633 31.8092 10.4155 32.1095C13.5159 32.4704 15.1004 32.4186 18.517 31.7587C18.517 31.7587 19.4153 32.3335 20.6698 32.8314C13.0106 36.1814 3.33559 32.6373 9.35146 30.9219Z" fill="#5382A1"/>
<path d="M8.41532 26.5503C8.41532 26.5503 6.73838 27.8171 9.29945 28.0874C12.6114 28.4361 15.2268 28.4646 19.7526 27.5753C19.7526 27.5753 20.3786 28.2229 21.3629 28.5771C12.1025 31.3405 1.78814 28.795 8.41532 26.5503Z" fill="#5382A1"/>
<path d="M16.3052 19.1348C18.1924 21.3521 15.8093 23.3475 15.8093 23.3475C15.8093 23.3475 20.6013 20.823 18.4006 17.6617C16.3452 14.7135 14.7689 13.2487 23.302 8.19824C23.302 8.19824 9.90791 11.6122 16.3052 19.1348Z" fill="#E76F00"/>
<path d="M26.4348 34.1551C26.4348 34.1551 27.5413 35.0855 25.2163 35.8052C20.7953 37.172 6.81575 37.5847 2.93228 35.8597C1.53628 35.2399 4.15418 34.3798 4.97768 34.1993C5.8365 34.0093 6.32729 34.0447 6.32729 34.0447C4.77478 32.9286 -3.70745 36.2362 2.01873 37.1835C17.6349 39.768 30.4854 36.0197 26.4348 34.1551Z" fill="#5382A1"/>
<path d="M10.0704 22.0207C10.0704 22.0207 2.95946 23.7443 7.55222 24.3702C9.49142 24.6352 13.3572 24.5752 16.958 24.2673C19.9008 24.014 22.8558 23.4754 22.8558 23.4754C22.8558 23.4754 21.8181 23.9289 21.0674 24.452C13.8464 26.3901 -0.103254 25.4885 3.91266 23.506C7.30893 21.8306 10.0704 22.0207 10.0704 22.0207Z" fill="#5382A1"/>
<path d="M22.8262 29.2976C30.1667 25.4049 26.7728 21.664 24.4038 22.168C23.8232 22.2913 23.5643 22.3982 23.5643 22.3982C23.5643 22.3982 23.7799 22.0536 24.1916 21.9045C28.8781 20.223 32.4823 26.8637 22.6787 29.4938C22.6787 29.4939 22.7923 29.3903 22.8262 29.2976Z" fill="#5382A1"/>
<path d="M18.4006 0.0429688C18.4006 0.0429688 22.4658 4.1931 14.5448 10.5748C8.19298 15.6941 13.0964 18.6129 14.5422 21.9479C10.8345 18.5339 8.11358 15.5287 9.93899 12.7316C12.6183 8.62584 20.0408 6.6352 18.4006 0.0429688Z" fill="#E76F00"/>
<path d="M10.7912 39.8458C17.8371 40.306 28.657 39.5904 28.9132 36.188C28.9132 36.188 28.4206 37.4778 23.0901 38.5021C17.0763 39.6571 9.65901 39.5223 5.25977 38.782C5.25987 38.7819 6.16035 39.5427 10.7912 39.8458Z" fill="#5382A1"/>
</g>
<defs>
<clipPath id="clip0_1961_20982">
<rect width="29" height="40" fill="white"/>
</clipPath>
</defs>
</svg>
