<svg width="40" height="40" viewBox="0 0 40 40" fill="none" xmlns="http://www.w3.org/2000/svg">
<g clip-path="url(#clip0_1961_20985)">
<path d="M40 0H0V40H40V0Z" fill="#512BD4"/>
<path d="M7.12951 25.5555C6.84669 25.5555 6.60628 25.4613 6.4083 25.2728C6.21032 25.0795 6.11133 24.8499 6.11133 24.5841C6.11133 24.3134 6.21032 24.0815 6.4083 23.8881C6.60628 23.6948 6.84669 23.5981 7.12951 23.5981C7.41706 23.5981 7.65982 23.6948 7.8578 23.8881C8.06049 24.0815 8.16185 24.3134 8.16185 24.5841C8.16185 24.8499 8.06049 25.0795 7.8578 25.2728C7.65982 25.4613 7.41706 25.5555 7.12951 25.5555Z" fill="white"/>
<path d="M18.435 25.3961H16.5966L11.7531 17.7549C11.6306 17.5616 11.5292 17.361 11.4491 17.1532H11.4067C11.4444 17.3755 11.4632 17.8516 11.4632 18.5813V25.3961H9.83691V15H11.7955L16.4764 22.4599C16.6744 22.7693 16.8017 22.9819 16.8582 23.0979H16.8865C16.8394 22.8225 16.8158 22.3561 16.8158 21.6987V15H18.435V25.3961Z" fill="white"/>
<path d="M26.355 25.3961H20.6631V15H26.1288V16.4645H22.346V19.4078H25.8319V20.865H22.346V23.9389H26.355V25.3961Z" fill="white"/>
<path d="M34.4445 16.4645H31.5313V25.3961H29.8484V16.4645H26.9424V15H34.4445V16.4645Z" fill="white"/>
</g>
<defs>
<clipPath id="clip0_1961_20985">
<rect width="40" height="40" fill="white"/>
</clipPath>
</defs>
</svg>
