<svg width="65" height="40" viewBox="0 0 65 40" fill="none" xmlns="http://www.w3.org/2000/svg">
<g clip-path="url(#clip0_1961_20980)">
<path d="M32.118 40.0001C31.8976 40.0001 31.6919 39.941 31.5009 39.8377L29.5468 38.6712C29.253 38.5088 29.3999 38.4497 29.488 38.4202C29.8847 38.2873 29.9582 38.2577 30.3696 38.0215C30.4137 37.992 30.4724 38.0067 30.5165 38.0363L32.0152 38.937C32.0739 38.9665 32.1474 38.9665 32.1915 38.937L38.0538 35.5261C38.1126 35.4966 38.142 35.4375 38.142 35.3637V28.5567C38.142 28.4829 38.1126 28.4239 38.0538 28.3943L32.1915 24.9982C32.1327 24.9687 32.0592 24.9687 32.0152 24.9982L26.1528 28.3943C26.094 28.4239 26.0647 28.4977 26.0647 28.5567V35.3637C26.0647 35.4227 26.094 35.4966 26.1528 35.5261L27.7543 36.4563C28.6212 36.8993 29.1648 36.3825 29.1648 35.8657V29.1474C29.1648 29.0588 29.2383 28.9702 29.3411 28.9702H30.0904C30.1786 28.9702 30.2667 29.044 30.2667 29.1474V35.8657C30.2667 37.0322 29.635 37.7114 28.533 37.7114C28.1951 37.7114 27.9306 37.7114 27.1813 37.3423L25.6386 36.4563C25.2566 36.2349 25.0215 35.8214 25.0215 35.3785V28.5715C25.0215 28.1285 25.2566 27.7151 25.6386 27.4936L31.5009 24.0828C31.8682 23.8761 32.3678 23.8761 32.7351 24.0828L38.5974 27.4936C38.9794 27.7151 39.2145 28.1285 39.2145 28.5715V35.3785C39.2145 35.8214 38.9794 36.2349 38.5974 36.4563L32.7351 39.8672C32.5588 39.941 32.3384 40.0001 32.118 40.0001Z" fill="#5FA04D"/>
<path d="M33.94 35.3191C31.3688 35.3191 30.8398 34.1379 30.8398 33.1338C30.8398 33.0452 30.9133 32.9566 31.0162 32.9566H31.7802C31.8683 32.9566 31.9418 33.0157 31.9418 33.1043C32.0593 33.8868 32.3973 34.2708 33.9547 34.2708C35.1889 34.2708 35.7178 33.9902 35.7178 33.3258C35.7178 32.9418 35.5709 32.6613 33.6461 32.4693C32.0446 32.3069 31.0455 31.9526 31.0455 30.6679C31.0455 29.4719 32.0446 28.7632 33.7196 28.7632C35.6002 28.7632 36.5259 29.4129 36.6434 30.8304C36.6434 30.8747 36.6287 30.919 36.5993 30.9633C36.57 30.9928 36.5259 31.0223 36.4818 31.0223H35.7031C35.6296 31.0223 35.5562 30.9633 35.5415 30.8894C35.3652 30.0773 34.9097 29.8115 33.7049 29.8115C32.3532 29.8115 32.1916 30.284 32.1916 30.6384C32.1916 31.0666 32.3826 31.1995 34.2045 31.4358C36.0116 31.672 36.8638 32.0116 36.8638 33.2815C36.8638 34.5808 35.7913 35.3191 33.94 35.3191Z" fill="#5FA04D"/>
<path d="M42.4033 28.1726C42.4033 28.7928 41.889 29.3095 41.272 29.3095C40.6549 29.3095 40.1406 28.8075 40.1406 28.1726C40.1406 27.5229 40.6696 27.0356 41.272 27.0356C41.8744 27.0356 42.4033 27.5377 42.4033 28.1726ZM40.3169 28.1726C40.3169 28.7042 40.743 29.1324 41.2573 29.1324C41.7862 29.1324 42.2123 28.6894 42.2123 28.1726C42.2123 27.641 41.7862 27.2276 41.2573 27.2276C40.7577 27.2276 40.3169 27.641 40.3169 28.1726ZM40.8459 27.5377H41.2866C41.4336 27.5377 41.7274 27.5377 41.7274 27.8773C41.7274 28.1135 41.5805 28.1578 41.4923 28.1874C41.6687 28.2021 41.6833 28.3202 41.698 28.4827C41.7127 28.586 41.7274 28.7632 41.7568 28.8223H41.4923C41.4923 28.7632 41.4483 28.4384 41.4483 28.4236C41.4336 28.3498 41.4042 28.3203 41.316 28.3203H41.0956V28.837H40.8459V27.5377ZM41.081 28.0988H41.272C41.4336 28.0988 41.463 27.9806 41.463 27.9216C41.463 27.7444 41.3454 27.7444 41.272 27.7444H41.0663V28.0988H41.081Z" fill="#5FA04D"/>
<path fill-rule="evenodd" clip-rule="evenodd" d="M13.9433 13.3775C13.9433 13.1117 13.7963 12.8607 13.5613 12.7278L7.34629 9.1102C7.24344 9.05113 7.1259 9.0216 7.00836 9.00684C6.99367 9.00684 6.94959 9.00684 6.94959 9.00684C6.83205 9.00684 6.71451 9.05113 6.61166 9.1102L0.382007 12.713C0.146926 12.8459 0 13.0969 0 13.3775L0.0146926 23.0637C0.0146926 23.1966 0.0881555 23.3295 0.205696 23.3885C0.323237 23.4624 0.470163 23.4624 0.573011 23.3885L4.27554 21.2623C4.51062 21.1294 4.65755 20.8784 4.65755 20.6126V16.0796C4.65755 15.8138 4.80448 15.5628 5.03956 15.4299L6.61166 14.5144C6.7292 14.4406 6.86144 14.411 6.99367 14.411C7.1259 14.411 7.25814 14.4406 7.36098 14.5144L8.93309 15.4299C9.16817 15.5628 9.3151 15.8138 9.3151 16.0796V20.6126C9.3151 20.8784 9.46202 21.1294 9.69711 21.2623L13.3703 23.3885C13.4878 23.4624 13.6347 23.4624 13.7523 23.3885C13.8698 23.3295 13.9433 23.1966 13.9433 23.0637V13.3775Z" fill="#2E3339"/>
<path fill-rule="evenodd" clip-rule="evenodd" d="M43.8871 0.0442968C43.7696 -0.0147656 43.6226 -0.0147656 43.5198 0.0442968C43.4022 0.118125 43.3288 0.23625 43.3288 0.36914V9.96678C43.3288 10.0554 43.2847 10.144 43.1965 10.203C43.1084 10.2473 43.0202 10.2473 42.9321 10.203L41.3747 9.30233C41.1396 9.16944 40.8604 9.16944 40.6253 9.30233L34.3957 12.9199C34.1606 13.0528 34.0137 13.3038 34.0137 13.5696V20.79C34.0137 21.0557 34.1606 21.3068 34.3957 21.4396L40.6253 25.0572C40.8604 25.1901 41.1396 25.1901 41.3747 25.0572L47.6043 21.4396C47.8394 21.3068 47.9863 21.0557 47.9863 20.79V2.7907C47.9863 2.51015 47.8394 2.25914 47.6043 2.12625L43.8871 0.0442968ZM43.3141 18.4127C43.3141 18.4865 43.2847 18.5456 43.2259 18.5751L41.0955 19.8154C41.0367 19.845 40.9633 19.845 40.9045 19.8154L38.7741 18.5751C38.7153 18.5456 38.6859 18.4718 38.6859 18.4127V15.9321C38.6859 15.8583 38.7153 15.7992 38.7741 15.7697L40.9045 14.5293C40.9633 14.4998 41.0367 14.4998 41.0955 14.5293L43.2259 15.7697C43.2847 15.7992 43.3141 15.873 43.3141 15.9321V18.4127Z" fill="#2E3339"/>
<path fill-rule="evenodd" clip-rule="evenodd" d="M64.6179 15.8727C64.8529 15.7398 64.9852 15.4888 64.9852 15.223V13.4659C64.9852 13.2001 64.8382 12.9491 64.6179 12.8162L58.4323 9.21344C58.1972 9.08055 57.918 9.08055 57.683 9.21344L51.4533 12.831C51.2182 12.9639 51.0713 13.2149 51.0713 13.4807V20.7011C51.0713 20.9668 51.2182 21.2179 51.4533 21.3508L57.6389 24.8945C57.874 25.0274 58.1531 25.0274 58.3735 24.8945L62.1201 22.7978C62.2377 22.7387 62.3111 22.6058 62.3111 22.4729C62.3111 22.34 62.2377 22.2072 62.1201 22.1481L55.8611 18.5305C55.7435 18.4567 55.6701 18.3386 55.6701 18.2057V15.9465C55.6701 15.8137 55.7435 15.6808 55.8611 15.6217L57.8152 14.4995C57.9327 14.4257 58.0797 14.4257 58.1972 14.4995L60.1513 15.6217C60.2689 15.6955 60.3423 15.8137 60.3423 15.9465V17.7184C60.3423 17.8513 60.4158 17.9842 60.5333 18.0433C60.6509 18.1171 60.7978 18.1171 60.9153 18.0433L64.6179 15.8727Z" fill="#2E3339"/>
<path fill-rule="evenodd" clip-rule="evenodd" d="M57.9628 15.5329C58.0069 15.5034 58.0656 15.5034 58.1097 15.5329L59.2998 16.2269C59.3439 16.2564 59.3733 16.3007 59.3733 16.3598V17.7477C59.3733 17.8068 59.3439 17.8511 59.2998 17.8806L58.1097 18.5746C58.0656 18.6041 58.0069 18.6041 57.9628 18.5746L56.7727 17.8806C56.7286 17.8511 56.6992 17.8068 56.6992 17.7477V16.3598C56.6992 16.3007 56.7286 16.2564 56.7727 16.2269L57.9628 15.5329Z" fill="#5FA04D"/>
<path d="M24.3598 9.24322C24.1248 9.11033 23.8456 9.11033 23.6105 9.24322L17.4249 12.8313C17.1899 12.9642 17.0576 13.2152 17.0576 13.4809V20.6718C17.0576 20.9376 17.2045 21.1886 17.4249 21.3215L23.6105 24.9095C23.8456 25.0424 24.1248 25.0424 24.3598 24.9095L30.5454 21.3215C30.7805 21.1886 30.9127 20.9376 30.9127 20.6718V13.4809C30.9127 13.2152 30.7658 12.9642 30.5454 12.8313L24.3598 9.24322Z" fill="url(#paint0_linear_1961_20980)"/>
<path d="M30.5607 12.8313L24.3457 9.24326C24.2869 9.21373 24.2135 9.1842 24.1547 9.16943L17.1904 21.1443C17.2492 21.2182 17.3227 21.2772 17.3961 21.3215L23.6111 24.9096C23.7874 25.0129 23.9931 25.0424 24.1841 24.9834L30.7223 12.9642C30.6782 12.9051 30.6195 12.8608 30.5607 12.8313Z" fill="url(#paint1_linear_1961_20980)"/>
<path d="M23.405 7.9292L23.3164 7.9735H23.4345L23.405 7.9292Z" fill="url(#paint2_linear_1961_20980)"/>
<path d="M30.56 21.3214C30.7363 21.218 30.8685 21.0409 30.9273 20.8489L24.1246 9.15455C23.9483 9.12502 23.7573 9.13978 23.5957 9.24314L17.4248 12.8164L24.0805 25.0128C24.1687 24.998 24.2716 24.9685 24.3597 24.9242L30.56 21.3214Z" fill="url(#paint3_linear_1961_20980)"/>
<path d="M31.1478 21.2037L31.1035 21.1299V21.2332L31.1478 21.2037Z" fill="url(#paint4_linear_1961_20980)"/>
<path d="M30.5595 21.3217L24.3592 24.9098C24.2711 24.9541 24.1829 24.9836 24.0801 24.9984L24.227 25.2199L31.1325 21.2184V21.1298L30.9415 20.8345C30.8974 21.0412 30.7505 21.2184 30.5595 21.3217Z" fill="url(#paint5_linear_1961_20980)"/>
<path d="M30.5595 21.3217L24.3592 24.9098C24.2711 24.9541 24.1829 24.9836 24.0801 24.9984L24.227 25.2199L31.1325 21.2184V21.1298L30.9415 20.8345C30.8974 21.0412 30.7505 21.2184 30.5595 21.3217Z" fill="url(#paint6_linear_1961_20980)"/>
</g>
<defs>
<linearGradient id="paint0_linear_1961_20980" x1="2516.46" y1="1289.46" x2="1864.24" y2="2451.39" gradientUnits="userSpaceOnUse">
<stop stop-color="#42813B"/>
<stop offset="0.2649" stop-color="#45853D"/>
<stop offset="0.5119" stop-color="#509043"/>
<stop offset="0.7518" stop-color="#62A34E"/>
<stop offset="0.986" stop-color="#7ABD5D"/>
<stop offset="1" stop-color="#7CBF5E"/>
</linearGradient>
<linearGradient id="paint1_linear_1961_20980" x1="2139.69" y1="1931.63" x2="3737.67" y2="923.256" gradientUnits="userSpaceOnUse">
<stop offset="0.0649129" stop-color="#42813B"/>
<stop offset="0.2414" stop-color="#569747"/>
<stop offset="0.479" stop-color="#6BAD54"/>
<stop offset="0.7058" stop-color="#78BA5B"/>
<stop offset="0.9081" stop-color="#7CBF5E"/>
</linearGradient>
<linearGradient id="paint2_linear_1961_20980" x1="36.8498" y1="10.3132" x2="48.3584" y2="10.3132" gradientUnits="userSpaceOnUse">
<stop offset="0.0919165" stop-color="#6CC04A"/>
<stop offset="0.2864" stop-color="#66B848"/>
<stop offset="0.5968" stop-color="#54A044"/>
<stop offset="0.8624" stop-color="#41873F"/>
</linearGradient>
<linearGradient id="paint3_linear_1961_20980" x1="1564.22" y1="1844.46" x2="2879.59" y2="1844.46" gradientUnits="userSpaceOnUse">
<stop offset="0.0919165" stop-color="#7CBF5E"/>
<stop offset="0.2724" stop-color="#77BA5B"/>
<stop offset="0.4875" stop-color="#6AAB53"/>
<stop offset="0.7193" stop-color="#539445"/>
<stop offset="0.8624" stop-color="#42813B"/>
</linearGradient>
<linearGradient id="paint4_linear_1961_20980" x1="36.1786" y1="35.9568" x2="40.4944" y2="35.9568" gradientUnits="userSpaceOnUse">
<stop offset="0.0919165" stop-color="#6CC04A"/>
<stop offset="0.2864" stop-color="#66B848"/>
<stop offset="0.5968" stop-color="#54A044"/>
<stop offset="0.8624" stop-color="#41873F"/>
</linearGradient>
<linearGradient id="paint5_linear_1961_20980" x1="829.737" y1="705.019" x2="1521.19" y2="705.019" gradientUnits="userSpaceOnUse">
<stop offset="0.0919165" stop-color="#6CC04A"/>
<stop offset="0.2864" stop-color="#66B848"/>
<stop offset="0.5968" stop-color="#54A044"/>
<stop offset="0.8624" stop-color="#41873F"/>
</linearGradient>
<linearGradient id="paint6_linear_1961_20980" x1="1620.18" y1="364.628" x2="1434.25" y2="974.601" gradientUnits="userSpaceOnUse">
<stop stop-color="#41873F"/>
<stop offset="0.3288" stop-color="#418B3D"/>
<stop offset="0.6352" stop-color="#419637"/>
<stop offset="0.9319" stop-color="#3FA92D"/>
<stop offset="1" stop-color="#3FAE2A"/>
</linearGradient>
<clipPath id="clip0_1961_20980">
<rect width="65" height="40" fill="white"/>
</clipPath>
</defs>
</svg>
