<svg width="74" height="40" viewBox="0 0 74 40" fill="none" xmlns="http://www.w3.org/2000/svg">
<path d="M37.0011 37.5498C56.0849 37.5498 71.5558 29.6925 71.5558 20C71.5558 10.3077 56.0849 2.45026 37.0011 2.45026C17.9172 2.45026 2.44629 10.3077 2.44629 20C2.44629 29.6925 17.9172 37.5498 37.0011 37.5498Z" fill="#777BB3"/>
<path d="M20.5765 22.176C22.1457 22.176 23.3172 21.8859 24.0584 21.3143C24.7917 20.7484 25.2982 19.7681 25.5636 18.4007C25.8111 17.1225 25.7168 16.23 25.2835 15.7484C24.8403 15.2565 23.8823 15.007 22.436 15.007H19.9283L18.5381 22.176H20.5765ZM12.3745 31.0068C12.258 31.0068 12.1475 30.9547 12.0735 30.8645C11.9994 30.7744 11.9693 30.6558 11.9916 30.5412L15.6759 11.5433C15.7116 11.3597 15.8722 11.227 16.059 11.227H23.9998C26.4954 11.227 28.3529 11.9061 29.5205 13.2456C30.6943 14.5922 31.0568 16.4745 30.5978 18.8402C30.411 19.8039 30.0898 20.699 29.643 21.5004C29.1957 22.3027 28.6046 23.045 27.8857 23.7071C27.0252 24.5142 26.0513 25.0995 24.9937 25.4438C23.9528 25.7837 22.616 25.956 21.0206 25.956H17.8052L16.8869 30.6904C16.8513 30.8741 16.6908 31.0068 16.504 31.0068H12.3745Z" fill="black"/>
<path d="M20.2515 15.3981H22.4376C24.1831 15.3981 24.7895 15.782 24.9955 16.0107C25.3373 16.3906 25.4018 17.1914 25.1821 18.3266C24.9353 19.5974 24.4777 20.4985 23.8219 21.0045C23.1506 21.5225 22.0591 21.785 20.5781 21.785H19.0129L20.2515 15.3981ZM24.0013 10.836H16.0604C15.6868 10.836 15.3657 11.1014 15.2944 11.4689L11.6101 30.4668C11.5656 30.696 11.6257 30.9331 11.7738 31.1134C11.9221 31.2937 12.1429 31.3979 12.376 31.3979H16.5054C16.8791 31.3979 17.2002 31.1326 17.2715 30.7651L18.1284 26.3471H21.0221C22.6585 26.3471 24.0361 26.1682 25.1163 25.8157C26.2272 25.454 27.2492 24.8407 28.1538 23.9929C28.9019 23.3031 29.5181 22.5289 29.985 21.6914C30.4521 20.8537 30.7876 19.9195 30.9823 18.9148C31.4655 16.4247 31.073 14.4307 29.8158 12.9886C28.5709 11.5602 26.6145 10.836 24.0013 10.836ZM18.0662 22.5671H20.5781C22.243 22.5671 23.4831 22.2528 24.298 21.6242C25.1129 20.9954 25.6626 19.946 25.9482 18.4754C26.2214 17.0635 26.097 16.0672 25.5748 15.4867C25.0519 14.9063 24.0064 14.616 22.4376 14.616H19.6082L18.0662 22.5671ZM24.0013 11.6181C26.3901 11.6181 28.1328 12.2464 29.2282 13.503C30.3235 14.7597 30.6533 16.5137 30.2163 18.7657C30.0364 19.6934 29.7322 20.5415 29.3039 21.3099C28.8751 22.0788 28.3152 22.7819 27.6232 23.4194C26.7987 24.1927 25.8826 24.7438 24.8747 25.072C23.8667 25.4012 22.5828 25.565 21.0221 25.565H17.4849L16.5054 30.6159H12.376L16.0604 11.6181H24.0013Z" fill="white"/>
<path d="M40.067 25.9561C39.9504 25.9561 39.84 25.9039 39.766 25.8137C39.6917 25.7236 39.6617 25.6052 39.6839 25.4905L41.3137 17.0846C41.4688 16.2852 41.4305 15.7115 41.2062 15.469C41.0688 15.3208 40.6563 15.0722 39.4364 15.0722H36.4838L34.4346 25.6396C34.399 25.8234 34.2384 25.9561 34.0516 25.9561H29.9547C29.8381 25.9561 29.7277 25.9039 29.6536 25.8137C29.5794 25.7236 29.5494 25.605 29.5716 25.4905L33.256 6.49255C33.2917 6.30889 33.4523 6.1762 33.639 6.1762H37.736C37.8525 6.1762 37.9629 6.22834 38.0371 6.31841C38.1112 6.4086 38.1413 6.52709 38.119 6.64179L37.2299 11.2271H40.4063C42.8261 11.2271 44.4669 11.6546 45.4226 12.5342C46.3968 13.4315 46.7008 14.8662 46.3262 16.7989L44.612 25.6396C44.5763 25.8234 44.4158 25.9561 44.2289 25.9561H40.067Z" fill="black"/>
<path d="M37.7356 5.78525H33.6386C33.265 5.78525 32.9438 6.05063 32.8726 6.41808L29.1882 25.416C29.1437 25.6453 29.2038 25.8824 29.3521 26.0626C29.5003 26.2429 29.7212 26.3472 29.9542 26.3472H34.0512C34.4247 26.3472 34.746 26.0818 34.8173 25.7143L36.805 15.4634H39.436C40.6538 15.4634 40.9093 15.7241 40.9196 15.7353C40.9935 15.8149 41.0906 16.1838 40.9303 17.0102L39.3005 25.416C39.256 25.6453 39.3161 25.8824 39.4644 26.0626C39.6126 26.2429 39.8335 26.3472 40.0665 26.3472H44.2285C44.602 26.3472 44.9233 26.0818 44.9946 25.7143L46.7087 16.8737C47.1109 14.7985 46.7668 13.2418 45.6862 12.2465C44.6551 11.2974 42.9279 10.8361 40.4059 10.8361H37.7027L38.5016 6.71657C38.546 6.48729 38.486 6.25006 38.3378 6.06993C38.1895 5.88966 37.9686 5.78525 37.7356 5.78525ZM37.7356 6.56732L36.7561 11.6182H40.4059C42.7024 11.6182 44.2864 12.0199 45.1582 12.8223C46.03 13.6252 46.2912 14.9262 45.9427 16.7246L44.2285 25.5651H40.0665L41.6963 17.1594C41.8818 16.2032 41.8137 15.551 41.4916 15.2032C41.1695 14.8554 40.4842 14.6813 39.436 14.6813H36.1616L34.0512 25.5651H29.9542L33.6386 6.56732H37.7356Z" fill="white"/>
<path d="M52.8089 22.176C54.3781 22.176 55.5496 21.8859 56.2908 21.3143C57.0241 20.7486 57.5306 19.7682 57.7961 18.4007C58.0437 17.1225 57.9494 16.23 57.5159 15.7484C57.0727 15.2565 56.1147 15.007 54.6684 15.007H52.1607L50.7705 22.176H52.8089ZM44.607 31.0068C44.4906 31.0068 44.38 30.9547 44.306 30.8645C44.2319 30.7744 44.2017 30.6558 44.224 30.5412L47.9083 11.5433C47.9441 11.3597 48.1046 11.227 48.2915 11.227H56.2322C58.7279 11.227 60.5853 11.9061 61.753 13.2456C62.9268 14.5921 63.2892 16.4744 62.8303 18.8402C62.6433 19.8039 62.3222 20.699 61.8754 21.5004C61.4281 22.3027 60.837 23.045 60.1181 23.7071C59.2576 24.5142 58.2837 25.0995 57.2261 25.4438C56.1852 25.7837 54.8484 25.956 53.253 25.956H50.0375L49.1196 30.6904C49.0838 30.8741 48.9233 31.0068 48.7364 31.0068H44.607Z" fill="black"/>
<path d="M52.4818 15.3981H54.6679C56.4134 15.3981 57.0198 15.782 57.2258 16.0107C57.5677 16.3905 57.6323 17.1914 57.4125 18.3264C57.1656 19.5974 56.7079 20.4985 56.0523 21.0045C55.3809 21.5225 54.2894 21.785 52.8084 21.785H51.2434L52.4818 15.3981ZM56.2316 10.836H48.2908C47.9173 10.836 47.5962 11.1014 47.5249 11.4689L43.8405 30.4668C43.796 30.696 43.8561 30.9331 44.0043 31.1134C44.1525 31.2937 44.3734 31.3979 44.6065 31.3979H48.7359C49.1094 31.3979 49.4307 31.1326 49.502 30.7651L50.3587 26.3471H53.2524C54.8889 26.3471 56.2665 26.1682 57.3466 25.8157C58.4575 25.454 59.4798 24.8406 60.3844 23.9927C61.1325 23.303 61.7484 22.5289 62.2154 21.6914C62.6824 20.8537 63.018 19.9195 63.2127 18.9148C63.6959 16.4246 63.3033 14.4306 62.0462 12.9884C60.8012 11.5602 58.8449 10.836 56.2316 10.836ZM50.2967 22.5671H52.8084C54.4733 22.5671 55.7135 22.2528 56.5283 21.6242C57.3434 20.9954 57.8929 19.946 58.1785 18.4754C58.4519 17.0635 58.3274 16.0672 57.8051 15.4867C57.2823 14.9063 56.2367 14.616 54.6679 14.616H51.8385L50.2967 22.5671ZM56.2316 11.6181C58.6205 11.6181 60.3632 12.2464 61.4585 13.503C62.5539 14.7597 62.8836 16.5137 62.4466 18.7657C62.2667 19.6934 61.9625 20.5415 61.5342 21.3099C61.1054 22.0788 60.5455 22.7819 59.8536 23.4194C59.029 24.1927 58.113 24.7438 57.105 25.072C56.097 25.4012 54.8132 25.565 53.2524 25.565H49.7153L48.7359 30.6159H44.6065L48.2908 11.6181H56.2316Z" fill="white"/>
</svg>
