<svg width="36" height="40" viewBox="0 0 36 40" fill="none" xmlns="http://www.w3.org/2000/svg">
<path d="M17.7861 0.000273048C16.3016 0.0065992 14.884 0.122712 13.6366 0.325145C9.96199 0.920535 9.29482 2.16674 9.29482 4.46494V7.50018H17.9783V8.51192H9.29482H6.03597C3.5123 8.51192 1.3025 9.90311 0.611299 12.5496C-0.185988 15.5831 -0.221353 17.4761 0.611299 20.6436C1.22856 23.0013 2.70265 24.6813 5.22632 24.6813H8.21191V21.0427C8.21191 18.4141 10.6918 16.0954 13.6366 16.0954H22.31C24.7244 16.0954 26.6518 14.2722 26.6518 12.0484V4.46494C26.6518 2.30665 24.6665 0.685355 22.31 0.325145C20.8183 0.0974079 19.2705 -0.0060531 17.7861 0.000273048ZM13.0901 2.44146C13.987 2.44146 14.7195 3.12421 14.7195 3.96371C14.7195 4.80024 13.987 5.47669 13.0901 5.47669C12.1899 5.47669 11.4606 4.80024 11.4606 3.96371C11.4606 3.12421 12.1899 2.44146 13.0901 2.44146Z" fill="url(#paint0_linear_1961_20979)"/>
<path d="M27.7338 8.51221V12.0487C27.7338 14.7904 25.1993 17.0981 22.3091 17.0981H13.6357C11.2599 17.0981 9.29395 18.963 9.29395 21.1451V28.7285C9.29395 30.8868 11.3403 32.1563 13.6357 32.7755C16.3844 33.5168 19.0203 33.6507 22.3091 32.7755C24.4952 32.195 26.6509 31.0267 26.6509 28.7285V25.6933H17.9775V24.6816H26.6509H30.9926C33.5163 24.6816 34.4567 23.0671 35.3344 20.6439C36.241 18.1492 36.2024 15.7501 35.3344 12.5499C34.7107 10.2457 33.5195 8.51221 30.9926 8.51221H27.7338ZM22.8556 27.7168C23.7558 27.7168 24.4851 28.3932 24.4851 29.2298C24.4851 30.0693 23.7558 30.752 22.8556 30.752C21.9587 30.752 21.2262 30.0693 21.2262 29.2298C21.2262 28.3932 21.9587 27.7168 22.8556 27.7168Z" fill="url(#paint1_linear_1961_20979)"/>
<path opacity="0.44382" d="M29.7127 37.9303C29.7127 38.2021 29.4118 38.4712 28.827 38.7223C28.2422 38.9733 27.385 39.2015 26.3045 39.3937C25.2239 39.5858 23.9411 39.7383 22.5292 39.8423C21.1174 39.9463 19.6042 39.9998 18.0761 39.9998C16.548 39.9998 15.0348 39.9463 13.6229 39.8423C12.2111 39.7383 10.9283 39.5858 9.84775 39.3937C8.76719 39.2015 7.91004 38.9733 7.32524 38.7223C6.74044 38.4712 6.43945 38.2021 6.43945 37.9303C6.43945 37.6585 6.74044 37.3894 7.32524 37.1384C7.91004 36.8873 8.76719 36.6591 9.84775 36.467C10.9283 36.2748 12.2111 36.1224 13.6229 36.0184C15.0348 35.9144 16.548 35.8608 18.0761 35.8608C19.6042 35.8608 21.1174 35.9144 22.5292 36.0184C23.9411 36.1224 25.2239 36.2748 26.3045 36.467C27.385 36.6591 28.2422 36.8873 28.827 37.1384C29.4118 37.3894 29.7127 37.6585 29.7127 37.9303Z" fill="url(#paint2_radial_1961_20979)"/>
<defs>
<linearGradient id="paint0_linear_1961_20979" x1="2.83418e-08" y1="2.25797e-08" x2="18.5496" y2="17.2349" gradientUnits="userSpaceOnUse">
<stop stop-color="#5A9FD4"/>
<stop offset="1" stop-color="#306998"/>
</linearGradient>
<linearGradient id="paint1_linear_1961_20979" x1="22.6469" y1="28.9746" x2="16.2623" y2="19.2195" gradientUnits="userSpaceOnUse">
<stop stop-color="#FFD43B"/>
<stop offset="1" stop-color="#FFE873"/>
</linearGradient>
<radialGradient id="paint2_radial_1961_20979" cx="0" cy="0" r="1" gradientUnits="userSpaceOnUse" gradientTransform="translate(18.0761 37.9303) rotate(-90) scale(2.06948 9.91802)">
<stop stop-color="#B8B8B8" stop-opacity="0.498039"/>
<stop offset="1" stop-color="#7F7F7F" stop-opacity="0"/>
</radialGradient>
</defs>
</svg>
