<svg width="40" height="40" viewBox="0 0 40 40" fill="none" xmlns="http://www.w3.org/2000/svg">
<g clip-path="url(#clip0_5328_33754)">
<path d="M27.7158 27.4583C29.1919 27.3055 30.3117 26.033 30.2608 24.5058C30.21 22.9787 28.9373 21.757 27.4103 21.757H27.3086C25.7305 21.808 24.5089 23.1314 24.5598 24.7094C24.6108 25.473 24.9161 26.1347 25.3742 26.5928C23.6436 30.0034 20.9967 32.4977 17.0264 34.5847C14.3286 36.01 11.5291 36.5191 8.72953 36.1628C6.4389 35.8573 4.65734 34.8394 3.53734 33.1594C1.90859 30.6652 1.75594 27.9672 3.13031 25.2694C4.0975 23.335 5.62437 21.9097 6.59156 21.197C6.38797 20.5353 6.0825 19.4155 5.92984 18.6011C-1.45094 23.9459 -0.687346 31.1742 1.55234 34.5847C3.23203 37.13 6.6425 38.708 10.4092 38.708C11.4272 38.708 12.4452 38.6061 13.4633 38.3517C19.9787 37.0791 24.9162 33.2103 27.7158 27.4583ZM36.6745 21.1462C32.8059 16.6158 27.105 14.1216 20.5895 14.1216H19.7752C19.317 13.2053 18.3498 12.5944 17.2809 12.5944H17.1791C15.6012 12.6453 14.3797 13.9687 14.4305 15.5469C14.4814 17.0739 15.7539 18.2956 17.2809 18.2956H17.3827C18.5025 18.2447 19.4697 17.532 19.8769 16.5648H20.7931C24.6617 16.5648 28.3266 17.6847 31.6353 19.8736C34.1803 21.5534 36.0128 23.7423 37.0308 26.3892C37.8961 28.5272 37.8452 30.6142 36.9289 32.3959C35.5037 35.0937 33.1114 36.57 29.9555 36.57C27.9194 36.57 25.9852 35.9591 24.967 35.5009C24.4072 36.01 23.3891 36.8244 22.6764 37.3336C24.8653 38.3516 27.105 38.9116 29.2428 38.9116C34.1294 38.9116 37.7434 36.2136 39.1178 33.5158C40.5939 30.5633 40.492 25.473 36.6745 21.1462ZM10.8164 28.3234C10.8673 29.8506 12.1398 31.0722 13.6669 31.0722H13.7687C15.3467 31.0214 16.5683 29.6978 16.5173 28.1198C16.4666 26.5927 15.1939 25.3711 13.6669 25.3711H13.5652C13.4633 25.3711 13.3105 25.3711 13.2089 25.4219C11.1219 21.9605 10.2566 18.1937 10.562 14.1214C10.7655 11.0672 11.7836 8.42016 13.5652 6.23125C15.0412 4.34781 17.8917 3.43156 19.8261 3.38078C25.2216 3.27891 27.512 9.99812 27.6648 12.6961C28.3266 12.8487 29.4464 13.2052 30.21 13.4597C29.5991 5.21344 24.5089 0.9375 19.6225 0.9375C15.0412 0.9375 10.8164 4.24625 9.13656 9.13297C6.79515 15.6486 8.32218 21.9097 11.1727 26.8473C10.9183 27.2036 10.7655 27.7636 10.8164 28.3236V28.3234Z" fill="#764ABC"/>
</g>
<defs>
<clipPath id="clip0_5328_33754">
<rect width="40" height="40" fill="white"/>
</clipPath>
</defs>
</svg>
