<svg width="112" height="60" viewBox="0 0 112 60" fill="none" xmlns="http://www.w3.org/2000/svg">
<path d="M10.7518 60C16.6846 60 21.4996 55.52 21.4996 50V40H10.7518C4.81894 40 0.00390625 44.48 0.00390625 50C0.00390625 55.52 4.81894 60 10.7518 60Z" fill="#0ACF83"/>
<path d="M0.00390625 30C0.00390625 24.48 4.81894 20 10.7518 20H21.4996V40H10.7518C4.81894 40 0.00390625 35.52 0.00390625 30Z" fill="#A259FF"/>
<path d="M0.00390625 10C0.00390625 4.48 4.81894 0 10.7518 0H21.4996V20H10.7518C4.81894 20 0.00390625 15.52 0.00390625 10Z" fill="#F24E1E"/>
<path d="M21.5 0H32.2479C38.1807 0 42.9957 4.48 42.9957 10C42.9957 15.52 38.1807 20 32.2479 20H21.5V0Z" fill="#FF7262"/>
<path d="M42.9957 30C42.9957 35.52 38.1807 40 32.2479 40C26.315 40 21.5 35.52 21.5 30C21.5 24.48 26.315 20 32.2479 20C38.1807 20 42.9957 24.48 42.9957 30Z" fill="#1ABCFE"/>
<path d="M52.28 52V45.376H58.88V42.328H52.256V38.128H59.696V34.984H48.944V52H52.28ZM64.3657 52V40.192H61.1737V52H64.3657ZM60.7897 36.328C60.7897 37.384 61.6777 38.272 62.7577 38.272C63.8857 38.272 64.7257 37.384 64.7257 36.328C64.7257 35.2 63.8857 34.336 62.7577 34.336C61.6777 34.336 60.7897 35.2 60.7897 36.328ZM65.9831 52.648C66.2951 54.904 68.4791 56.92 71.7191 56.92C76.1351 56.92 77.9111 53.968 77.9111 50.728V40.192H74.8391V41.584C74.4311 40.792 73.3751 39.976 71.4791 39.976C68.2391 39.976 65.9831 42.592 65.9831 45.736C65.9831 49.048 68.3351 51.472 71.4791 51.472C73.2071 51.472 74.2871 50.728 74.7671 49.96V50.824C74.7671 53.128 73.6391 54.112 71.6231 54.112C70.0871 54.112 69.0791 53.2 68.8631 51.88L65.9831 52.648ZM72.0311 48.736C70.3751 48.736 69.1991 47.584 69.1991 45.736C69.1991 43.912 70.4231 42.76 72.0311 42.76C73.5671 42.76 74.8151 43.912 74.8151 45.736C74.8151 47.56 73.6631 48.736 72.0311 48.736ZM83.3754 52V45.088C83.3754 43.768 84.1674 42.76 85.5834 42.76C87.0234 42.76 87.6714 43.72 87.6714 44.992V52H90.8394V45.088C90.8394 43.816 91.6554 42.76 93.0234 42.76C94.4874 42.76 95.1114 43.72 95.1114 44.992V52H98.2074V44.344C98.2074 41.176 96.1194 39.856 93.9354 39.856C92.3754 39.856 91.1274 40.384 90.1914 41.824C89.5914 40.552 88.3194 39.856 86.6874 39.856C85.3914 39.856 83.8794 40.48 83.2314 41.632V40.192H80.1834V52H83.3754ZM99.7612 48.784C99.7612 50.608 101.297 52.336 103.817 52.336C105.569 52.336 106.697 51.52 107.297 50.584C107.297 51.04 107.345 51.688 107.417 52H110.345C110.273 51.592 110.201 50.776 110.201 50.128V44.32C110.201 41.944 108.809 39.832 105.065 39.832C101.873 39.832 100.193 41.872 100.001 43.72L102.833 44.32C102.929 43.288 103.673 42.4 105.089 42.4C106.433 42.4 107.081 43.096 107.081 43.936C107.081 44.344 106.865 44.68 106.193 44.776L103.289 45.208C101.321 45.52 99.7612 46.648 99.7612 48.784ZM104.489 49.96C103.457 49.96 102.953 49.288 102.953 48.592C102.953 47.656 103.577 47.224 104.417 47.104L107.081 46.696V47.224C107.081 49.312 105.833 49.96 104.489 49.96Z" fill="white"/>
</svg>
