<svg width="97" height="60" viewBox="0 0 97 60" fill="none" xmlns="http://www.w3.org/2000/svg">
<path d="M13.8649 46.3828C13.8649 46.3828 11.648 47.7138 15.4426 48.1642C20.0397 48.7056 22.3892 48.628 27.4552 47.6381C27.4552 47.6381 28.7871 48.5003 30.6472 49.2471C19.2905 54.272 4.9448 48.956 13.8649 46.3828Z" fill="#5382A1"/>
<path d="M12.4778 39.8262C12.4778 39.8262 9.9913 41.7264 13.7887 42.1319C18.6995 42.6549 22.5776 42.6977 29.2883 41.3636C29.2883 41.3636 30.2165 42.3351 31.676 42.8664C17.945 47.0115 2.65128 43.1933 12.4778 39.8262Z" fill="#5382A1"/>
<path d="M24.178 28.7016C26.9762 32.0277 23.4427 35.0208 23.4427 35.0208C23.4427 35.0208 30.548 31.234 27.2849 26.492C24.2372 22.0698 21.9 19.8726 34.5525 12.2969C34.5525 12.2969 14.6923 17.4177 24.178 28.7016Z" fill="#E76F00"/>
<path d="M39.197 51.2331C39.197 51.2331 40.8375 52.6287 37.3902 53.7083C30.835 55.7585 10.1066 56.3776 4.34837 53.79C2.27843 52.8603 6.16016 51.5702 7.3812 51.2995C8.65463 51.0144 9.38234 51.0675 9.38234 51.0675C7.08036 49.3933 -5.49675 54.3548 2.99379 55.7757C26.1487 59.6525 45.2031 54.03 39.197 51.2331Z" fill="#5382A1"/>
<path d="M14.9329 33.0312C14.9329 33.0312 4.38914 35.6167 11.1991 36.5556C14.0745 36.953 19.8064 36.8631 25.1456 36.4012C29.5091 36.0212 33.8906 35.2133 33.8906 35.2133C33.8906 35.2133 32.352 35.8935 31.2388 36.6782C20.5318 39.5854 -0.152124 38.233 5.80251 35.2593C10.8384 32.7461 14.9329 33.0312 14.9329 33.0312Z" fill="#5382A1"/>
<path d="M33.8457 43.9466C44.7299 38.1076 39.6975 32.4963 36.1849 33.2523C35.324 33.4373 34.9401 33.5976 34.9401 33.5976C34.9401 33.5976 35.2597 33.0807 35.8701 32.8569C42.8191 30.3348 48.1633 40.2958 33.627 44.2409C33.627 44.2411 33.7954 44.0856 33.8457 43.9466Z" fill="#5382A1"/>
<path d="M27.2833 0.0644531C27.2833 0.0644531 33.3111 6.28965 21.5662 15.8623C12.1479 23.5411 19.4185 27.9194 21.5623 32.9218C16.0647 27.8009 12.0302 23.293 14.7368 19.0975C18.7096 12.9388 29.7154 9.95281 27.2833 0.0644531Z" fill="#E76F00"/>
<path d="M16.0006 59.7679C26.448 60.4583 42.4912 59.3848 42.8712 54.2812C42.8712 54.2812 42.1408 56.216 34.2369 57.7525C25.3198 59.4849 14.3219 59.2826 7.79883 58.1723C7.79898 58.1722 9.13417 59.3133 16.0006 59.7679Z" fill="#5382A1"/>
<path d="M47.9278 46.816C47.9278 50.152 50.1358 52.36 53.4958 52.36C56.8318 52.36 59.0398 49.816 59.0398 46.744V34.984H55.7278V46.744C55.7278 48.256 54.8878 49.216 53.4718 49.216C52.1278 49.216 51.1438 48.424 51.1198 46.672V45.112L47.9278 45.688V46.816ZM60.7609 48.784C60.7609 50.608 62.2969 52.336 64.8169 52.336C66.5689 52.336 67.6969 51.52 68.2969 50.584C68.2969 51.04 68.3449 51.688 68.4169 52H71.3449C71.2729 51.592 71.2009 50.776 71.2009 50.128V44.32C71.2009 41.944 69.8089 39.832 66.0649 39.832C62.8729 39.832 61.1929 41.872 61.0009 43.72L63.8329 44.32C63.9289 43.288 64.6729 42.4 66.0889 42.4C67.4329 42.4 68.0809 43.096 68.0809 43.936C68.0809 44.344 67.8649 44.68 67.1929 44.776L64.2889 45.208C62.3209 45.52 60.7609 46.648 60.7609 48.784ZM65.4889 49.96C64.4569 49.96 63.9529 49.288 63.9529 48.592C63.9529 47.656 64.5769 47.224 65.4169 47.104L68.0809 46.696V47.224C68.0809 49.312 66.8329 49.96 65.4889 49.96ZM84.3834 40.192H81.0234L78.2154 48.112L75.2874 40.192H71.7834L76.6074 52H79.7994L84.3834 40.192ZM84.5987 48.784C84.5987 50.608 86.1347 52.336 88.6547 52.336C90.4067 52.336 91.5347 51.52 92.1347 50.584C92.1347 51.04 92.1827 51.688 92.2547 52H95.1827C95.1107 51.592 95.0387 50.776 95.0387 50.128V44.32C95.0387 41.944 93.6467 39.832 89.9027 39.832C86.7107 39.832 85.0307 41.872 84.8387 43.72L87.6707 44.32C87.7667 43.288 88.5107 42.4 89.9267 42.4C91.2707 42.4 91.9187 43.096 91.9187 43.936C91.9187 44.344 91.7027 44.68 91.0307 44.776L88.1267 45.208C86.1587 45.52 84.5987 46.648 84.5987 48.784ZM89.3267 49.96C88.2947 49.96 87.7907 49.288 87.7907 48.592C87.7907 47.656 88.4147 47.224 89.2547 47.104L91.9187 46.696V47.224C91.9187 49.312 90.6707 49.96 89.3267 49.96Z" fill="white"/>
</svg>
