<svg width="134" height="60" viewBox="0 0 134 60" fill="none" xmlns="http://www.w3.org/2000/svg">
<g clip-path="url(#clip0_5328_33758)">
<path d="M41.5737 41.1874C43.7878 40.9582 45.4676 39.0495 45.3912 36.7587C45.315 34.4681 43.406 32.6355 41.1155 32.6355H40.9629C38.5957 32.712 36.7634 34.6971 36.8398 37.0641C36.9162 38.2094 37.3741 39.202 38.0613 39.8892C35.4654 45.0052 31.4951 48.7465 25.5396 51.877C21.4929 54.015 17.2936 54.7786 13.0943 54.2442C9.65836 53.786 6.98601 52.2591 5.30601 49.7391C2.86289 45.9977 2.6339 41.9508 4.69547 37.9041C6.14625 35.0025 8.43656 32.8645 9.88734 31.7955C9.58195 30.803 9.12375 29.1232 8.89476 27.9016C-2.17641 35.9189 -1.03102 46.7613 2.32851 51.877C4.84804 55.695 9.96375 58.062 15.6138 58.062C17.1408 58.062 18.6677 57.9091 20.1949 57.5276C29.9681 55.6186 37.3744 49.8155 41.5737 41.1874ZM55.0118 31.7194C49.2089 24.9237 40.6575 21.1823 30.8843 21.1823H29.6627C28.9755 19.808 27.5248 18.8916 25.9214 18.8916H25.7686C23.4019 18.968 21.5695 20.9531 21.6457 23.3203C21.7221 25.6109 23.6309 27.4434 25.9214 27.4434H26.074C27.7537 27.367 29.2045 26.298 29.8153 24.8473H31.1897C36.9926 24.8473 42.4898 26.527 47.453 29.8104C51.2705 32.3302 54.0192 35.6135 55.5462 39.5838C56.8441 42.7908 56.7677 45.9213 55.3934 48.5939C53.2556 52.6406 49.6671 54.855 44.9332 54.855C41.8791 54.855 38.9777 53.9386 37.4505 53.2514C36.6108 54.015 35.0836 55.2366 34.0146 56.0004C37.298 57.5273 40.6575 58.3673 43.8642 58.3673C51.1941 58.3673 56.6152 54.3204 58.6767 50.2737C60.8909 45.8449 60.738 38.2094 55.0118 31.7194ZM16.2246 42.4852C16.301 44.7759 18.2098 46.6083 20.5003 46.6083H20.6531C23.0201 46.5321 24.8524 44.5467 24.776 42.1798C24.6998 39.889 22.7909 38.0566 20.5003 38.0566H20.3477C20.1949 38.0566 19.9657 38.0566 19.8134 38.1328C16.6828 32.9407 15.3848 27.2906 15.843 21.1821C16.1482 16.6008 17.6754 12.6302 20.3477 9.34687C22.5619 6.52172 26.8376 5.14734 29.7391 5.07117C37.8323 4.91836 41.268 14.9972 41.4973 19.0441C42.4898 19.2731 44.1696 19.8077 45.315 20.1895C44.3986 7.82016 36.7634 1.40625 29.4337 1.40625C22.5619 1.40625 16.2246 6.36937 13.7048 13.6995C10.1927 23.4729 12.4833 32.8645 16.759 40.271C16.3774 40.8054 16.1482 41.6454 16.2246 42.4854V42.4852Z" fill="#764ABC"/>
</g>
<path d="M78.5413 39H82.2373L78.5893 32.04C80.8213 31.392 82.2133 29.616 82.2133 27.216C82.2133 24.264 80.1013 21.984 76.7893 21.984H70.1413V39H73.4773V32.448H75.2053L78.5413 39ZM73.4773 29.592V24.864H76.1653C77.8693 24.864 78.8293 25.8 78.8293 27.24C78.8293 28.656 77.8693 29.592 76.1653 29.592H73.4773ZM85.9412 31.752C86.0132 30.696 86.9252 29.424 88.5812 29.424C90.4052 29.424 91.1492 30.6 91.2212 31.752H85.9412ZM91.5332 34.824C91.1492 35.88 90.3572 36.624 88.8452 36.624C87.2612 36.624 85.9412 35.472 85.8692 33.936H94.3172C94.3172 33.864 94.3652 33.408 94.3652 32.952C94.3652 29.136 92.2052 26.832 88.5332 26.832C85.5092 26.832 82.7252 29.28 82.7252 33.048C82.7252 37.032 85.5572 39.36 88.8212 39.36C91.7012 39.36 93.6212 37.68 94.1972 35.616L91.5332 34.824ZM107.175 21.624H104.031V28.368C103.719 27.744 102.711 26.904 100.695 26.904C97.3588 26.904 95.0308 29.616 95.0308 33.072C95.0308 36.648 97.4308 39.288 100.791 39.288C102.399 39.288 103.551 38.568 104.103 37.632C104.103 38.184 104.151 38.736 104.223 39H107.271C107.199 38.52 107.175 37.656 107.175 36.864V21.624ZM98.2468 33.072C98.2468 30.96 99.5428 29.76 101.175 29.76C102.807 29.76 104.079 30.936 104.079 33.048C104.079 35.184 102.807 36.432 101.175 36.432C99.4708 36.432 98.2468 35.184 98.2468 33.072ZM120.407 39C120.335 38.592 120.287 37.8 120.287 36.864V27.192H117.095V34.056C117.095 35.424 116.303 36.384 114.863 36.384C113.351 36.384 112.703 35.352 112.703 34.008V27.192H109.511V34.656C109.511 37.224 111.143 39.312 113.999 39.312C115.247 39.312 116.615 38.856 117.263 37.728C117.263 38.208 117.287 38.736 117.359 39H120.407ZM121.317 39H124.917C125.301 38.376 126.909 36 127.341 35.376L129.813 39H133.557L129.285 32.976L133.413 27.192H129.789L127.461 30.696C127.077 30.048 125.493 27.84 125.109 27.192H121.317L125.517 33.072L121.317 39Z" fill="white"/>
<defs>
<clipPath id="clip0_5328_33758">
<rect width="60" height="60" fill="white"/>
</clipPath>
</defs>
</svg>
