<svg width="126" height="38" viewBox="0 0 126 38" fill="none" xmlns="http://www.w3.org/2000/svg">
<path d="M52.64 22.448L48.272 8.984H45.8L41.528 22.304L37.784 8.984H35.36L40.28 26H42.632L47.024 12.2L51.464 26H53.888L58.736 8.984H56.312L52.64 22.448ZM60.674 19.04C60.746 17.576 61.946 16.088 63.818 16.088C65.858 16.088 66.914 17.384 66.986 19.04H60.674ZM67.322 22.04C66.866 23.36 65.978 24.368 64.082 24.368C62.114 24.368 60.674 22.928 60.602 20.864H69.29C69.314 20.696 69.338 20.432 69.338 20.144C69.338 16.568 67.346 14.096 63.794 14.096C60.89 14.096 58.274 16.568 58.274 20.192C58.274 24.128 60.986 26.36 64.082 26.36C66.746 26.36 68.642 24.728 69.266 22.712L67.322 22.04ZM73.4898 26V24.32C74.2338 25.568 75.5058 26.312 77.2338 26.312C80.6658 26.312 82.6098 23.6 82.6098 20.168C82.6098 16.808 80.8098 14.12 77.3058 14.12C75.3858 14.12 74.0418 15.056 73.4898 16.088V8.624H71.2578V26H73.4898ZM80.3058 20.168C80.3058 22.664 78.9858 24.296 76.8978 24.296C74.8818 24.296 73.4658 22.688 73.4658 20.168C73.4658 17.672 74.8818 16.112 76.8978 16.112C79.0098 16.112 80.3058 17.672 80.3058 20.168ZM96.5484 26H99.0924L92.3244 8.984H89.6124L82.8444 26H85.3644L87.1644 21.248H94.7004L96.5484 26ZM90.9084 11.432L93.8604 19.064H88.0044L90.9084 11.432ZM102.414 30.56V24.44C103.062 25.472 104.358 26.312 106.158 26.312C109.542 26.312 111.534 23.648 111.534 20.216C111.534 16.856 109.686 14.192 106.23 14.192C104.334 14.192 103.014 15.104 102.366 16.256V14.456H100.182V30.56H102.414ZM109.23 20.216C109.23 22.616 107.91 24.296 105.822 24.296C103.758 24.296 102.39 22.616 102.39 20.216C102.39 17.936 103.758 16.184 105.822 16.184C107.934 16.184 109.23 17.936 109.23 20.216ZM115.68 30.56V24.44C116.328 25.472 117.624 26.312 119.424 26.312C122.808 26.312 124.8 23.648 124.8 20.216C124.8 16.856 122.952 14.192 119.496 14.192C117.6 14.192 116.28 15.104 115.632 16.256V14.456H113.448V30.56H115.68ZM122.496 20.216C122.496 22.616 121.176 24.296 119.088 24.296C117.024 24.296 115.656 22.616 115.656 20.216C115.656 17.936 117.024 16.184 119.088 16.184C121.2 16.184 122.496 17.936 122.496 20.216Z" fill="#F2F3F4"/>
<path fill-rule="evenodd" clip-rule="evenodd" d="M2 9.05361C2 7.95944 2.9385 7 4.1875 7H5.37449C5.4671 7.36097 5.66024 7.69024 5.93202 7.95053C6.32181 8.32384 6.84159 8.52637 7.375 8.52637H11.625C12.1584 8.52637 12.6782 8.32384 13.068 7.95053C13.3398 7.69024 13.5329 7.36097 13.6255 7H14.8125C16.0615 7 17 7.95944 17 9.05361V33.4825C17 34.5767 16.0615 35.5361 14.8125 35.5361H4.1875C2.9385 35.5361 2 34.5767 2 33.4825V9.05361ZM4.1875 5H5.78125H13.2188H14.8125C17.0843 5 19 6.77486 19 9.05361V33.4825C19 35.7613 17.0843 37.5361 14.8125 37.5361H4.1875C1.91568 37.5361 0 35.7613 0 33.4825V9.05361C0 6.77486 1.91568 5 4.1875 5Z" fill="white"/>
</svg>
