<svg width="14" height="14" viewBox="0 0 14 14" fill="none" xmlns="http://www.w3.org/2000/svg">
<path d="M13.4219 3.43126C13.2124 2.94632 12.9104 2.50687 12.5328 2.13751C12.1549 1.76705 11.7093 1.47265 11.2203 1.27032C10.7132 1.05969 10.1694 0.951872 9.62031 0.953136C8.85 0.953136 8.09844 1.16407 7.44531 1.56251C7.28906 1.65782 7.14062 1.76251 7 1.87657C6.85938 1.76251 6.71094 1.65782 6.55469 1.56251C5.90156 1.16407 5.15 0.953136 4.37969 0.953136C3.825 0.953136 3.2875 1.05939 2.77969 1.27032C2.28906 1.47345 1.84687 1.76564 1.46719 2.13751C1.08906 2.50645 0.786997 2.94601 0.578125 3.43126C0.360938 3.93595 0.25 4.47189 0.25 5.02345C0.25 5.54376 0.35625 6.08595 0.567188 6.63751C0.74375 7.09845 0.996875 7.57657 1.32031 8.05939C1.83281 8.82345 2.5375 9.62033 3.4125 10.4281C4.8625 11.7672 6.29844 12.6922 6.35938 12.7297L6.72969 12.9672C6.89375 13.0719 7.10469 13.0719 7.26875 12.9672L7.63906 12.7297C7.7 12.6906 9.13437 11.7672 10.5859 10.4281C11.4609 9.62033 12.1656 8.82345 12.6781 8.05939C13.0016 7.57657 13.2562 7.09845 13.4312 6.63751C13.6422 6.08595 13.7484 5.54376 13.7484 5.02345C13.75 4.47189 13.6391 3.93595 13.4219 3.43126ZM7 11.7313C7 11.7313 1.4375 8.1672 1.4375 5.02345C1.4375 3.43126 2.75469 2.14064 4.37969 2.14064C5.52187 2.14064 6.5125 2.77814 7 3.70939C7.4875 2.77814 8.47813 2.14064 9.62031 2.14064C11.2453 2.14064 12.5625 3.43126 12.5625 5.02345C12.5625 8.1672 7 11.7313 7 11.7313Z" fill="#F2F3F4"/>
</svg>
