<svg width="53" height="44" viewBox="0 0 53 44" fill="none" xmlns="http://www.w3.org/2000/svg">
<rect y="15" width="20" height="2" fill="#171B21"/>
<rect y="21" width="20" height="2" fill="#171B21"/>
<path d="M42.3308 17V5.656H39.3228L35.9948 13.848L32.5868 5.656H29.6747V17H31.7868V9.112L35.0508 17H36.8907L40.1548 9.048V17H42.3308ZM51.7088 17V14.92H46.8128V12.296H51.2448V10.328H46.8128V7.736H51.7088V5.656H44.6048V17H51.7088ZM39.9563 39V27.656H37.7483V35.16L33.0283 27.656H30.2763V39H32.4843V30.952L37.6363 39H39.9563ZM46.4619 39.256C48.8939 39.256 50.8299 37.768 50.8299 34.984V27.656H48.6219V34.824C48.6219 36.312 47.8059 37.096 46.4619 37.096C45.1339 37.096 44.3179 36.312 44.3179 34.824V27.656H42.1099V34.984C42.1099 37.768 44.0459 39.256 46.4619 39.256Z" fill="#171B21"/>
</svg>
