<svg width="13" height="22" viewBox="0 0 13 22" fill="none" xmlns="http://www.w3.org/2000/svg">
<path d="M2.33992 0.917893C1.9494 0.527369 1.31623 0.527369 0.925706 0.917893C0.535181 1.30842 0.535181 1.94158 0.925706 2.33211L2.33992 0.917893ZM11.0078 11L11.7149 11.7071L12.422 11L11.7149 10.2929L11.0078 11ZM0.925706 19.6679C0.535181 20.0584 0.535181 20.6916 0.925706 21.0821C1.31623 21.4726 1.9494 21.4726 2.33992 21.0821L0.925706 19.6679ZM10.3007 10.2929L0.925706 19.6679L2.33992 21.0821L11.7149 11.7071L10.3007 10.2929ZM0.925706 2.33211L5.6132 7.01961L7.02742 5.60539L2.33992 0.917893L0.925706 2.33211ZM5.6132 7.01961L10.3007 11.7071L11.7149 10.2929L7.02742 5.60539L5.6132 7.01961Z" fill="#171B21"/>
</svg>
