<svg width="170" height="171" viewBox="0 0 170 171" fill="none" xmlns="http://www.w3.org/2000/svg">
<path d="M82.921 154.241L82.2582 158.834C82.0936 159.974 81.2825 160.665 80.2057 160.51C79.0655 160.345 78.6979 159.532 78.8419 158.535L79.5321 153.752L78.0435 153.537L77.3784 158.146C77.2207 159.238 76.4051 159.961 75.3441 159.808C74.2197 159.646 73.8362 158.831 73.9802 157.833L74.6705 153.051L73.1977 152.838L72.4846 157.779C72.1989 159.758 73.3649 160.864 74.6951 161.056C75.6611 161.196 76.6774 160.987 77.4527 159.983C77.7363 161.042 78.5749 161.616 79.5251 161.753C80.4119 161.881 81.4034 161.62 82.0154 160.852L81.8691 161.865L83.2944 162.071L84.3937 154.454L82.921 154.241Z" fill="#F2F3F4"/>
<path d="M53.1378 148.71C53.7705 147.671 53.4758 146.218 52.1367 145.402C50.9616 144.686 49.9228 144.915 49.3528 145.205C49.6442 144.727 49.7667 144.464 49.8256 144.275L48.5685 143.509C48.5096 143.698 48.3508 144.051 47.9929 144.639L45.9866 147.932C45.2125 149.202 45.2867 150.803 47.2543 152.001C48.689 152.875 50.3285 152.675 51.2447 151.51L50.1898 150.474C49.628 151.18 48.8084 151.449 47.8929 150.892C46.8955 150.284 46.7966 149.493 47.1878 148.851C47.3293 148.618 47.5635 148.48 47.9931 148.667L49.9275 149.489C51.1835 150.011 52.4136 149.899 53.1378 148.71ZM51.3014 146.373C51.9573 146.773 52.0842 147.487 51.7845 147.979C51.4265 148.567 50.8335 148.617 50.2286 148.38L48.0369 147.457L48.2201 147.156C49.0941 145.722 50.2493 145.732 51.3014 146.373Z" fill="#F2F3F4"/>
<path d="M30.4417 134.33C29.5467 135.055 28.4281 135.2 27.6726 134.267C26.8265 133.223 27.2158 132.331 28.0487 131.656L31.6415 128.745L30.6946 127.577L26.903 130.649C25.5604 131.737 25.1051 133.259 26.2735 134.701C26.8376 135.397 27.6976 135.874 28.796 135.705L27.9383 136.4L28.8649 137.543L34.8445 132.699L33.8977 131.53L30.4417 134.33Z" fill="#F2F3F4"/>
<path d="M21.4262 111.953L14.3001 114.86L14.862 116.237L21.9881 113.331L21.4262 111.953ZM12.2925 117.648C12.8407 117.425 13.1038 116.799 12.8803 116.251C12.6446 115.673 12.025 115.425 11.4768 115.648C10.899 115.884 10.6446 116.489 10.8802 117.067C11.1038 117.615 11.7147 117.884 12.2925 117.648Z" fill="#F2F3F4"/>
<path d="M10.1434 94.1872L8.79496 94.3639L9.03603 96.2041L7.83033 96.3621C6.76741 96.5013 6.44008 95.8503 6.3715 95.3268C6.32162 94.946 6.34428 94.7494 6.38148 94.6639L5.04887 94.8384C5.00959 94.9081 4.9401 95.24 5.0066 95.7476C5.1874 97.1278 6.23922 98.1358 7.95259 97.9113L9.23761 97.743L9.42256 99.1549L10.771 98.9783L10.5861 97.5663L16.8684 96.7434L16.6668 95.2045L10.3845 96.0275L10.1434 94.1872Z" fill="#F2F3F4"/>
<path d="M11.5794 76.7096C10.6269 76.4918 9.78996 75.5307 10.0081 74.3019C10.2458 72.9629 11.2196 72.4207 12.315 72.5664L11.5794 76.7096ZM14.3233 72.6954C15.1366 73.1486 15.6948 73.8489 15.4739 75.0935C15.2446 76.3853 14.1315 77.1627 12.7683 76.9694L13.7807 71.2666C13.6732 71.2313 13.5027 71.1848 13.3137 71.1512C10.9664 70.7345 9.11165 71.754 8.69775 74.0856C8.35936 75.9918 9.67715 77.997 12.056 78.4193C14.6396 78.8779 16.4207 77.3578 16.7814 75.3256C17.0919 73.5769 16.2416 72.1422 14.991 71.4977L14.3233 72.6954Z" fill="#F2F3F4"/>
<path d="M20.0672 55.4924C20.9129 55.8148 22.5228 55.6827 23.5466 53.8355C24.4696 52.1702 23.7782 50.7442 22.8266 50.2168C21.819 49.6583 20.7423 49.8847 19.7938 50.9688L18.9509 51.9285C18.552 52.3843 18.1465 52.4888 17.7127 52.2483C17.2509 51.9924 17.0653 51.3041 17.4376 50.6324C18.0348 49.5548 18.9364 49.7435 19.3327 49.8535L19.5427 48.4515C18.8696 48.2797 17.3419 48.1646 16.318 50.0119C15.5889 51.3273 15.9573 52.9401 17.1188 53.5838C18.0704 54.1113 19.1254 53.8911 19.9388 52.9517L20.8267 51.9438C21.2629 51.4538 21.7414 51.3166 22.1752 51.557C22.665 51.8285 22.8459 52.4593 22.4348 53.201C21.9074 54.1526 21.0746 54.3678 20.3066 54.0702L20.0672 55.4924Z" fill="#F2F3F4"/>
<path d="M28.7683 29.2039L27.7814 30.1627L28.6511 31.0578C29.1305 31.5513 29.2237 32.1523 28.6269 32.7321L28.3286 33.0219L29.2763 33.9974L30.332 32.9716L33.2755 36.0012C34.2566 37.0111 35.3882 37.0047 36.3407 36.0793C36.7079 35.7226 36.9164 35.3861 36.9748 35.2625L36.0828 34.3445C36.0245 34.4681 35.8405 34.6691 35.7028 34.8029C35.1405 35.3492 34.6887 35.2974 34.1981 34.7925L31.4107 31.9236L32.6042 30.764L31.6565 29.7886L30.463 30.9482L28.7683 29.2039Z" fill="#F2F3F4"/>
<path d="M51.3269 23.3852C50.1759 23.9451 48.7488 23.5719 47.9648 21.9604C47.1878 20.3634 47.775 19.0102 48.926 18.4502C50.077 17.8902 51.5041 18.2635 52.2811 19.8605C53.0651 21.4719 52.4779 22.8252 51.3269 23.3852ZM48.338 17.2416C46.2662 18.2496 45.5616 20.5318 46.5836 22.6324C47.6126 24.7474 49.8431 25.6017 51.9149 24.5937C53.9867 23.5858 54.6913 21.3035 53.6623 19.1885C52.6404 17.088 50.4099 16.2337 48.338 17.2416Z" fill="#F2F3F4"/>
<path d="M87.1668 15.0178C87.121 15.6401 87.5645 16.154 88.1868 16.1998C88.8091 16.2456 89.339 15.8033 89.3848 15.181C89.4306 14.5586 88.9723 14.0276 88.35 13.9818C87.7276 13.936 87.2125 14.3955 87.1668 15.0178Z" fill="#F2F3F4"/>
<path d="M124.121 28.3775L124.937 27.1523L120.476 24.1817L125.947 15.9645L124.642 15.0955L118.355 24.538L124.121 28.3775Z" fill="#F2F3F4"/>
<path d="M143.242 35.78C143.375 35.6636 143.504 35.5695 143.621 35.4848C144.708 34.6947 145.989 34.6339 146.892 35.8764C147.767 37.0801 147.384 38.268 146.517 38.8983C145.792 39.4251 144.792 39.5189 143.596 39.0433L141.476 38.2498C139.351 37.421 137.815 37.6475 136.311 38.6811L140.911 45.01L142.114 44.1352L138.653 39.3723C139.365 39.0725 140.114 39.2598 140.881 39.553L143.385 40.5219C144.788 41.0646 146.257 41.045 147.461 40.1702C148.962 39.079 149.425 37.0217 148.024 35.0933C146.584 33.1131 144.372 32.9806 142.819 34.1094L142.495 34.3446L143.242 35.78Z" fill="#F2F3F4"/>
<path d="M156.728 62.1921C157.083 63.4553 156.382 64.2168 155.714 64.6203L156.637 65.7741C157.666 65.1196 158.626 63.8032 158.068 61.816C157.476 59.7055 155.389 58.5462 153.094 59.1904C150.845 59.8216 149.596 61.8838 150.201 64.0405C150.745 65.9815 152.283 66.6635 153.45 66.7349L153.645 65.3007C153.012 65.2955 151.93 65.0508 151.541 63.6644C151.204 62.4628 151.83 61.1405 153.509 60.6693C155.234 60.1851 156.4 61.0213 156.728 62.1921Z" fill="#F2F3F4"/>
<path d="M154.782 87.4605C154.886 86.1848 155.933 85.1464 157.719 85.2919C159.49 85.4362 160.355 86.6304 160.251 87.9062C160.147 89.182 159.1 90.2203 157.33 90.0761C155.543 89.9306 154.678 88.7363 154.782 87.4605ZM161.591 88.0154C161.778 85.719 160.172 83.9507 157.844 83.761C155.5 83.57 153.629 85.055 153.442 87.3514C153.255 89.6478 154.861 91.416 157.205 91.607C159.533 91.7967 161.404 90.3118 161.591 88.0154Z" fill="#F2F3F4"/>
<path d="M152.741 111.453C154.168 112.139 154.789 113.432 154.193 114.672C153.589 115.927 152.269 116.197 150.828 115.504C149.4 114.817 148.686 113.532 149.283 112.292C149.907 110.995 151.314 110.766 152.741 111.453ZM148.24 114.276C147.822 114.075 147.447 113.931 147.268 113.898L146.637 115.21C146.759 115.251 147.277 115.429 147.955 115.755L157.11 120.16L157.755 118.819L153.271 116.662C153.959 116.708 154.876 116.315 155.459 115.104C156.402 113.143 155.353 111.005 153.407 110.069C151.331 109.07 149.12 109.568 148.149 111.587C147.622 112.683 147.837 113.674 148.355 114.332L148.24 114.276Z" fill="#F2F3F4"/>
<path d="M139.208 134.563C139.851 135.299 139.964 136.568 139.066 137.434C138.087 138.379 136.98 138.246 136.179 137.484L139.208 134.563ZM134.63 136.201C134.237 135.356 134.197 134.462 135.106 133.584C136.051 132.673 137.408 132.697 138.398 133.654L134.23 137.676C134.296 137.768 134.407 137.905 134.54 138.043C136.195 139.759 138.295 140.023 139.999 138.379C141.393 137.035 141.503 134.638 139.826 132.899C138.004 131.011 135.67 131.195 134.184 132.628C132.906 133.861 132.752 135.522 133.386 136.778L134.63 136.201Z" fill="#F2F3F4"/>
<path d="M104.969 151.897C104.812 151.293 104.227 150.948 103.623 151.105C103.019 151.261 102.659 151.85 102.816 152.454C102.972 153.058 103.577 153.414 104.181 153.258C104.785 153.101 105.125 152.501 104.969 151.897Z" fill="#F2F3F4"/>
</svg>
