<svg width="40" height="40" viewBox="0 0 40 40" fill="none" xmlns="http://www.w3.org/2000/svg">
<path d="M17.8245 14.8963V17.1913H16.1445V19.9963H17.8245V28.3346H21.2779V19.9963H23.5945C23.5945 19.9963 23.8129 18.6513 23.9179 17.1796H21.2912V15.263C21.2912 14.9746 21.6679 14.5896 22.0412 14.5896H23.9212V11.668H21.3629C17.7395 11.668 17.8245 14.4763 17.8245 14.8963Z" fill="#4267B2"/>
<path d="M10.0007 6.66536C9.1166 6.66536 8.26875 7.01655 7.64363 7.64168C7.01851 8.2668 6.66732 9.11464 6.66732 9.9987V29.9987C6.66732 30.8828 7.01851 31.7306 7.64363 32.3557C8.26875 32.9808 9.1166 33.332 10.0007 33.332H30.0007C30.8847 33.332 31.7326 32.9808 32.3577 32.3557C32.9828 31.7306 33.334 30.8828 33.334 29.9987V9.9987C33.334 9.11464 32.9828 8.2668 32.3577 7.64168C31.7326 7.01655 30.8847 6.66536 30.0007 6.66536H10.0007ZM10.0007 3.33203H30.0007C31.7688 3.33203 33.4645 4.03441 34.7147 5.28465C35.9649 6.5349 36.6673 8.23059 36.6673 9.9987V29.9987C36.6673 31.7668 35.9649 33.4625 34.7147 34.7127C33.4645 35.963 31.7688 36.6654 30.0007 36.6654H10.0007C8.23254 36.6654 6.53685 35.963 5.28661 34.7127C4.03636 33.4625 3.33398 31.7668 3.33398 29.9987V9.9987C3.33398 8.23059 4.03636 6.5349 5.28661 5.28465C6.53685 4.03441 8.23254 3.33203 10.0007 3.33203Z" fill="#4267B2"/>
</svg>
