<svg width="40" height="40" viewBox="0 0 40 40" fill="none" xmlns="http://www.w3.org/2000/svg">
<path d="M26.6956 3.33203H13.2457C10.6176 3.33512 8.09804 4.3806 6.23987 6.23909C4.38169 8.09758 3.33663 10.6173 3.33398 13.2454L3.33398 26.6954C3.33707 29.3234 4.38256 31.843 6.24104 33.7011C8.09953 35.5593 10.6192 36.6044 13.2473 36.607H26.6973C29.3254 36.6039 31.8449 35.5585 33.7031 33.7C35.5613 31.8415 36.6063 29.3218 36.609 26.6937V13.2437C36.6059 10.6156 35.5604 8.09609 33.7019 6.23791C31.8434 4.37974 29.3237 3.33468 26.6956 3.33203V3.33203ZM33.2623 26.6937C33.2623 27.556 33.0925 28.4099 32.7625 29.2066C32.4325 30.0034 31.9488 30.7273 31.339 31.337C30.7292 31.9468 30.0053 32.4305 29.2086 32.7605C28.4119 33.0905 27.558 33.2604 26.6956 33.2604H13.2457C11.5044 33.2599 9.83452 32.5679 8.60339 31.3364C7.37226 30.105 6.68065 28.435 6.68065 26.6937V13.2437C6.68109 11.5024 7.37313 9.83257 8.60457 8.60144C9.83601 7.37031 11.506 6.6787 13.2473 6.6787H26.6973C28.4386 6.67914 30.1084 7.37118 31.3396 8.60262C32.5707 9.83406 33.2623 11.5041 33.2623 13.2454V26.6954V26.6937Z" fill="#8A3AB9"/>
<path d="M19.9705 11.3633C17.6896 11.3668 15.5031 12.2746 13.8904 13.8876C12.2776 15.5007 11.3703 17.6873 11.3672 19.9683C11.3698 22.2498 12.2772 24.4372 13.8904 26.0506C15.5035 27.664 17.6907 28.5719 19.9722 28.5749C22.254 28.5723 24.4416 27.6647 26.0551 26.0512C27.6686 24.4377 28.5762 22.2501 28.5789 19.9683C28.5753 17.6868 27.6671 15.4998 26.0533 13.8869C24.4396 12.2741 22.2521 11.3672 19.9705 11.3649V11.3633ZM19.9705 25.2283C18.5759 25.2283 17.2384 24.6743 16.2523 23.6882C15.2662 22.702 14.7122 21.3645 14.7122 19.9699C14.7122 18.5754 15.2662 17.2379 16.2523 16.2517C17.2384 15.2656 18.5759 14.7116 19.9705 14.7116C21.3651 14.7116 22.7026 15.2656 23.6887 16.2517C24.6749 17.2379 25.2289 18.5754 25.2289 19.9699C25.2289 21.3645 24.6749 22.702 23.6887 23.6882C22.7026 24.6743 21.3651 25.2283 19.9705 25.2283Z" fill="#8A3AB9"/>
<path d="M28.5949 13.4905C29.7335 13.4905 30.6565 12.5675 30.6565 11.4289C30.6565 10.2902 29.7335 9.36719 28.5949 9.36719C27.4562 9.36719 26.5332 10.2902 26.5332 11.4289C26.5332 12.5675 27.4562 13.4905 28.5949 13.4905Z" fill="#8A3AB9"/>
</svg>
