<svg width="40" height="40" viewBox="0 0 40 40" fill="none" xmlns="http://www.w3.org/2000/svg">
<path d="M28.3327 21.8822V28.0439H24.761V22.2939C24.761 20.8505 24.2443 19.8655 22.951 19.8655C21.9643 19.8655 21.376 20.5289 21.1177 21.1722C21.0243 21.4022 20.9993 21.7222 20.9993 22.0422V28.0439H17.426C17.426 28.0439 17.4743 18.3072 17.426 17.2989H20.9993V18.8205L20.976 18.8555H20.9993V18.8222C21.4743 18.0889 22.321 17.0455 24.2193 17.0455C26.5693 17.0455 28.3327 18.5822 28.3327 21.8822ZM13.6877 12.1172C12.466 12.1172 11.666 12.9205 11.666 13.9739C11.666 15.0072 12.4427 15.8322 13.641 15.8322H13.6643C14.911 15.8322 15.686 15.0055 15.686 13.9739C15.6627 12.9205 14.911 12.1172 13.6877 12.1172ZM11.8777 28.0439H15.451V17.2989H11.8777V28.0439Z" fill="#0072B1"/>
<path d="M10.0007 6.66536C9.1166 6.66536 8.26875 7.01655 7.64363 7.64168C7.01851 8.2668 6.66732 9.11464 6.66732 9.9987V29.9987C6.66732 30.8828 7.01851 31.7306 7.64363 32.3557C8.26875 32.9808 9.1166 33.332 10.0007 33.332H30.0007C30.8847 33.332 31.7326 32.9808 32.3577 32.3557C32.9828 31.7306 33.334 30.8828 33.334 29.9987V9.9987C33.334 9.11464 32.9828 8.2668 32.3577 7.64168C31.7326 7.01655 30.8847 6.66536 30.0007 6.66536H10.0007ZM10.0007 3.33203H30.0007C31.7688 3.33203 33.4645 4.03441 34.7147 5.28465C35.9649 6.5349 36.6673 8.23059 36.6673 9.9987V29.9987C36.6673 31.7668 35.9649 33.4625 34.7147 34.7127C33.4645 35.963 31.7688 36.6654 30.0007 36.6654H10.0007C8.23254 36.6654 6.53685 35.963 5.28661 34.7127C4.03636 33.4625 3.33398 31.7668 3.33398 29.9987V9.9987C3.33398 8.23059 4.03636 6.5349 5.28661 5.28465C6.53685 4.03441 8.23254 3.33203 10.0007 3.33203Z" fill="#0072B1"/>
</svg>
