<svg width="40" height="40" viewBox="0 0 40 40" fill="none" xmlns="http://www.w3.org/2000/svg">
<path d="M28.3327 14.9104C27.7193 15.177 27.061 15.3604 26.3693 15.4404C27.076 15.0237 27.616 14.3637 27.8727 13.5787C27.1993 13.9712 26.4645 14.2473 25.6993 14.3954C25.3775 14.058 24.9903 13.7897 24.5613 13.6069C24.1323 13.4241 23.6706 13.3306 23.2043 13.332C21.316 13.332 19.786 14.8404 19.786 16.6987C19.786 16.962 19.816 17.2187 19.8743 17.4654C18.5199 17.4011 17.1937 17.0551 15.9804 16.4496C14.7671 15.8441 13.6934 14.9924 12.8277 13.9487C12.5236 14.4605 12.3635 15.045 12.3643 15.6404C12.3643 16.807 12.9693 17.8404 13.886 18.442C13.3434 18.425 12.8124 18.2806 12.336 18.0204V18.062C12.3412 18.8445 12.6173 19.6009 13.1175 20.2026C13.6177 20.8043 14.311 21.2141 15.0793 21.362C14.5749 21.4954 14.0472 21.5148 13.5343 21.4187C13.7579 22.0918 14.1855 22.6786 14.7577 23.0977C15.33 23.5167 16.0185 23.7472 16.7277 23.7571C15.511 24.6946 14.0171 25.2012 12.481 25.1971C12.206 25.1971 11.9343 25.1804 11.666 25.1504C13.2335 26.1425 15.051 26.668 16.906 26.6654C23.196 26.6654 26.6343 21.5354 26.6343 17.0854L26.6227 16.6487C27.2932 16.1775 27.8726 15.5885 28.3327 14.9104Z" fill="#1DA1F2"/>
<path d="M10.0007 6.66536C9.1166 6.66536 8.26875 7.01655 7.64363 7.64168C7.01851 8.2668 6.66732 9.11464 6.66732 9.9987V29.9987C6.66732 30.8828 7.01851 31.7306 7.64363 32.3557C8.26875 32.9808 9.1166 33.332 10.0007 33.332H30.0007C30.8847 33.332 31.7326 32.9808 32.3577 32.3557C32.9828 31.7306 33.334 30.8828 33.334 29.9987V9.9987C33.334 9.11464 32.9828 8.2668 32.3577 7.64168C31.7326 7.01655 30.8847 6.66536 30.0007 6.66536H10.0007ZM10.0007 3.33203H30.0007C31.7688 3.33203 33.4645 4.03441 34.7147 5.28465C35.9649 6.5349 36.6673 8.23059 36.6673 9.9987V29.9987C36.6673 31.7668 35.9649 33.4625 34.7147 34.7127C33.4645 35.963 31.7688 36.6654 30.0007 36.6654H10.0007C8.23254 36.6654 6.53685 35.963 5.28661 34.7127C4.03636 33.4625 3.33398 31.7668 3.33398 29.9987V9.9987C3.33398 8.23059 4.03636 6.5349 5.28661 5.28465C6.53685 4.03441 8.23254 3.33203 10.0007 3.33203Z" fill="#1DA1F2"/>
</svg>
